<?xml version="1.0" standalone="no"?><!DOCTYPE svg PUBLIC "-//W3C//DTD SVG 1.1//EN" "http://www.w3.org/Graphics/SVG/1.1/DTD/svg11.dtd"><svg height="1024" node-id="1" sillyvg="true" template-height="1024" template-width="1024" version="1.1" viewBox="0 0 1024 1024" width="1024" xmlns="http://www.w3.org/2000/svg" xmlns:xlink="http://www.w3.org/1999/xlink"><defs node-id="48"></defs><path d="M 905.10 899.80 L 103.10 899.80 L 99.80 899.60 L 96.70 898.90 L 93.70 897.90 L 90.90 896.50 L 86.00 892.70 L 82.30 887.90 L 80.90 885.10 L 79.80 882.10 L 79.20 879.00 L 79.00 875.70 L 79.20 872.40 L 79.80 869.20 L 80.90 866.30 L 84.00 860.90 L 88.40 856.60 L 90.90 854.90 L 93.70 853.50 L 96.70 852.40 L 99.80 851.80 L 103.10 851.60 L 905.10 851.60 L 908.40 851.80 L 911.50 852.40 L 914.50 853.50 L 917.30 854.90 L 922.10 858.60 L 925.90 863.50 L 927.30 866.30 L 928.30 869.20 L 929.00 872.40 L 929.20 875.70 L 929.00 879.00 L 928.30 882.10 L 927.30 885.10 L 925.90 887.90 L 922.10 892.70 L 917.30 896.50 L 914.50 897.90 L 911.50 898.90 L 908.40 899.60 L 905.10 899.80 Z M 905.00 871.60 L 103.10 871.60 L 101.50 871.90 L 100.20 872.80 L 99.30 874.10 L 99.00 875.70 L 99.30 877.30 L 100.20 878.60 L 101.50 879.50 L 103.10 879.80 L 905.00 879.80 L 906.60 879.50 L 907.90 878.60 L 908.80 877.30 L 909.10 875.70 L 908.80 874.10 L 907.90 872.80 L 906.60 871.90 L 905.00 871.60 Z" fill="#d3dcf4" fill-rule="nonzero" node-id="50" stroke="none" target-height="48.200012" target-width="850.2" target-x="79" target-y="851.6"></path><path d="M 676.30 915.50 L 753.10 915.20 L 767.90 916.10 L 775.20 917.00 L 778.90 917.90 L 782.30 919.20 L 783.90 920.50 L 784.90 921.80 L 785.30 923.30 L 785.20 924.90 L 780.30 938.50 L 779.80 944.00 L 780.20 945.90 L 781.60 949.00 L 783.40 950.70 L 785.60 952.00 L 790.80 953.70 L 796.30 954.70 L 807.40 955.60 L 815.70 955.60 L 840.80 954.40 L 842.60 954.10 L 843.90 953.50 L 844.90 952.50 L 846.10 950.00 L 846.10 947.20 L 845.70 945.90 L 843.90 943.90 L 842.60 943.30 L 840.80 943.10 L 818.30 944.20 L 803.20 944.00 L 795.80 943.10 L 789.40 941.20 L 790.90 943.00 L 791.20 943.90 L 791.30 940.70 L 791.80 938.90 L 795.70 929.60 L 796.80 924.60 L 796.70 921.40 L 796.10 918.60 L 795.00 916.20 L 793.50 914.00 L 791.60 912.10 L 789.40 910.50 L 785.70 908.60 L 781.60 907.10 L 773.30 905.40 L 766.00 904.60 L 751.20 904.00 L 676.30 904.20 L 674.60 904.40 L 673.30 905.10 L 672.30 906.00 L 671.00 908.40 L 670.90 909.90 L 671.00 911.30 L 672.20 913.80 L 673.30 914.70 L 674.60 915.30 L 676.30 915.50 Z" fill="#d3dcf4" fill-rule="nonzero" node-id="52" stroke="none" target-height="51.599976" target-width="175.19995" target-x="670.9" target-y="904"></path><path d="M 207.00 920.50 L 370.10 920.50 L 371.90 920.30 L 373.20 919.70 L 374.20 918.80 L 375.40 916.30 L 375.60 914.90 L 375.40 913.50 L 374.20 911.00 L 373.20 910.10 L 371.90 909.50 L 370.10 909.30 L 207.00 909.30 L 205.30 909.50 L 203.90 910.10 L 202.90 911.00 L 201.70 913.50 L 201.50 914.90 L 201.70 916.30 L 202.90 918.80 L 203.90 919.70 L 205.30 920.30 L 207.00 920.50 Z" fill="#d3dcf4" fill-rule="nonzero" node-id="54" stroke="none" target-height="11.200012" target-width="174.1" target-x="201.5" target-y="909.3"></path><g node-id="134"><path d="M 887.00 729.90 L 866.40 718.00 L 865.60 717.20 L 865.40 716.30 L 865.80 715.40 L 866.90 714.50 L 886.40 703.20 L 887.90 702.60 L 890.90 702.50 L 892.40 703.00 L 913.00 714.80 L 913.90 715.60 L 914.00 716.50 L 913.60 717.40 L 912.60 718.30 L 893.00 729.60 L 890.00 730.40 L 887.00 729.90 Z" fill="#c9cfe5" fill-opacity="0.3" fill-rule="nonzero" group-id="1" node-id="57" stroke="none" target-height="27.900024" target-width="48.599976" target-x="865.4" target-y="702.5"></path></g><path d="M 914.10 706.70 L 914.10 391.20 L 865.40 391.20 L 865.40 706.70 L 865.70 707.60 L 866.40 708.20 L 887.00 720.10 L 890.00 720.60 L 893.00 719.80 L 912.50 708.50 L 913.50 707.80 L 914.00 706.70 Z" fill="#dee1f0" fill-rule="nonzero" node-id="60" stroke="none" target-height="329.39996" target-width="48.69995" target-x="865.4" target-y="391.2"></path><g node-id="135"><path d="M 887.00 404.70 L 866.40 392.90 L 865.60 392.00 L 865.40 391.20 L 865.80 390.30 L 866.90 389.40 L 886.40 378.10 L 887.90 377.50 L 890.90 377.30 L 892.40 377.80 L 913.00 389.70 L 913.90 390.50 L 914.00 391.40 L 913.60 392.30 L 912.60 393.20 L 893.00 404.50 L 890.00 405.30 L 887.00 404.70 Z" fill="#fafbfd" fill-rule="nonzero" group-id="2" node-id="63" stroke="none" target-height="28" target-width="48.599976" target-x="865.4" target-y="377.3"></path></g><path d="M 217.90 510.80 L 197.30 498.90 L 196.50 498.10 L 196.30 497.20 L 196.70 496.30 L 197.80 495.40 L 217.40 484.10 L 220.40 483.30 L 223.40 483.90 L 244.00 495.70 L 244.90 496.60 L 245.00 497.40 L 244.70 498.30 L 243.60 499.30 L 224.00 510.50 L 221.00 511.40 L 217.90 510.80 Z" fill="#ebf0ff" fill-rule="nonzero" node-id="66" stroke="none" target-height="28.100006" target-width="48.699997" target-x="196.3" target-y="483.3"></path><path d="M 245.90 486.90 L 243.80 413.90 L 195.10 415.30 L 197.20 488.30 L 197.50 489.20 L 219.20 501.10 L 222.20 501.50 L 225.20 500.60 L 244.40 488.80 L 245.40 488.00 L 245.80 486.90 Z" fill="#5d83ff" fill-rule="nonzero" node-id="68" stroke="none" target-height="87.600006" target-width="50.799988" target-x="195.1" target-y="413.9"></path><path d="M 216.90 428.10 L 196.30 416.20 L 195.50 415.40 L 195.30 414.50 L 195.70 413.70 L 196.80 412.80 L 216.30 401.50 L 217.80 400.90 L 220.90 400.70 L 222.40 401.20 L 243.00 413.10 L 243.90 413.90 L 244.00 414.80 L 243.70 415.70 L 242.60 416.60 L 223.00 427.90 L 220.00 428.70 L 216.90 428.10 Z" fill="#ebf0ff" fill-rule="nonzero" node-id="70" stroke="none" target-height="28" target-width="48.699997" target-x="195.3" target-y="400.7"></path><path d="M 326.50 749.00 L 208.40 801.40 L 191.90 855.30 L 182.70 840.00 L 172.50 821.00 L 166.40 809.00 L 130.00 727.00 L 129.10 723.20 L 129.80 719.30 L 131.90 716.00 L 135.10 713.80 L 282.00 648.60 L 283.90 648.00 L 287.80 647.90 L 291.50 649.30 L 294.30 652.00 L 295.30 653.70 L 331.60 735.70 L 332.50 739.50 L 331.90 743.40 L 329.70 746.80 L 326.50 749.00 Z" fill="#3a3a77" fill-rule="nonzero" node-id="72" stroke="none" target-height="207.39996" target-width="203.4" target-x="129.1" target-y="647.9"></path><path d="M 213.90 744.20 L 213.60 746.60 L 213.00 748.80 L 211.90 750.80 L 210.40 752.60 L 208.60 754.10 L 206.50 755.20 L 204.20 755.90 L 201.90 756.10 L 199.60 755.90 L 197.40 755.20 L 195.40 754.10 L 193.50 752.60 L 192.00 750.70 L 190.90 748.70 L 190.30 746.50 L 190.00 744.20 L 190.30 741.90 L 191.00 739.60 L 192.10 737.50 L 193.60 735.70 L 195.40 734.30 L 197.40 733.20 L 199.60 732.50 L 202.00 732.30 L 206.20 733.10 L 209.70 735.10 L 212.30 738.20 L 213.10 740.10 L 213.90 744.20 Z" fill="#ebeaff" fill-rule="nonzero" node-id="74" stroke="none" target-height="23.799988" target-width="23.899994" target-x="190" target-y="732.3"></path><path d="M 262.20 722.30 L 261.40 726.40 L 259.40 729.90 L 256.30 732.50 L 254.40 733.40 L 250.30 734.20 L 246.10 733.40 L 242.60 731.40 L 240.00 728.30 L 238.60 724.40 L 238.40 722.30 L 238.60 720.10 L 239.10 718.10 L 241.20 714.60 L 244.30 712.00 L 246.10 711.10 L 250.30 710.30 L 254.40 711.10 L 258.00 713.10 L 260.60 716.20 L 261.40 718.10 L 262.20 722.30 Z" fill="#ebeaff" fill-rule="nonzero" node-id="76" stroke="none" target-height="23.900024" target-width="23.800018" target-x="238.4" target-y="710.3"></path><path d="M 636.80 855.60 L 636.60 855.30" fill="#3a3a77" fill-rule="nonzero" node-id="78" stroke="none" target-height="0.2999878" target-width="0.2000122" target-x="636.6" target-y="855.3"></path><path d="M 794.60 854.50 L 793.60 855.30" fill="#3a3a77" fill-rule="nonzero" node-id="80" stroke="none" target-height="0.7999878" target-width="1" target-x="793.6" target-y="854.5"></path><path d="M 636.60 855.30 L 545.30 730.60 L 544.10 728.40 L 543.30 726.10 L 542.90 723.70 L 543.00 721.20 L 543.70 718.80 L 544.70 716.60 L 546.20 714.70 L 548.10 713.00 L 809.40 521.80 L 811.50 520.60 L 813.80 519.70 L 816.20 519.40 L 818.70 519.50 L 821.10 520.10 L 823.30 521.20 L 825.30 522.70 L 826.90 524.50 L 965.50 713.90 L 967.50 717.90 L 967.90 722.20 L 966.90 726.30 L 965.90 728.20 L 962.80 731.50 L 794.00 855.10" fill="#3a3a77" fill-rule="nonzero" node-id="82" stroke="none" target-height="335.89996" target-width="425" target-x="542.9" target-y="519.4"></path><path d="M 830.50 645.60 L 877.00 709.30 L 877.60 711.30 L 877.60 712.90 L 876.70 715.20 L 875.20 716.70 L 873.30 717.70 L 870.70 717.80 L 868.40 716.90 L 866.80 715.40 L 820.30 651.70 L 819.80 649.70 L 819.80 648.20 L 820.70 645.80 L 822.10 644.30 L 824.10 643.40 L 826.60 643.20 L 828.10 643.60 L 829.80 644.70 Z" fill="#ebeaff" fill-rule="nonzero" node-id="84" stroke="none" target-height="74.599976" target-width="57.799988" target-x="819.8" target-y="643.2"></path><path d="M 776.50 681.40 L 823.10 745.10 L 823.60 747.10 L 823.60 748.60 L 822.70 751.00 L 821.30 752.50 L 819.30 753.50 L 816.80 753.60 L 814.50 752.70 L 812.90 751.30 L 766.30 687.60 L 765.80 685.60 L 765.80 684.00 L 766.70 681.70 L 768.20 680.10 L 770.10 679.20 L 772.70 679.00 L 774.10 679.40 L 775.80 680.60 Z" fill="#ebeaff" fill-rule="nonzero" node-id="86" stroke="none" target-height="74.599976" target-width="57.799988" target-x="765.8" target-y="679"></path><path d="M 724.40 719.00 L 771.00 782.70 L 771.60 784.70 L 771.60 786.30 L 770.60 788.60 L 769.20 790.20 L 767.20 791.10 L 764.70 791.30 L 762.40 790.40 L 760.80 788.90 L 714.30 725.10 L 713.70 723.10 L 713.70 721.60 L 714.60 719.20 L 716.10 717.70 L 718.00 716.80 L 720.60 716.60 L 722.00 717.00 L 723.70 718.10 Z" fill="#ebeaff" fill-rule="nonzero" node-id="88" stroke="none" target-height="74.70001" target-width="57.899963" target-x="713.7" target-y="716.6"></path><path d="M 795.30 597.10 L 791.50 634.70 L 791.60 636.20 L 793.10 638.70 L 795.70 640.20 L 797.10 640.40 L 798.70 640.10 L 801.10 638.70 L 802.50 636.20 L 802.80 634.70 L 806.60 597.10 L 806.40 595.60 L 805.80 594.20 L 804.90 593.10 L 802.30 591.60 L 800.90 591.40 L 799.30 591.60 L 796.90 593.10 L 795.50 595.50 L 795.30 597.10 Z" fill="#fe9f39" fill-rule="nonzero" node-id="90" stroke="none" target-height="49" target-width="15.099976" target-x="791.5" target-y="591.4"></path><path d="M 778.70 618.20 L 796.80 622.20 L 815.10 625.70 L 816.80 625.80 L 818.30 625.50 L 819.60 624.80 L 820.60 623.80 L 821.90 621.40 L 822.20 619.90 L 821.60 617.30 L 820.90 616.30 L 819.70 615.40 L 818.10 614.80 L 779.90 607.10 L 778.50 607.40 L 776.20 609.00 L 775.40 610.10 L 774.70 612.90 L 775.20 615.50 L 775.90 616.60 L 777.10 617.50 L 778.70 618.20 Z" fill="#fe9f39" fill-rule="nonzero" node-id="92" stroke="none" target-height="18.700012" target-width="47.5" target-x="774.7" target-y="607.1"></path><path d="M 742.10 631.30 L 737.60 641.30 L 734.00 648.50 L 736.00 647.20 L 733.40 648.50 L 732.20 650.60 L 732.00 653.10 L 732.70 654.90 L 733.80 656.60 L 736.10 658.00 L 737.50 658.30 L 747.60 659.20 L 777.70 663.30 L 779.10 663.20 L 780.50 662.60 L 781.60 661.60 L 783.10 659.00 L 783.30 657.60 L 783.10 656.00 L 782.50 654.70 L 781.60 653.70 L 779.20 652.30 L 760.30 649.50 L 737.50 647.00 L 739.00 658.10 L 740.80 657.30 L 742.40 656.10 L 744.70 652.70 L 752.30 635.20 L 752.40 633.80 L 751.40 631.10 L 750.50 630.00 L 748.00 628.60 L 745.40 628.40 L 744.10 628.90 L 743.00 629.80 L 742.00 631.20 Z" fill="#fe9f39" fill-rule="nonzero" node-id="94" stroke="none" target-height="34.899963" target-width="51.299988" target-x="732" target-y="628.4"></path><path d="M 294.80 289.90 L 705.80 289.90 L 708.70 290.10 L 713.90 291.50 L 716.30 292.70 L 719.20 294.80 L 721.60 297.30 L 723.70 300.20 L 724.90 302.50 L 726.30 307.70 L 726.50 310.60 L 726.50 790.60 L 726.30 793.50 L 724.90 798.70 L 723.70 801.10 L 721.60 804.00 L 719.20 806.40 L 716.30 808.50 L 713.90 809.70 L 708.70 811.10 L 705.80 811.30 L 294.80 811.30 L 292.00 811.10 L 286.80 809.70 L 284.40 808.50 L 281.50 806.40 L 279.00 804.00 L 276.90 801.10 L 275.70 798.70 L 274.30 793.50 L 274.10 790.60 L 274.10 310.60 L 274.30 307.70 L 275.70 302.50 L 276.90 300.20 L 279.00 297.30 L 281.50 294.80 L 284.40 292.70 L 286.80 291.50 L 292.00 290.10 L 294.80 289.90 Z" fill="#cedfff" fill-rule="nonzero" node-id="96" stroke="none" target-height="521.4" target-width="452.4" target-x="274.1" target-y="289.9"></path><path d="M 705.80 820.40 L 294.80 820.40 L 290.80 820.10 L 286.90 819.30 L 283.30 818.00 L 279.80 816.30 L 276.70 814.20 L 273.80 811.60 L 271.30 808.80 L 269.20 805.70 L 267.50 802.20 L 266.20 798.60 L 265.40 794.70 L 265.10 790.70 L 265.10 310.70 L 265.40 306.60 L 266.20 302.70 L 267.50 299.10 L 269.20 295.60 L 271.30 292.50 L 273.80 289.70 L 276.70 287.10 L 279.80 285.00 L 283.30 283.30 L 286.90 282.00 L 290.80 281.20 L 294.80 280.90 L 705.80 280.90 L 709.90 281.20 L 713.70 282.00 L 717.40 283.30 L 720.80 285.00 L 724.00 287.10 L 726.80 289.70 L 729.30 292.50 L 731.50 295.60 L 733.20 299.10 L 734.50 302.70 L 735.30 306.60 L 735.50 310.70 L 735.50 790.70 L 735.30 794.70 L 734.50 798.60 L 733.20 802.20 L 731.50 805.70 L 729.30 808.80 L 726.80 811.60 L 724.00 814.20 L 720.80 816.30 L 717.40 818.00 L 713.70 819.30 L 709.90 820.10 L 705.80 820.40 Z M 294.80 298.90 L 290.70 299.60 L 287.30 301.70 L 284.70 304.70 L 283.90 306.50 L 283.10 310.60 L 283.10 790.60 L 283.90 794.70 L 285.90 798.20 L 288.90 800.70 L 290.70 801.60 L 294.80 802.30 L 705.80 802.30 L 709.90 801.60 L 711.70 800.70 L 714.80 798.20 L 716.80 794.70 L 717.50 790.60 L 717.50 310.60 L 716.80 306.50 L 715.90 304.70 L 713.40 301.70 L 709.90 299.60 L 705.80 298.90 Z" fill="#5eadef" fill-rule="nonzero" node-id="98" stroke="none" target-height="539.5" target-width="470.4" target-x="265.1" target-y="280.9"></path><path d="M 489.40 753.00 L 329.40 753.00 L 326.10 752.70 L 323.10 751.80 L 320.30 750.30 L 317.80 748.20 L 315.70 745.70 L 314.20 742.90 L 313.30 739.90 L 313.00 736.70 L 313.00 355.20 L 313.30 352.20 L 314.00 349.50 L 315.20 346.90 L 316.80 344.60 L 318.80 342.70 L 321.10 341.10 L 323.60 339.90 L 326.30 339.10 L 329.30 338.90 L 673.80 338.90 L 676.80 339.10 L 679.50 339.90 L 682.00 341.10 L 684.30 342.70 L 686.30 344.60 L 687.90 346.90 L 689.10 349.50 L 689.90 352.20 L 690.10 355.20 L 690.10 601.20 L 687.70 609.90 L 684.70 618.90 L 680.90 628.40 L 676.60 637.70 L 671.50 647.10 L 665.70 656.70 L 661.10 663.60 L 650.40 677.40 L 644.30 684.20 L 638.10 690.70 L 631.30 697.10 L 624.10 703.30 L 616.30 709.30 L 608.40 714.90 L 600.00 720.30 L 591.00 725.40 L 581.40 730.30 L 571.80 734.60 L 561.50 738.60 L 550.70 742.20 L 539.20 745.40 L 527.80 748.00 L 515.70 750.20 L 502.90 751.90 L 489.40 753.00 Z" fill="#ffffff" fill-rule="nonzero" node-id="100" stroke="none" target-height="414.1" target-width="377.09998" target-x="313" target-y="338.9"></path><path d="M 427.90 247.90 L 572.20 247.90 L 574.90 248.10 L 577.50 248.90 L 579.80 250.20 L 582.00 251.90 L 583.70 254.00 L 585.00 256.40 L 585.70 259.00 L 586.00 261.70 L 586.00 276.10 L 585.80 278.60 L 585.10 280.90 L 584.10 283.10 L 582.70 285.00 L 579.20 288.00 L 577.00 289.00 L 574.70 289.70 L 572.20 289.90 L 427.90 289.90 L 425.30 289.70 L 423.00 289.00 L 420.90 288.00 L 417.30 285.00 L 415.90 283.10 L 414.90 280.90 L 414.30 278.60 L 414.10 276.10 L 414.10 261.70 L 414.30 259.00 L 415.10 256.40 L 416.40 254.00 L 418.10 251.90 L 420.20 250.20 L 422.60 248.90 L 425.10 248.10 L 427.90 247.90 Z" fill="#3a3a77" fill-rule="nonzero" node-id="102" stroke="none" target-height="42" target-width="171.9" target-x="414.1" target-y="247.9"></path><path d="M 811.80 214.70 L 788.00 190.20 L 751.00 247.90 Z" fill="#d3dcf4" fill-rule="nonzero" node-id="104" stroke="none" target-height="57.699997" target-width="60.799988" target-x="751" target-y="190.2"></path><path d="M 847.60 251.70 L 776.00 262.30 L 844.40 287.40 Z" fill="#d3dcf4" fill-rule="nonzero" node-id="106" stroke="none" target-height="35.699997" target-width="71.599976" target-x="776" target-y="251.7"></path><path d="M 407.80 420.40 L 407.50 423.50 L 406.70 426.40 L 405.50 429.00 L 403.80 431.40 L 401.80 433.40 L 399.40 435.10 L 396.70 436.30 L 393.90 437.10 L 390.80 437.40 L 387.70 437.10 L 384.90 436.30 L 382.30 435.00 L 379.90 433.40 L 377.90 431.30 L 376.20 429.00 L 374.90 426.30 L 374.20 423.50 L 373.90 420.40 L 374.20 417.30 L 375.00 414.50 L 376.20 411.90 L 377.90 409.50 L 379.90 407.50 L 382.30 405.80 L 384.90 404.50 L 387.70 403.80 L 390.80 403.50 L 393.90 403.80 L 396.80 404.50 L 399.40 405.80 L 401.80 407.50 L 403.80 409.50 L 405.50 411.90 L 406.70 414.50 L 407.50 417.30 L 407.80 420.40 Z" fill="#fe9f39" fill-rule="nonzero" node-id="108" stroke="none" target-height="33.899994" target-width="33.899994" target-x="373.9" target-y="403.5"></path><path d="M 437.00 409.10 L 612.70 409.10 L 614.90 409.30 L 618.90 410.80 L 622.10 413.50 L 624.20 417.10 L 624.90 421.40 L 624.20 425.60 L 622.00 429.30 L 618.90 431.90 L 614.90 433.40 L 612.70 433.60 L 437.00 433.60 L 434.80 433.40 L 430.80 431.90 L 427.70 429.30 L 425.50 425.60 L 424.80 421.40 L 425.50 417.10 L 427.60 413.50 L 430.80 410.80 L 432.70 409.90 L 437.00 409.10 Z" fill="#5d83ff" fill-rule="nonzero" node-id="110" stroke="none" target-height="24.5" target-width="200.10004" target-x="424.8" target-y="409.1"></path><path d="M 407.80 497.60 L 407.50 500.70 L 406.70 503.50 L 405.50 506.20 L 403.80 508.50 L 401.80 510.60 L 399.40 512.20 L 396.80 513.50 L 393.90 514.30 L 390.80 514.60 L 387.70 514.30 L 384.90 513.50 L 382.30 512.20 L 379.90 510.60 L 377.90 508.50 L 376.20 506.20 L 375.00 503.50 L 374.20 500.70 L 373.90 497.60 L 374.20 494.50 L 375.00 491.70 L 376.20 489.10 L 377.90 486.70 L 379.90 484.70 L 382.30 483.00 L 384.90 481.70 L 387.70 481.00 L 390.80 480.70 L 393.90 481.00 L 396.80 481.70 L 399.40 483.00 L 401.80 484.70 L 403.80 486.70 L 405.50 489.10 L 406.70 491.70 L 407.50 494.50 L 407.80 497.60 Z" fill="#fe9f39" fill-rule="nonzero" node-id="112" stroke="none" target-height="33.899963" target-width="33.899994" target-x="373.9" target-y="480.7"></path><path d="M 437.00 486.30 L 570.60 486.30 L 573.00 486.50 L 575.30 487.20 L 577.40 488.40 L 579.30 489.90 L 580.80 491.80 L 581.90 493.90 L 582.60 496.10 L 582.80 498.60 L 582.60 501.00 L 581.90 503.20 L 580.80 505.30 L 579.30 507.20 L 577.40 508.70 L 575.30 509.90 L 573.00 510.60 L 570.60 510.80 L 437.00 510.80 L 434.80 510.60 L 430.80 509.10 L 427.60 506.40 L 425.50 502.80 L 424.80 498.60 L 425.50 494.30 L 427.60 490.70 L 430.80 488.00 L 432.70 487.10 L 437.00 486.30 Z" fill="#cedfff" fill-rule="nonzero" node-id="114" stroke="none" target-height="24.5" target-width="158" target-x="424.8" target-y="486.3"></path><path d="M 407.80 572.90 L 407.60 575.20 L 406.50 579.40 L 404.90 582.30 L 402.90 584.90 L 399.40 587.60 L 397.30 588.60 L 395.20 589.30 L 390.80 589.90 L 387.50 589.60 L 384.40 588.60 L 380.60 586.40 L 378.90 584.90 L 377.40 583.20 L 375.20 579.40 L 374.20 576.30 L 373.90 573.00 L 374.40 568.60 L 375.20 566.50 L 376.20 564.40 L 378.90 560.90 L 381.40 558.90 L 384.30 557.30 L 388.60 556.20 L 390.80 556.00 L 393.90 556.30 L 396.70 557.10 L 399.40 558.30 L 401.70 560.00 L 403.80 562.00 L 405.40 564.40 L 406.70 567.00 L 407.50 569.80 L 407.80 572.90 Z" fill="#fe9f39" fill-rule="nonzero" node-id="116" stroke="none" target-height="33.900024" target-width="33.899994" target-x="373.9" target-y="556"></path><path d="M 437.00 561.60 L 612.70 561.60 L 614.90 561.80 L 618.90 563.30 L 622.10 566.00 L 624.20 569.60 L 624.90 573.90 L 624.20 578.10 L 623.30 580.00 L 620.60 583.20 L 617.00 585.30 L 612.70 586.10 L 437.00 586.10 L 434.80 585.90 L 430.80 584.40 L 427.60 581.70 L 425.50 578.10 L 424.80 573.90 L 425.50 569.60 L 426.40 567.70 L 429.10 564.50 L 432.70 562.40 L 437.00 561.60 Z" fill="#cedfff" fill-rule="nonzero" node-id="118" stroke="none" target-height="24.5" target-width="200.10004" target-x="424.8" target-y="561.6"></path><path d="M 407.80 648.20 L 407.50 651.30 L 406.70 654.10 L 405.50 656.80 L 403.80 659.10 L 401.80 661.20 L 399.40 662.80 L 396.80 664.10 L 393.90 664.90 L 390.80 665.20 L 387.70 664.90 L 384.90 664.10 L 382.30 662.80 L 379.90 661.20 L 377.90 659.10 L 376.20 656.80 L 375.00 654.10 L 374.20 651.30 L 373.90 648.20 L 374.20 645.10 L 375.00 642.30 L 376.20 639.70 L 377.90 637.30 L 379.90 635.30 L 382.30 633.60 L 384.90 632.30 L 387.70 631.60 L 390.80 631.30 L 393.90 631.60 L 396.80 632.30 L 399.40 633.60 L 401.80 635.30 L 403.80 637.30 L 405.50 639.70 L 406.70 642.30 L 407.50 645.10 L 407.80 648.20 Z" fill="#fe9f39" fill-rule="nonzero" node-id="120" stroke="none" target-height="33.900024" target-width="33.899994" target-x="373.9" target-y="631.3"></path><path d="M 437.00 636.90 L 570.60 636.90 L 573.00 637.10 L 575.30 637.80 L 577.40 639.00 L 579.30 640.50 L 580.80 642.40 L 581.90 644.50 L 582.60 646.70 L 582.80 649.20 L 582.60 651.60 L 581.90 653.80 L 580.80 655.90 L 579.30 657.80 L 577.40 659.30 L 575.30 660.50 L 573.00 661.20 L 570.60 661.40 L 437.00 661.40 L 434.80 661.20 L 430.80 659.70 L 427.60 657.00 L 425.50 653.40 L 424.80 649.20 L 425.50 644.90 L 427.60 641.30 L 430.80 638.60 L 432.70 637.70 L 437.00 636.90 Z" fill="#cedfff" fill-rule="nonzero" node-id="122" stroke="none" target-height="24.5" target-width="158" target-x="424.8" target-y="636.9"></path><path d="M 478.70 753.00 L 486.60 748.80 L 492.40 745.10 L 498.70 740.90 L 505.90 735.30 L 515.50 726.70 L 520.40 721.50 L 525.10 716.10 L 529.50 710.20 L 533.60 703.80 L 536.40 698.80 L 541.00 688.00 L 542.90 682.10 L 544.30 676.10 L 545.30 669.90 L 545.80 663.30 L 545.80 656.40 L 558.40 657.40 L 570.20 657.90 L 581.20 657.80 L 591.60 657.30 L 601.40 656.30 L 610.60 654.90 L 620.20 652.80 L 629.10 650.30 L 637.30 647.40 L 645.10 644.00 L 652.20 640.30 L 658.90 636.10 L 664.40 632.00 L 669.60 627.70 L 674.40 623.00 L 678.80 618.10 L 683.00 612.80 L 686.70 607.10 L 690.20 601.20 L 689.30 605.70 L 687.40 612.40 L 684.80 619.60 L 681.20 628.20 L 676.90 637.10 L 671.70 646.90 L 665.90 656.70 L 659.10 666.70 L 654.30 673.30 L 643.70 686.10 L 637.90 692.20 L 631.90 698.00 L 614.80 712.00 L 598.70 724.10 L 586.20 732.10 L 579.90 735.60 L 573.30 738.80 L 566.50 741.70 L 559.50 744.20 L 551.90 746.40 L 543.50 748.30 L 535.10 749.80 L 525.70 751.00 L 515.10 752.00 L 492.30 753.00 L 478.70 753.00 Z" fill="#c6d3f4" fill-rule="nonzero" node-id="124" stroke="none" target-height="151.79999" target-width="211.5" target-x="478.7" target-y="601.2"></path><path d="M 584.50 342.00 L 585.40 341.60 L 585.90 340.70 L 586.50 334.60 L 586.10 333.50 L 585.00 333.00 L 584.00 333.40 L 583.50 334.50 L 583.00 340.90 L 583.70 341.80 L 584.20 342.00 Z" fill="#88d493" fill-rule="nonzero" node-id="126" stroke="none" target-height="9" target-width="3.5" target-x="583" target-y="333"></path><path d="M 584.30 324.10 L 585.50 323.50 L 585.80 322.40 L 584.60 316.40 L 582.90 310.60 L 582.60 310.00 L 581.60 309.50 L 580.50 309.90 L 580.00 310.90 L 580.10 311.50 L 581.70 317.10 L 582.80 322.90 L 583.30 323.80 L 584.30 324.10 Z M 576.80 301.60 L 578.00 301.00 L 578.30 300.00 L 578.10 299.40 L 575.20 294.10 L 571.30 288.40 L 570.50 288.30 L 569.70 288.50 L 569.20 289.20 L 569.10 289.90 L 569.40 290.70 L 575.50 300.80 L 576.00 301.30 L 576.80 301.60 Z M 563.30 281.90 L 564.30 281.50 L 564.60 281.10 L 564.70 279.90 L 564.40 279.40 L 560.40 275.00 L 555.50 270.40 L 554.40 270.40 L 553.90 270.80 L 553.60 271.30 L 553.60 272.40 L 562.20 281.40 L 563.30 281.90 Z M 545.90 265.50 L 546.60 265.30 L 547.40 264.40 L 547.20 263.30 L 546.90 262.80 L 542.00 259.20 L 536.30 255.50 L 535.50 255.60 L 534.90 256.20 L 534.70 256.90 L 534.80 257.70 L 535.40 258.30 L 545.00 265.20 L 545.90 265.50 Z M 525.90 252.40 L 527.20 251.70 L 527.40 250.70 L 527.00 249.90 L 521.30 246.80 L 515.30 243.90 L 514.30 244.30 L 513.90 244.80 L 513.90 245.90 L 514.20 246.40 L 525.90 252.40 Z M 504.30 242.10 L 505.20 241.90 L 505.70 241.20 L 505.70 240.00 L 504.90 239.20 L 493.00 234.90 L 492.00 235.40 L 491.70 235.90 L 491.60 236.50 L 492.10 237.50 L 504.40 242.10 Z M 481.70 234.30 L 483.00 233.60 L 483.20 232.50 L 482.60 231.60 L 476.40 229.80 L 469.90 228.40 L 469.00 229.00 L 468.70 229.50 L 468.70 230.10 L 469.30 231.10 L 481.80 234.30 Z M 290.50 230.10 L 292.30 230.00 L 293.10 229.20 L 293.10 228.00 L 292.30 227.20 L 279.90 226.70 L 278.80 227.10 L 278.30 228.10 L 278.30 228.70 L 279.10 229.50 L 290.50 230.10 Z M 303.70 229.60 L 316.30 228.50 L 317.00 227.60 L 316.90 226.40 L 316.10 225.70 L 315.50 225.60 L 303.00 226.80 L 302.20 227.60 L 302.30 228.80 L 303.10 229.50 L 303.70 229.60 Z M 458.50 228.80 L 459.10 228.80 L 460.00 228.10 L 460.10 226.90 L 459.30 226.00 L 446.90 223.80 L 446.30 223.90 L 445.40 224.50 L 445.20 225.70 L 445.90 226.60 L 458.20 228.80 Z M 267.90 228.10 L 268.50 228.10 L 269.40 227.30 L 269.50 226.20 L 268.80 225.30 L 256.30 222.00 L 255.20 222.50 L 254.80 223.60 L 255.30 224.70 L 255.90 225.00 L 261.70 226.70 L 267.90 228.10 Z M 327.50 227.40 L 339.50 226.10 L 340.50 225.60 L 340.90 224.50 L 340.30 223.50 L 339.20 223.10 L 327.30 224.40 L 326.30 224.90 L 325.90 226.00 L 326.40 227.00 L 327.50 227.40 Z M 434.80 225.40 L 435.40 225.30 L 436.30 224.50 L 436.30 223.40 L 435.60 222.50 L 423.00 221.30 L 422.40 221.40 L 421.60 222.10 L 421.50 223.30 L 422.20 224.10 L 434.60 225.40 Z M 351.30 225.10 L 363.30 224.30 L 364.30 223.80 L 364.70 222.70 L 364.20 221.60 L 363.10 221.30 L 350.50 222.20 L 349.80 223.10 L 349.80 224.20 L 350.60 225.00 L 351.20 225.10 Z M 375.10 223.70 L 387.10 223.30 L 388.20 222.90 L 388.50 222.40 L 388.50 221.20 L 388.10 220.70 L 387.10 220.30 L 375.10 220.70 L 374.00 221.10 L 373.60 222.20 L 374.10 223.20 L 375.10 223.70 Z M 411.00 223.70 L 411.60 223.50 L 412.40 222.80 L 412.40 221.60 L 411.60 220.80 L 399.10 220.30 L 398.50 220.50 L 397.70 221.30 L 397.70 222.40 L 398.50 223.20 L 411.00 223.70 Z M 245.40 220.30 L 246.30 220.00 L 246.90 219.20 L 246.80 218.20 L 246.10 217.50 L 235.60 210.80 L 234.80 210.90 L 234.10 211.40 L 233.80 212.20 L 234.00 212.90 L 234.50 213.60 L 239.50 217.00 L 244.70 220.10 L 245.40 220.30 Z M 226.40 206.00 L 227.00 205.90 L 227.80 205.10 L 227.80 203.90 L 227.50 203.40 L 219.70 194.60 L 219.20 194.30 L 218.10 194.20 L 217.20 194.90 L 217.10 196.00 L 217.30 196.50 L 225.30 205.60 L 226.40 205.90 Z M 211.50 187.30 L 212.30 187.10 L 212.80 186.50 L 213.00 185.70 L 212.80 185.00 L 206.80 174.80 L 205.90 174.00 L 204.70 174.10 L 204.30 174.50 L 203.90 175.60 L 204.10 176.20 L 210.20 186.60 L 211.50 187.30 Z" fill="#88d493" fill-rule="nonzero" node-id="128" stroke="none" target-height="150.1" target-width="381.9" target-x="203.9" target-y="174"></path><path d="M 200.20 166.10 L 201.30 165.70 L 201.70 164.60 L 201.60 164.00 L 199.30 158.50 L 198.80 157.90 L 198.10 157.50 L 197.30 157.60 L 196.70 158.10 L 196.40 158.90 L 196.50 159.70 L 198.90 165.20 L 199.40 165.90 L 200.20 166.10 Z" fill="#88d493" fill-rule="nonzero" node-id="130" stroke="none" target-height="8.600006" target-width="5.300003" target-x="196.4" target-y="157.5"></path><path d="M 126.10 46.60 L 132.40 188.80 L 179.40 139.50 L 139.70 68.20 L 127.50 47.00 L 125.50 44.20 L 127.50 42.50 L 129.10 45.60 L 141.60 66.50 L 184.70 135.80 L 250.60 118.80 L 129.40 44.10 Z" fill="#88d493" fill-rule="nonzero" node-id="132" stroke="none" target-height="146.3" target-width="125.100006" target-x="125.5" target-y="42.5"></path></svg>