<?xml version="1.0" standalone="no"?><!DOCTYPE svg PUBLIC "-//W3C//DTD SVG 1.1//EN" "http://www.w3.org/Graphics/SVG/1.1/DTD/svg11.dtd"><svg height="1024" node-id="1" sillyvg="true" template-height="1024" template-width="1024" version="1.1" viewBox="0 0 1024 1024" width="1024" xmlns="http://www.w3.org/2000/svg" xmlns:xlink="http://www.w3.org/1999/xlink"><defs node-id="109"></defs><path d="M 489.70 220.40 L 479.60 224.70 L 469.60 229.60 L 459.70 235.10 L 449.90 240.90 L 440.20 247.20 L 430.70 254.00 L 412.00 268.30 L 403.00 275.90 L 389.70 287.70 L 377.00 299.70 L 364.70 311.90 L 304.20 376.30 L 284.70 396.60 L 266.10 415.00 L 256.60 423.70 L 236.20 441.50 L 212.20 460.80 L 182.90 482.90 L 144.30 511.10 L 125.10 525.70 L 112.70 535.50 L 101.10 545.30 L 90.50 554.80 L 82.70 562.30 L 75.40 569.90 L 62.40 585.00 L 56.40 593.00 L 51.00 601.10 L 46.10 609.40 L 41.80 617.90 L 37.30 627.90 L 33.40 637.80 L 30.00 647.60 L 27.20 657.30 L 24.80 667.00 L 22.90 676.90 L 21.40 686.70 L 20.40 696.30 L 19.90 705.80 L 19.90 715.30 L 20.30 724.80 L 21.20 734.10 L 22.50 743.20 L 24.30 752.20 L 26.40 761.00 L 29.10 769.70 L 32.10 778.20 L 35.60 786.40 L 39.50 794.50 L 43.80 802.30 L 48.50 809.90 L 53.60 817.30 L 59.00 824.30 L 64.90 831.10 L 71.20 837.60 L 77.80 843.70 L 84.80 849.50 L 92.20 855.00 L 100.00 860.10 L 108.20 865.00 L 116.50 869.30 L 125.30 873.20 L 134.40 876.80 L 144.00 879.90 L 154.00 882.70 L 163.90 884.90 L 174.30 886.60 L 185.10 887.90 L 196.30 888.70 L 208.00 889.00 L 835.80 889.00 L 844.60 888.60 L 859.40 886.40 L 869.10 884.20 L 882.80 880.00 L 898.30 873.80 L 906.20 869.80 L 920.70 861.20 L 933.10 852.10 L 945.50 841.30 L 951.50 835.20 L 957.50 828.50 L 963.50 821.10 L 969.90 812.50 L 975.80 803.70 L 981.30 794.80 L 986.40 785.60 L 991.10 776.30 L 995.40 766.70 L 1000.00 755.10 L 1004.20 743.20 L 1007.80 731.10 L 1010.80 718.70 L 1013.30 706.10 L 1015.30 693.50 L 1016.80 680.70 L 1017.80 667.70 L 1018.30 654.60 L 1018.30 641.20 L 1017.90 628.00 L 1016.90 614.70 L 1015.50 601.30 L 1013.70 587.70 L 1011.30 574.10 L 1008.60 560.60 L 1005.40 547.20 L 1001.80 533.70 L 997.70 520.20 L 993.20 506.80 L 987.10 490.10 L 980.40 473.70 L 973.00 457.40 L 965.00 441.20 L 956.50 425.30 L 947.50 409.70 L 937.80 394.40 L 927.70 379.40 L 919.20 367.60 L 910.40 356.10 L 901.30 344.90 L 891.80 334.00 L 882.10 323.30 L 872.10 312.90 L 861.80 302.90 L 851.20 293.30 L 840.40 284.00 L 829.30 275.00 L 817.90 266.40 L 806.30 258.30 L 794.50 250.60 L 782.40 243.40 L 770.20 236.50 L 757.60 230.20 L 744.90 224.30 L 732.10 219.00 L 719.00 214.10 L 705.70 209.80 L 692.30 206.10 L 678.70 202.90 L 664.90 200.30 L 651.00 198.30 L 636.80 196.90 L 625.10 196.20 L 613.20 196.00 L 601.20 196.20 L 589.10 196.90 L 576.90 198.10 L 564.50 199.80 L 552.40 201.80 L 540.10 204.50 L 527.70 207.60 L 515.20 211.30 L 502.50 215.60 L 489.70 220.40" fill="#ecf5ff" fill-rule="evenodd" node-id="111" stroke="none" target-height="693" target-width="998.39996" target-x="19.9" target-y="196"></path><path d="M 124.40 609.40 L 129.70 601.60 L 134.60 593.50 L 138.90 585.20 L 142.70 576.60 L 146.00 567.90 L 148.80 558.90 L 150.90 549.20 L 151.10 542.60 L 150.80 539.30 L 150.10 536.50 L 148.90 533.80 L 146.50 530.80 L 144.90 529.80 L 142.60 529.00 L 140.20 528.90 L 135.30 530.00 L 130.60 532.10 L 133.50 525.20 L 136.10 518.10 L 137.40 513.30 L 138.30 508.50 L 138.80 503.70 L 138.80 500.10 L 137.60 493.10 L 136.40 489.60 L 133.90 484.90 L 130.10 481.20 L 127.80 479.80 L 125.30 479.10 L 122.60 479.00 L 120.00 479.60 L 118.30 480.40 L 115.60 482.90 L 114.10 485.30 L 112.90 488.00 L 111.20 493.70 L 107.00 476.90 L 105.20 471.30 L 100.70 460.90 L 97.90 456.00 L 94.60 451.50 L 90.80 447.30 L 87.80 444.70 L 82.10 441.20 L 77.10 439.60 L 74.10 439.30 L 71.10 439.40 L 68.20 440.00 L 65.40 441.00 L 62.80 442.40 L 60.30 444.20 L 58.00 446.70 L 56.10 449.40 L 54.70 452.40 L 52.90 458.90 L 52.40 462.20 L 52.10 468.00 L 52.50 473.80 L 53.40 479.50 L 56.20 489.70 L 58.10 494.70 L 64.40 509.30 L 59.20 505.70 L 56.40 504.20 L 53.60 503.30 L 49.80 503.20 L 47.80 503.80 L 46.20 504.60 L 43.70 507.20 L 42.40 509.70 L 41.60 512.50 L 41.20 515.40 L 41.40 518.30 L 42.20 522.10 L 43.40 525.80 L 45.20 529.30 L 49.90 535.70 L 52.60 538.50 L 57.10 542.30 L 62.00 545.70 L 72.20 551.60 L 65.40 553.40 L 63.30 554.40 L 61.50 555.80 L 60.00 557.50 L 58.70 560.70 L 58.50 562.40 L 58.70 565.10 L 59.40 567.60 L 60.90 570.80 L 62.90 573.70 L 65.30 576.30 L 70.70 581.60 L 76.50 586.30 L 82.70 590.60 L 95.90 598.00 L 102.90 601.30 L 124.20 609.80 Z" fill="#59d1ba" fill-rule="nonzero" node-id="113" stroke="none" target-height="170.5" target-width="109.90001" target-x="41.2" target-y="439.3"></path><g node-id="354"><g node-id="375"><path d="M 66.40 441.70 L 68.60 440.90 L 125.90 611.20 L 123.80 612.00 Z" fill="#ffffff" fill-opacity="0.3" fill-rule="nonzero" group-id="1,22" node-id="119" stroke="none" target-height="171.1" target-width="59.5" target-x="66.4" target-y="440.9"></path></g></g><path d="M 122.40 524.20 L 122.20 525.90 L 121.50 527.40 L 120.50 528.70 L 119.20 529.70 L 117.80 530.30 L 116.00 530.60 L 114.30 530.30 L 112.80 529.70 L 111.50 528.70 L 110.50 527.40 L 109.90 525.90 L 109.70 524.20 L 109.90 522.50 L 110.50 521.00 L 111.50 519.70 L 112.80 518.70 L 114.30 518.10 L 116.00 517.80 L 117.70 518.00 L 119.20 518.60 L 120.50 519.70 L 121.60 521.00 L 122.20 522.50 L 122.40 524.20 Z" fill="#ffffff" fill-rule="nonzero" node-id="123" stroke="none" target-height="12.799988" target-width="12.700005" target-x="109.7" target-y="517.8"></path><path d="M 79.30 500.30 L 79.10 502.10 L 78.30 503.80 L 77.00 505.20 L 75.40 506.20 L 73.50 506.60 L 71.70 506.50 L 70.00 505.90 L 68.40 504.80 L 67.30 503.20 L 66.70 501.50 L 66.60 499.60 L 67.10 497.80 L 68.10 496.20 L 69.40 494.90 L 71.10 494.20 L 73.00 493.90 L 74.70 494.10 L 76.20 494.80 L 77.50 495.80 L 78.50 497.10 L 79.10 498.50 L 79.30 500.30 Z" fill="#ffffff" fill-rule="nonzero" node-id="125" stroke="none" target-height="12.700012" target-width="12.700005" target-x="66.6" target-y="493.9"></path><path d="M 96.90 570.40 L 96.60 572.20 L 96.00 573.70 L 95.00 575.00 L 93.70 576.00 L 92.20 576.60 L 90.50 576.80 L 88.80 576.60 L 87.30 576.00 L 86.00 575.00 L 85.00 573.70 L 84.40 572.20 L 84.10 570.40 L 84.40 568.70 L 85.00 567.20 L 86.00 565.90 L 87.30 564.90 L 88.80 564.30 L 90.50 564.10 L 92.20 564.30 L 93.70 564.90 L 95.00 565.90 L 96.00 567.20 L 96.60 568.70 L 96.90 570.40 Z" fill="#ffffff" fill-rule="nonzero" node-id="127" stroke="none" target-height="12.700012" target-width="12.800003" target-x="84.1" target-y="564.1"></path><g node-id="355"><g node-id="376"><path d="M 85.80 494.60 L 99.80 462.30 L 101.90 463.30 L 87.80 495.50 Z" fill="#ffffff" fill-opacity="0.3" fill-rule="nonzero" group-id="2,23" node-id="133" stroke="none" target-height="33.200012" target-width="16.099998" target-x="85.8" target-y="462.3"></path></g></g><g node-id="356"><g node-id="377"><path d="M 41.30 513.50 L 42.30 511.50 L 100.00 539.00 L 99.10 541.10 Z" fill="#ffffff" fill-opacity="0.3" fill-rule="nonzero" group-id="3,24" node-id="141" stroke="none" target-height="29.599976" target-width="58.7" target-x="41.3" target-y="511.5"></path></g></g><g node-id="357"><g node-id="378"><path d="M 113.40 575.00 L 143.80 531.50 L 145.70 532.80 L 115.20 576.30 Z" fill="#ffffff" fill-opacity="0.3" fill-rule="nonzero" group-id="4,25" node-id="149" stroke="none" target-height="44.799988" target-width="32.299995" target-x="113.4" target-y="531.5"></path></g></g><path d="M 142.30 598.30 L 139.10 590.70 L 136.40 582.90 L 134.20 574.90 L 132.60 566.80 L 131.40 558.60 L 130.80 550.30 L 131.10 541.80 L 131.50 539.00 L 133.30 533.60 L 134.60 531.50 L 136.30 529.50 L 139.20 527.70 L 141.00 527.20 L 143.30 527.20 L 145.60 527.70 L 149.90 529.80 L 153.90 532.80 L 152.60 526.30 L 151.80 519.80 L 151.70 515.50 L 151.90 511.30 L 153.40 504.20 L 156.00 498.70 L 157.90 496.10 L 160.10 493.80 L 162.70 492.00 L 165.70 490.70 L 168.20 490.20 L 170.70 490.20 L 173.20 490.80 L 175.50 492.00 L 176.90 493.10 L 178.80 495.80 L 179.70 498.20 L 180.20 500.70 L 180.60 505.80 L 188.30 493.00 L 191.20 488.90 L 197.70 481.40 L 201.40 478.00 L 205.50 475.10 L 210.10 472.60 L 213.50 471.10 L 217.10 470.10 L 220.80 469.60 L 224.50 469.60 L 227.40 470.10 L 232.70 472.20 L 237.30 475.60 L 239.20 477.70 L 240.90 480.40 L 242.00 483.10 L 242.70 485.90 L 242.90 491.70 L 241.60 499.50 L 240.00 504.20 L 237.80 508.70 L 232.90 516.40 L 225.50 525.40 L 220.80 530.60 L 226.50 528.90 L 229.40 528.40 L 232.30 528.40 L 235.90 529.20 L 238.90 531.30 L 240.70 534.10 L 241.40 536.40 L 241.50 538.90 L 241.10 541.40 L 240.40 543.80 L 238.80 546.80 L 236.80 549.50 L 234.30 552.00 L 228.50 556.10 L 225.30 557.70 L 220.20 559.70 L 214.90 561.30 L 204.00 563.60 L 210.10 566.80 L 213.10 569.80 L 214.10 571.60 L 214.60 573.80 L 214.40 576.10 L 213.70 578.20 L 212.50 580.10 L 210.30 582.40 L 207.80 584.30 L 205.00 585.80 L 198.80 588.80 L 192.30 591.30 L 185.50 593.30 L 171.50 596.10 L 164.30 597.00 L 142.50 598.70 L 142.30 598.30 Z" fill="#47b0aa" fill-rule="nonzero" node-id="153" stroke="none" target-height="129.1" target-width="112.09999" target-x="130.8" target-y="469.6"></path><g node-id="358"><path d="M 143.40 599.80 L 234.90 473.60 L 233.00 472.40 L 141.60 598.70 L 143.40 599.80 Z" fill="#ffffff" fill-opacity="0.3" fill-rule="nonzero" group-id="5" node-id="157" stroke="none" target-height="127.399994" target-width="93.29999" target-x="141.6" target-y="472.4"></path></g><path d="M 163.30 528.30 L 163.10 529.80 L 163.30 531.20 L 164.00 532.50 L 166.20 534.60 L 167.80 535.20 L 169.50 535.40 L 172.40 534.80 L 173.70 534.00 L 174.60 532.90 L 175.20 531.50 L 175.30 530.00 L 175.10 528.70 L 174.40 527.30 L 172.20 525.30 L 170.60 524.60 L 168.90 524.40 L 166.00 525.00 L 164.70 525.90 L 163.80 526.90 L 163.30 528.30 Z" fill="#ffffff" fill-rule="nonzero" node-id="160" stroke="none" target-height="11" target-width="12.199997" target-x="163.1" target-y="524.4"></path><path d="M 208.90 519.40 L 208.70 520.80 L 209.00 522.20 L 209.60 523.60 L 211.80 525.60 L 213.40 526.30 L 216.60 526.40 L 219.30 525.00 L 220.20 524.00 L 220.80 522.60 L 221.00 521.10 L 220.70 519.70 L 219.10 517.20 L 216.30 515.70 L 214.60 515.50 L 211.60 516.10 L 210.40 516.90 L 209.50 518.00 L 208.90 519.40 Z" fill="#ffffff" fill-rule="nonzero" node-id="162" stroke="none" target-height="10.900024" target-width="12.300003" target-x="208.7" target-y="515.5"></path><path d="M 176.80 573.10 L 176.60 574.50 L 176.90 575.90 L 177.50 577.30 L 179.70 579.30 L 181.30 580.00 L 183.00 580.20 L 185.90 579.50 L 187.20 578.70 L 188.10 577.60 L 188.70 576.30 L 188.90 574.80 L 188.60 573.40 L 188.00 572.10 L 185.70 570.00 L 184.20 569.40 L 182.50 569.20 L 179.50 569.80 L 178.30 570.60 L 177.40 571.70 L 176.80 573.10 Z" fill="#ffffff" fill-rule="nonzero" node-id="164" stroke="none" target-height="11" target-width="12.299988" target-x="176.6" target-y="569.2"></path><g node-id="359"><path d="M 202.00 513.30 L 204.20 513.00 L 198.20 482.80 L 196.00 483.00 L 202.00 513.30 Z" fill="#ffffff" fill-opacity="0.3" fill-rule="nonzero" group-id="6" node-id="168" stroke="none" target-height="30.5" target-width="8.199997" target-x="196" target-y="482.8"></path></g><g node-id="360"><path d="M 181.30 548.20 L 241.50 540.00 L 241.00 538.00 L 180.90 546.20 L 181.30 548.20 Z" fill="#ffffff" fill-opacity="0.3" fill-rule="nonzero" group-id="7" node-id="173" stroke="none" target-height="10.200012" target-width="60.600006" target-x="180.9" target-y="538"></path></g><g node-id="361"><path d="M 158.30 573.30 L 160.30 572.60 L 141.60 529.00 L 139.60 529.60 L 158.30 573.30 Z" fill="#ffffff" fill-opacity="0.3" fill-rule="nonzero" group-id="8" node-id="178" stroke="none" target-height="44.299988" target-width="20.699997" target-x="139.6" target-y="529"></path></g><path d="M 176.40 844.60 L 97.40 844.60 L 83.00 593.10 L 190.80 593.10 L 176.40 844.60 Z" fill="#7bbaff" fill-rule="nonzero" node-id="181" stroke="none" target-height="251.5" target-width="107.8" target-x="83" target-y="593.1"></path><path d="M 843.50 89.00 L 859.80 89.80 L 867.50 90.70 L 882.40 93.50 L 889.50 95.40 L 902.30 99.90 L 908.50 102.70 L 914.10 105.70 L 919.20 108.90 L 923.80 112.20 L 928.20 115.90 L 932.00 119.70 L 935.30 123.70 L 937.90 127.70 L 940.10 132.10 L 941.70 136.50 L 942.70 141.00 L 943.00 145.60 L 942.70 150.20 L 941.70 154.70 L 940.10 159.10 L 937.90 163.50 L 935.30 167.50 L 932.00 171.50 L 928.20 175.30 L 923.80 179.00 L 919.20 182.30 L 914.10 185.50 L 908.40 188.50 L 902.30 191.30 L 889.40 195.80 L 882.40 197.70 L 867.50 200.50 L 859.80 201.40 L 843.50 202.20 L 827.20 201.40 L 819.50 200.50 L 804.60 197.70 L 797.60 195.80 L 784.70 191.30 L 778.60 188.50 L 772.90 185.50 L 767.80 182.30 L 763.20 179.00 L 758.80 175.30 L 755.00 171.40 L 751.70 167.50 L 749.10 163.50 L 746.90 159.10 L 745.30 154.70 L 744.30 150.20 L 744.00 145.60 L 744.30 140.90 L 745.30 136.40 L 746.90 132.00 L 749.10 127.70 L 751.70 123.60 L 755.00 119.70 L 758.80 115.90 L 763.20 112.10 L 767.80 108.80 L 772.90 105.70 L 778.60 102.70 L 784.70 99.90 L 797.60 95.40 L 804.60 93.50 L 819.50 90.70 L 827.20 89.80 L 843.50 89.00" fill="#cedfff" fill-rule="evenodd" node-id="183" stroke="none" target-height="113.2" target-width="199" target-x="744" target-y="89"></path><path d="M 800.40 198.50 L 789.10 231.40 L 821.70 207.50 L 800.40 198.50 Z" fill="#d0e0ff" fill-rule="evenodd" node-id="185" stroke="none" target-height="32.899994" target-width="32.600037" target-x="789.1" target-y="198.5"></path><path d="M 886.80 166.40 L 797.90 166.40 L 794.90 166.20 L 789.50 164.70 L 787.10 163.50 L 784.00 161.30 L 781.50 158.80 L 779.30 155.80 L 777.20 150.70 L 776.60 147.90 L 776.40 144.90 L 776.60 142.10 L 777.10 139.30 L 779.30 134.20 L 782.70 129.70 L 787.20 126.30 L 792.30 124.20 L 795.10 123.60 L 886.80 123.40 L 889.70 123.60 L 895.10 125.10 L 899.90 127.80 L 902.00 129.70 L 905.50 134.20 L 907.60 139.30 L 908.10 142.10 L 908.30 144.90 L 908.10 147.90 L 907.60 150.70 L 905.40 155.80 L 903.30 158.80 L 900.70 161.30 L 897.70 163.50 L 895.20 164.70 L 889.80 166.20 L 886.80 166.40 Z" fill="#ff9c39" fill-rule="nonzero" node-id="187" stroke="none" target-height="42.999992" target-width="131.89996" target-x="776.4" target-y="123.4"></path><path d="M 824.30 145.00 L 824.00 146.60 L 823.40 148.10 L 822.30 149.20 L 820.90 150.10 L 819.30 150.50 L 817.70 150.40 L 816.20 149.90 L 814.90 148.90 L 813.90 147.60 L 813.40 146.10 L 813.30 144.50 L 813.70 142.90 L 814.50 141.50 L 815.70 140.50 L 817.10 139.80 L 818.80 139.50 L 820.30 139.70 L 822.70 141.10 L 824.10 143.50 L 824.30 145.00 Z" fill="#ffffff" fill-rule="nonzero" node-id="189" stroke="none" target-height="11" target-width="11" target-x="813.3" target-y="139.5"></path><path d="M 847.90 144.90 L 847.70 146.40 L 846.30 148.80 L 843.90 150.20 L 842.40 150.40 L 840.90 150.20 L 838.50 148.80 L 837.10 146.40 L 836.90 144.90 L 837.10 143.40 L 838.50 141.00 L 840.90 139.60 L 842.40 139.40 L 843.80 139.60 L 846.30 141.00 L 847.10 142.20 L 847.90 144.90 Z" fill="#ffffff" fill-rule="nonzero" node-id="191" stroke="none" target-height="11" target-width="11" target-x="836.9" target-y="139.4"></path><path d="M 871.50 144.80 L 871.30 146.30 L 869.90 148.70 L 867.50 150.10 L 866.00 150.30 L 863.20 149.60 L 861.20 147.60 L 860.70 146.40 L 860.50 144.90 L 861.20 142.10 L 863.20 140.10 L 866.00 139.30 L 867.40 139.50 L 869.80 140.90 L 871.30 143.30 L 871.50 144.80 Z" fill="#ffffff" fill-rule="nonzero" node-id="193" stroke="none" target-height="11" target-width="11" target-x="860.5" target-y="139.3"></path><path d="M 106.60 150.30 L 249.20 150.30 L 250.70 150.50 L 253.30 152.00 L 254.20 153.20 L 255.00 156.10 L 255.00 282.80 L 254.20 285.70 L 253.30 286.90 L 250.70 288.40 L 249.20 288.60 L 106.60 288.60 L 105.10 288.40 L 102.50 286.90 L 101.60 285.70 L 100.80 282.80 L 100.80 156.10 L 101.00 154.60 L 102.50 152.00 L 103.70 151.10 L 106.60 150.30 Z" fill="#cedfff" fill-rule="nonzero" node-id="195" stroke="none" target-height="138.3" target-width="154.2" target-x="100.8" target-y="150.3"></path><path d="M 177.90 272.00 L 217.50 309.40 L 218.30 309.90 L 220.00 310.20 L 221.70 309.50 L 222.60 308.00 L 222.80 307.10 L 222.80 260.80 Z" fill="#cedfff" fill-rule="nonzero" node-id="197" stroke="none" target-height="49.400024" target-width="44.90001" target-x="177.9" target-y="260.8"></path><g node-id="362"><path d="M 127.70 124.70 L 132.30 130.40 L 135.60 136.70 L 137.10 141.10 L 138.00 145.70 L 138.30 150.30 L 138.00 154.90 L 137.10 159.40 L 135.60 163.90 L 132.30 170.10 L 127.70 175.90 L 121.90 180.50 L 115.70 183.80 L 111.20 185.30 L 106.70 186.20 L 102.10 186.50 L 97.40 186.20 L 92.90 185.30 L 88.40 183.80 L 82.20 180.50 L 79.30 178.40 L 76.50 175.90 L 74.00 173.10 L 70.00 167.10 L 68.50 163.90 L 67.00 159.40 L 66.20 154.90 L 65.90 150.30 L 66.20 145.70 L 67.00 141.10 L 68.50 136.70 L 71.80 130.40 L 76.50 124.70 L 82.20 120.00 L 88.40 116.70 L 92.90 115.30 L 97.40 114.40 L 102.10 114.10 L 106.70 114.40 L 111.20 115.30 L 115.70 116.70 L 121.90 120.00 L 127.70 124.70 Z" fill="#ff9c39" fill-rule="nonzero" group-id="9" node-id="201" stroke="none" target-height="72.4" target-width="72.4" target-x="65.9" target-y="114.1"></path></g><path d="M 99.50 163.40 L 98.70 163.10 L 85.10 153.20 L 84.60 152.70 L 84.40 151.90 L 84.70 151.10 L 85.30 150.70 L 86.10 150.60 L 86.80 151.00 L 99.20 160.10 L 114.50 140.70 L 115.40 140.20 L 116.50 140.50 L 116.80 140.90 L 117.00 141.90 L 116.70 142.40 L 100.60 162.90 L 99.50 163.40 Z" fill="#ffffff" fill-rule="nonzero" node-id="204" stroke="none" target-height="23.199997" target-width="32.6" target-x="84.4" target-y="140.2"></path><path d="M 210.20 210.80 L 204.90 209.90 L 203.70 206.40 L 202.10 203.20 L 205.20 198.80 L 205.80 197.40 L 205.90 196.00 L 205.60 194.70 L 204.80 193.50 L 201.50 190.30 L 200.30 189.50 L 199.00 189.10 L 197.60 189.30 L 196.30 189.90 L 191.80 193.00 L 188.60 191.40 L 185.10 190.20 L 184.20 184.80 L 183.70 183.40 L 182.80 182.30 L 181.60 181.60 L 180.20 181.40 L 175.60 181.40 L 174.20 181.60 L 172.90 182.30 L 172.00 183.40 L 171.50 184.80 L 170.60 190.10 L 167.20 191.30 L 163.90 192.90 L 159.50 189.90 L 158.20 189.30 L 156.80 189.10 L 155.40 189.50 L 154.20 190.30 L 151.00 193.60 L 150.20 194.80 L 149.80 196.10 L 149.90 197.50 L 150.50 198.80 L 153.70 203.30 L 152.10 206.50 L 150.90 210.00 L 145.60 210.90 L 144.20 211.40 L 143.10 212.30 L 142.40 213.50 L 142.10 215.00 L 142.40 221.00 L 143.10 222.20 L 144.20 223.10 L 145.60 223.60 L 150.90 224.50 L 152.10 227.90 L 153.70 231.20 L 150.50 235.60 L 149.90 237.00 L 149.80 238.40 L 150.20 239.70 L 151.00 240.90 L 154.20 244.10 L 155.40 245.00 L 156.80 245.30 L 158.20 245.20 L 159.50 244.60 L 163.90 241.50 L 167.20 243.10 L 170.60 244.20 L 171.60 249.60 L 172.10 250.90 L 173.00 252.00 L 174.20 252.70 L 180.20 253.00 L 181.70 252.70 L 182.90 252.00 L 183.80 250.90 L 184.30 249.60 L 185.20 244.20 L 188.70 243.10 L 191.90 241.50 L 196.30 244.50 L 197.60 245.10 L 199.00 245.20 L 200.30 244.80 L 201.50 244.00 L 204.70 240.80 L 205.60 239.60 L 205.90 238.20 L 205.80 236.80 L 202.10 231.00 L 203.70 227.80 L 204.80 224.40 L 210.20 223.40 L 211.60 222.90 L 212.60 222.00 L 213.40 220.80 L 213.60 214.80 L 213.30 213.40 L 212.60 212.20 L 211.60 211.30 L 210.20 210.80 Z M 177.90 229.40 L 175.40 229.10 L 173.20 228.50 L 171.10 227.30 L 169.20 225.80 L 167.70 224.00 L 166.60 221.80 L 165.80 219.50 L 165.60 217.10 L 165.90 214.70 L 166.50 212.50 L 167.60 210.40 L 169.20 208.50 L 171.10 206.90 L 173.20 205.80 L 175.50 205.10 L 177.90 204.90 L 180.20 205.10 L 182.60 205.80 L 184.70 207.00 L 186.60 208.50 L 188.10 210.30 L 189.20 212.40 L 189.90 214.70 L 190.10 217.10 L 189.40 221.50 L 187.20 225.10 L 184.10 227.70 L 182.20 228.60 L 177.90 229.40 Z" fill="#100c25" fill-rule="nonzero" node-id="206" stroke="none" target-height="71.600006" target-width="71.5" target-x="142.1" target-y="181.4"></path><path d="M 362.40 869.80 L 362.60 872.80 L 364.10 878.40 L 365.40 881.00 L 367.60 884.10 L 370.30 886.80 L 373.40 889.00 L 376.00 890.30 L 381.60 891.80 L 384.60 892.00 L 825.70 892.00 L 828.80 891.80 L 834.40 890.30 L 836.90 889.00 L 840.00 886.70 L 842.70 884.10 L 844.90 881.00 L 846.20 878.40 L 847.70 872.80 L 847.90 869.70 L 847.90 471.70 L 362.40 471.70 Z" fill="#c3cfe2" fill-rule="nonzero" node-id="208" stroke="none" target-height="420.3" target-width="485.50003" target-x="362.4" target-y="471.7"></path><path d="M 825.80 345.60 L 384.70 345.60 L 378.70 346.40 L 373.50 348.60 L 370.30 350.80 L 367.70 353.50 L 365.50 356.60 L 364.20 359.20 L 362.70 364.70 L 362.40 367.80 L 362.40 471.80 L 848.00 471.80 L 848.00 367.80 L 847.80 364.70 L 847.20 361.90 L 845.00 356.60 L 842.80 353.50 L 840.10 350.80 L 837.00 348.60 L 834.40 347.30 L 828.80 345.80 L 825.80 345.60 Z" fill="#c3cfe2" fill-rule="nonzero" node-id="210" stroke="none" target-height="126.19998" target-width="485.6" target-x="362.4" target-y="345.6"></path><path d="M 327.50 869.80 L 327.70 872.80 L 329.20 878.40 L 330.50 881.00 L 332.70 884.10 L 335.40 886.80 L 338.50 889.00 L 341.00 890.30 L 346.60 891.80 L 349.70 892.00 L 790.80 892.00 L 793.80 891.80 L 799.40 890.30 L 802.00 889.00 L 805.10 886.80 L 807.70 884.10 L 810.00 881.00 L 811.20 878.40 L 812.80 872.80 L 813.00 869.80 L 813.00 471.70 L 327.50 471.70 Z" fill="#ffffff" fill-rule="nonzero" node-id="212" stroke="none" target-height="420.3" target-width="485.5" target-x="327.5" target-y="471.7"></path><path d="M 790.80 345.50 L 349.80 345.50 L 343.80 346.30 L 338.50 348.50 L 335.40 350.70 L 332.80 353.40 L 330.50 356.50 L 329.30 359.00 L 327.70 364.60 L 327.50 367.70 L 327.50 471.70 L 813.00 471.70 L 813.00 367.70 L 812.80 364.60 L 812.20 361.80 L 810.00 356.50 L 807.80 353.40 L 805.10 350.70 L 802.00 348.50 L 799.40 347.20 L 793.80 345.70 L 790.80 345.50 Z" fill="#5eadef" fill-rule="nonzero" node-id="214" stroke="none" target-height="126.20001" target-width="485.5" target-x="327.5" target-y="345.5"></path><path d="M 487.90 411.60 L 487.60 415.10 L 487.00 418.50 L 485.90 421.60 L 484.40 424.60 L 482.60 427.30 L 480.40 429.70 L 478.00 431.90 L 475.30 433.70 L 472.30 435.20 L 469.20 436.30 L 465.80 436.90 L 462.30 437.20 L 458.80 436.90 L 455.50 436.30 L 452.40 435.20 L 449.40 433.70 L 446.70 431.90 L 444.30 429.70 L 442.10 427.30 L 440.30 424.60 L 438.80 421.60 L 437.70 418.50 L 437.00 415.10 L 436.80 411.60 L 437.00 408.10 L 437.70 404.80 L 438.80 401.70 L 440.30 398.70 L 442.10 396.00 L 444.30 393.60 L 446.70 391.40 L 449.40 389.60 L 452.40 388.10 L 455.50 387.00 L 458.80 386.30 L 462.30 386.10 L 465.80 386.30 L 469.20 387.00 L 472.30 388.10 L 475.30 389.60 L 478.00 391.40 L 480.40 393.60 L 482.60 396.00 L 484.40 398.70 L 485.90 401.70 L 487.00 404.80 L 487.60 408.10 L 487.90 411.60 Z" fill="#100c25" fill-rule="nonzero" node-id="216" stroke="none" target-height="51.100006" target-width="51.100006" target-x="436.8" target-y="386.1"></path><path d="M 456.90 398.00 L 454.50 397.80 L 452.30 397.20 L 448.40 394.90 L 445.50 391.40 L 444.50 389.40 L 443.90 387.10 L 443.70 384.70 L 443.70 329.10 L 443.80 327.00 L 445.00 323.00 L 446.00 321.20 L 448.70 318.20 L 452.20 316.20 L 454.30 315.60 L 456.30 315.30 L 460.10 315.70 L 463.70 317.20 L 465.30 318.30 L 468.00 321.20 L 469.60 324.70 L 470.10 326.60 L 470.20 345.40 L 492.70 345.40 L 492.70 329.80 L 492.40 325.10 L 491.60 320.60 L 490.20 316.20 L 488.30 312.10 L 486.00 308.20 L 483.20 304.70 L 480.00 301.50 L 476.50 298.80 L 472.60 296.50 L 468.50 294.70 L 464.10 293.50 L 459.40 292.80 L 455.70 292.80 L 448.50 293.80 L 445.00 294.80 L 441.60 296.20 L 435.40 300.00 L 429.90 305.10 L 425.80 311.00 L 424.10 314.30 L 421.90 321.20 L 421.20 328.50 L 421.20 383.50 L 421.50 388.10 L 422.30 392.60 L 423.60 396.80 L 425.40 400.90 L 427.70 404.70 L 430.40 408.20 L 433.50 411.30 L 436.90 414.10 L 440.60 416.40 L 444.70 418.20 L 449.00 419.50 L 453.60 420.20 L 459.40 420.30 L 462.20 419.80 L 464.30 418.90 L 466.10 417.60 L 467.50 415.90 L 468.60 414.10 L 469.20 412.00 L 469.50 409.80 L 468.90 405.50 L 468.00 403.50 L 466.80 401.70 L 465.20 400.10 L 463.30 399.00 L 461.00 398.20 L 458.20 397.90 Z" fill="#ffffff" fill-rule="nonzero" node-id="218" stroke="none" target-height="127.5" target-width="71.5" target-x="421.2" target-y="292.8"></path><path d="M 691.60 411.60 L 691.40 415.10 L 690.70 418.50 L 689.60 421.60 L 688.10 424.60 L 686.30 427.30 L 684.10 429.70 L 681.70 431.90 L 679.00 433.70 L 676.00 435.20 L 672.90 436.30 L 669.60 436.90 L 666.10 437.20 L 662.50 436.90 L 659.20 436.30 L 656.10 435.20 L 653.10 433.70 L 650.40 431.90 L 648.00 429.70 L 645.80 427.30 L 644.00 424.60 L 642.50 421.60 L 641.40 418.50 L 640.70 415.10 L 640.50 411.60 L 640.70 408.10 L 641.40 404.80 L 642.50 401.70 L 644.00 398.70 L 645.80 396.00 L 648.00 393.60 L 650.40 391.40 L 653.10 389.60 L 656.10 388.10 L 659.20 387.00 L 662.50 386.30 L 666.10 386.10 L 669.60 386.30 L 672.90 387.00 L 676.00 388.10 L 679.00 389.60 L 681.70 391.40 L 684.10 393.60 L 686.30 396.00 L 688.10 398.70 L 689.60 401.70 L 690.70 404.80 L 691.40 408.10 L 691.60 411.60 Z" fill="#100c25" fill-rule="nonzero" node-id="220" stroke="none" target-height="51.100006" target-width="51.099976" target-x="640.5" target-y="386.1"></path><path d="M 660.70 398.00 L 658.20 397.80 L 656.00 397.20 L 652.10 394.90 L 649.20 391.40 L 648.20 389.40 L 647.60 387.10 L 647.40 384.70 L 647.40 329.10 L 647.50 327.00 L 648.70 323.00 L 649.70 321.20 L 652.40 318.20 L 656.00 316.20 L 658.00 315.60 L 660.00 315.30 L 663.80 315.70 L 667.40 317.20 L 669.00 318.30 L 671.70 321.20 L 673.40 324.70 L 673.80 326.60 L 673.90 345.40 L 696.40 345.40 L 696.40 329.80 L 696.10 325.10 L 695.30 320.60 L 693.90 316.20 L 692.00 312.10 L 689.70 308.20 L 686.90 304.70 L 683.70 301.50 L 680.20 298.80 L 676.30 296.50 L 672.20 294.70 L 667.80 293.50 L 663.10 292.80 L 659.40 292.80 L 652.20 293.80 L 648.70 294.80 L 642.10 297.90 L 639.10 300.00 L 633.70 305.10 L 629.50 311.00 L 627.90 314.30 L 625.60 321.20 L 624.90 328.50 L 624.90 383.50 L 625.20 388.10 L 626.00 392.60 L 627.30 396.80 L 629.20 400.90 L 631.40 404.70 L 634.10 408.20 L 637.20 411.30 L 640.60 414.10 L 644.40 416.40 L 648.40 418.20 L 652.70 419.50 L 657.30 420.20 L 663.10 420.30 L 665.90 419.80 L 668.10 418.90 L 669.80 417.60 L 671.20 415.90 L 672.30 414.10 L 672.90 412.00 L 673.20 409.80 L 672.60 405.50 L 671.70 403.50 L 670.50 401.70 L 668.90 400.10 L 667.00 399.00 L 664.70 398.20 L 661.90 397.90 Z" fill="#ffffff" fill-rule="nonzero" node-id="222" stroke="none" target-height="127.5" target-width="71.5" target-x="624.9" target-y="292.8"></path><path d="M 400.40 531.90 L 473.00 531.90 L 473.00 604.50 L 400.40 604.50 Z" fill="#ffdec2" fill-rule="nonzero" node-id="224" stroke="none" target-height="72.599976" target-width="72.600006" target-x="400.4" target-y="531.9"></path><path d="M 400.40 638.80 L 473.00 638.80 L 473.00 711.50 L 400.40 711.50 Z" fill="#ffdec2" fill-rule="nonzero" node-id="226" stroke="none" target-height="72.70001" target-width="72.600006" target-x="400.4" target-y="638.8"></path><path d="M 400.40 745.80 L 473.00 745.80 L 473.00 818.40 L 400.40 818.40 Z" fill="#ffdec2" fill-rule="nonzero" node-id="228" stroke="none" target-height="72.60004" target-width="72.600006" target-x="400.4" target-y="745.8"></path><path d="M 523.60 531.90 L 596.30 531.90 L 596.30 604.50 L 523.60 604.50 Z" fill="#ff9c39" fill-rule="nonzero" node-id="230" stroke="none" target-height="72.599976" target-width="72.70001" target-x="523.6" target-y="531.9"></path><path d="M 523.60 638.80 L 596.30 638.80 L 596.30 711.50 L 523.60 711.50 Z" fill="#ffdec2" fill-rule="nonzero" node-id="232" stroke="none" target-height="72.70001" target-width="72.70001" target-x="523.6" target-y="638.8"></path><path d="M 523.60 745.80 L 596.30 745.80 L 596.30 818.40 L 523.60 818.40 Z" fill="#ffdec2" fill-rule="nonzero" node-id="234" stroke="none" target-height="72.60004" target-width="72.70001" target-x="523.6" target-y="745.8"></path><path d="M 646.90 531.90 L 719.50 531.90 L 719.50 604.50 L 646.90 604.50 Z" fill="#ff9c39" fill-rule="nonzero" node-id="236" stroke="none" target-height="72.599976" target-width="72.599976" target-x="646.9" target-y="531.9"></path><path d="M 646.90 638.80 L 719.50 638.80 L 719.50 711.50 L 646.90 711.50 Z" fill="#ff9c39" fill-rule="nonzero" node-id="238" stroke="none" target-height="72.70001" target-width="72.599976" target-x="646.9" target-y="638.8"></path><path d="M 646.90 745.80 L 719.50 745.80 L 719.50 818.40 L 646.90 818.40 Z" fill="#ffdec2" fill-rule="nonzero" node-id="240" stroke="none" target-height="72.60004" target-width="72.599976" target-x="646.9" target-y="745.8"></path><path d="M 257.60 544.70 L 306.60 544.70 L 306.60 576.90 L 257.60 576.90 Z" fill="#6276b5" fill-rule="nonzero" node-id="242" stroke="none" target-height="32.200012" target-width="49" target-x="257.6" target-y="544.7"></path><path d="M 236.80 533.40 L 327.40 533.40 L 327.40 553.00 L 236.80 553.00 Z" fill="#253369" fill-rule="nonzero" node-id="244" stroke="none" target-height="19.599976" target-width="90.59999" target-x="236.8" target-y="533.4"></path><g node-id="363"><path d="M 397.00 613.30 L 403.20 619.90 L 409.00 626.60 L 414.30 633.60 L 419.20 640.70 L 423.60 648.10 L 427.60 655.70 L 431.30 663.40 L 434.40 671.30 L 437.20 679.20 L 439.50 687.30 L 441.40 695.50 L 442.90 703.80 L 444.00 712.00 L 444.60 720.40 L 444.80 728.70 L 444.60 737.10 L 444.00 745.40 L 442.90 753.70 L 441.40 761.90 L 439.50 770.20 L 437.20 778.20 L 434.40 786.20 L 431.30 794.00 L 427.60 801.80 L 423.60 809.40 L 419.20 816.70 L 414.30 823.90 L 409.00 830.80 L 403.20 837.60 L 397.00 844.20 L 390.40 850.40 L 383.60 856.20 L 376.70 861.50 L 369.50 866.30 L 362.20 870.80 L 354.60 874.80 L 346.80 878.50 L 339.00 881.60 L 331.00 884.40 L 323.00 886.70 L 314.70 888.60 L 306.50 890.10 L 298.20 891.20 L 289.90 891.80 L 281.50 892.00 L 273.20 891.80 L 264.80 891.20 L 256.60 890.10 L 248.30 888.60 L 240.10 886.70 L 232.00 884.40 L 224.10 881.60 L 216.20 878.50 L 208.50 874.80 L 200.90 870.80 L 193.50 866.30 L 186.40 861.50 L 179.40 856.20 L 172.70 850.40 L 166.10 844.20 L 159.80 837.60 L 154.10 830.80 L 148.80 823.90 L 143.90 816.70 L 139.50 809.40 L 135.40 801.80 L 131.80 794.00 L 128.60 786.20 L 125.90 778.20 L 123.60 770.20 L 121.60 761.90 L 120.10 753.70 L 119.10 745.40 L 118.50 737.10 L 118.20 728.70 L 118.50 720.40 L 119.10 712.00 L 120.10 703.80 L 121.60 695.50 L 123.60 687.30 L 125.90 679.20 L 128.60 671.30 L 131.80 663.40 L 135.40 655.70 L 139.50 648.10 L 143.90 640.70 L 148.80 633.60 L 154.10 626.60 L 159.80 619.90 L 166.10 613.30 L 172.70 607.00 L 179.40 601.30 L 186.40 596.00 L 193.50 591.10 L 200.90 586.70 L 208.50 582.60 L 216.20 579.00 L 224.10 575.80 L 232.00 573.10 L 240.10 570.70 L 248.30 568.80 L 256.60 567.30 L 264.80 566.30 L 273.20 565.60 L 281.50 565.40 L 289.90 565.60 L 298.20 566.30 L 306.50 567.30 L 314.70 568.80 L 323.00 570.70 L 331.00 573.10 L 339.00 575.80 L 346.80 579.00 L 354.60 582.60 L 362.20 586.70 L 369.50 591.10 L 376.70 596.00 L 383.60 601.30 L 390.40 607.00 L 397.00 613.30 Z" fill="#253369" fill-rule="nonzero" group-id="10" node-id="248" stroke="none" target-height="326.59998" target-width="326.59998" target-x="118.2" target-y="565.4"></path></g><g node-id="364"><path d="M 376.40 633.90 L 382.70 640.70 L 388.40 647.70 L 393.60 655.00 L 398.20 662.50 L 402.30 670.30 L 405.80 678.30 L 408.80 686.40 L 411.30 694.70 L 413.20 703.10 L 414.60 711.60 L 415.40 720.10 L 415.60 728.70 L 415.40 737.30 L 414.60 745.80 L 413.20 754.30 L 411.30 762.80 L 408.80 771.00 L 405.80 779.20 L 402.30 787.10 L 398.20 795.00 L 393.60 802.50 L 388.40 809.70 L 382.70 816.80 L 376.40 823.60 L 369.60 829.90 L 362.60 835.60 L 355.30 840.80 L 347.80 845.40 L 339.90 849.50 L 332.00 853.00 L 323.80 856.00 L 315.60 858.50 L 307.10 860.40 L 298.60 861.80 L 290.10 862.60 L 281.50 862.80 L 273.00 862.60 L 264.40 861.80 L 256.00 860.40 L 247.50 858.50 L 239.20 856.00 L 231.10 853.00 L 223.10 849.50 L 215.30 845.40 L 207.80 840.80 L 200.50 835.60 L 193.50 829.90 L 186.70 823.60 L 180.40 816.80 L 174.60 809.70 L 169.50 802.50 L 164.90 795.00 L 160.80 787.10 L 157.20 779.20 L 154.20 771.00 L 151.80 762.80 L 149.90 754.30 L 148.50 745.80 L 147.70 737.30 L 147.40 728.70 L 147.70 720.10 L 148.50 711.60 L 149.90 703.10 L 151.80 694.70 L 154.20 686.40 L 157.20 678.30 L 160.80 670.30 L 164.90 662.50 L 169.50 655.00 L 174.60 647.70 L 180.40 640.70 L 186.70 633.90 L 193.50 627.60 L 200.50 621.80 L 207.80 616.70 L 215.30 612.10 L 223.10 608.00 L 231.10 604.40 L 239.20 601.40 L 247.50 599.00 L 256.00 597.10 L 264.40 595.70 L 273.00 594.90 L 281.50 594.60 L 290.10 594.90 L 298.60 595.70 L 307.10 597.10 L 315.60 599.00 L 323.80 601.40 L 332.00 604.40 L 339.90 608.00 L 347.80 612.10 L 355.30 616.70 L 362.60 621.80 L 369.60 627.60 L 376.40 633.90 Z" fill="#ffffff" fill-rule="nonzero" group-id="11" node-id="253" stroke="none" target-height="268.2" target-width="268.2" target-x="147.4" target-y="594.6"></path></g><path d="M 205.80 656.50 L 204.50 656.20 L 203.40 655.50 L 197.80 649.90 L 197.10 648.80 L 196.90 647.50 L 197.20 646.30 L 197.90 645.20 L 199.00 644.50 L 200.20 644.20 L 201.40 644.40 L 202.60 645.10 L 208.20 650.70 L 209.10 652.40 L 208.90 654.40 L 207.70 655.90 L 205.80 656.50 Z" fill="#f2c8aa" fill-rule="nonzero" node-id="256" stroke="none" target-height="12.299988" target-width="12.200012" target-x="196.9" target-y="644.2"></path><path d="M 364.20 814.90 L 362.90 814.70 L 361.80 813.90 L 356.20 808.30 L 355.50 807.20 L 355.30 806.00 L 355.50 804.70 L 356.20 803.60 L 357.40 802.80 L 358.60 802.60 L 359.90 802.80 L 361.00 803.60 L 366.60 809.20 L 367.50 810.90 L 367.30 812.80 L 366.10 814.40 L 364.20 814.90 Z" fill="#f2c8aa" fill-rule="nonzero" node-id="258" stroke="none" target-height="12.300049" target-width="12.200012" target-x="355.3" target-y="802.6"></path><path d="M 200.20 814.90 L 199.20 814.80 L 197.60 813.70 L 196.80 811.90 L 197.20 810.00 L 203.40 803.60 L 204.50 802.80 L 205.80 802.60 L 207.00 802.80 L 208.20 803.60 L 208.90 804.70 L 209.20 806.00 L 208.90 807.20 L 208.20 808.30 L 202.60 814.00 L 201.50 814.70 L 200.20 814.90 Z" fill="#f2c8aa" fill-rule="nonzero" node-id="260" stroke="none" target-height="12.300049" target-width="12.399994" target-x="196.8" target-y="802.6"></path><path d="M 358.60 656.50 L 357.60 656.30 L 356.00 655.30 L 355.30 653.40 L 355.60 651.50 L 361.80 645.10 L 363.40 644.20 L 365.20 644.10 L 366.70 645.00 L 367.60 646.60 L 367.60 648.40 L 366.60 649.90 L 361.00 655.50 L 359.90 656.20 L 358.60 656.50 Z" fill="#f2c8aa" fill-rule="nonzero" node-id="262" stroke="none" target-height="12.400024" target-width="12.300018" target-x="355.3" target-y="644.1"></path><path d="M 289.80 616.50 L 289.50 618.50 L 288.80 620.30 L 287.50 621.90 L 286.00 623.10 L 284.20 623.90 L 282.10 624.20 L 280.00 623.90 L 278.20 623.10 L 276.60 621.90 L 275.40 620.30 L 274.70 618.50 L 274.40 616.50 L 274.70 614.40 L 275.40 612.60 L 276.60 611.00 L 278.20 609.80 L 280.00 609.00 L 282.10 608.70 L 284.20 609.00 L 286.00 609.80 L 287.50 611.00 L 288.80 612.60 L 289.50 614.40 L 289.80 616.50 Z" fill="#100c25" fill-rule="nonzero" node-id="264" stroke="none" target-height="15.5" target-width="15.399994" target-x="274.4" target-y="608.7"></path><path d="M 289.80 841.10 L 289.50 843.20 L 288.80 845.00 L 287.50 846.50 L 286.00 847.80 L 284.20 848.50 L 282.10 848.80 L 280.00 848.50 L 278.20 847.80 L 276.60 846.50 L 275.40 845.00 L 274.70 843.20 L 274.40 841.10 L 274.70 839.00 L 275.40 837.20 L 276.60 835.60 L 278.20 834.40 L 280.00 833.70 L 282.10 833.40 L 284.20 833.70 L 286.00 834.40 L 287.50 835.60 L 288.80 837.20 L 289.50 839.00 L 289.80 841.10 Z" fill="#100c25" fill-rule="nonzero" node-id="266" stroke="none" target-height="15.399963" target-width="15.399994" target-x="274.4" target-y="833.4"></path><path d="M 169.80 721.10 L 171.80 721.30 L 173.70 722.10 L 175.20 723.30 L 176.40 724.90 L 177.20 726.70 L 177.50 728.80 L 177.20 730.80 L 176.40 732.70 L 175.20 734.20 L 173.70 735.40 L 171.80 736.20 L 169.80 736.50 L 167.70 736.20 L 165.90 735.40 L 164.30 734.20 L 163.10 732.70 L 162.30 730.80 L 162.10 728.80 L 162.30 726.70 L 163.10 724.90 L 164.30 723.30 L 165.90 722.10 L 167.70 721.30 L 169.80 721.10 Z" fill="#100c25" fill-rule="nonzero" node-id="268" stroke="none" target-height="15.400024" target-width="15.399994" target-x="162.1" target-y="721.1"></path><path d="M 394.40 721.10 L 396.50 721.30 L 398.30 722.10 L 399.90 723.30 L 401.10 724.90 L 401.80 726.70 L 402.10 728.80 L 401.80 730.80 L 401.10 732.70 L 399.90 734.20 L 398.30 735.40 L 396.50 736.20 L 394.40 736.50 L 392.30 736.20 L 390.50 735.40 L 389.00 734.20 L 387.70 732.70 L 387.00 730.80 L 386.70 728.80 L 387.30 725.80 L 388.90 723.30 L 391.50 721.60 L 394.40 721.10 Z" fill="#100c25" fill-rule="nonzero" node-id="270" stroke="none" target-height="15.400024" target-width="15.399994" target-x="386.7" target-y="721.1"></path><path d="M 330.10 659.20 L 273.90 725.20 L 272.70 728.30 L 272.70 731.70 L 273.30 733.40 L 275.30 736.20 L 278.30 738.00 L 279.90 738.40 L 281.70 738.50 L 285.00 737.60 L 287.70 735.50 L 288.70 734.10 L 289.40 732.50 L 332.00 660.50 L 332.10 659.70 L 331.70 659.00 L 330.80 658.80 L 330.10 659.20 Z" fill="#ff9c39" fill-rule="nonzero" node-id="272" stroke="none" target-height="79.70001" target-width="59.399994" target-x="272.7" target-y="658.8"></path><path d="M 905.50 863.00 L 904.60 866.00 L 902.50 870.10 L 900.90 872.40 L 898.80 874.40 L 896.30 876.10 L 894.30 877.00 L 884.90 878.80 L 881.30 880.90 L 880.10 882.40 L 879.30 884.00 L 878.80 887.10 L 879.10 889.40 L 929.90 889.40 L 929.90 864.00 Z" fill="#367cff" fill-rule="nonzero" node-id="274" stroke="none" target-height="26.400024" target-width="51.100037" target-x="878.8" target-y="863"></path><path d="M 933.30 604.10 L 932.10 872.00 L 898.70 871.80 L 878.50 602.60 L 933.30 604.10 Z" fill="#262626" fill-rule="nonzero" node-id="276" stroke="none" target-height="269.40002" target-width="54.799988" target-x="878.5" target-y="602.6"></path><path d="M 848.50 863.00 L 847.60 866.00 L 845.50 870.10 L 843.90 872.40 L 841.90 874.40 L 839.30 876.10 L 837.40 877.00 L 827.90 878.80 L 826.30 879.50 L 824.40 880.90 L 823.10 882.40 L 822.30 884.00 L 821.90 887.10 L 822.10 889.40 L 872.90 889.40 L 872.90 864.00 Z" fill="#367cff" fill-rule="nonzero" node-id="278" stroke="none" target-height="26.400024" target-width="51" target-x="821.9" target-y="863"></path><path d="M 842.10 606.90 L 839.10 700.10 L 838.30 736.30 L 842.30 871.10 L 875.10 871.70 L 880.40 731.40 L 882.20 715.50 L 886.30 688.90 L 890.50 667.70 L 895.80 645.70 L 898.00 634.50 L 899.70 623.20 L 901.00 611.90 L 901.80 600.40 L 842.10 606.90 Z" fill="#262626" fill-rule="nonzero" node-id="280" stroke="none" target-height="271.3" target-width="63.5" target-x="838.3" target-y="600.4"></path><path d="M 885.40 694.40 L 882.60 652.50 L 881.20 663.10 L 880.20 673.50 L 879.80 684.90 L 881.30 721.30 Z" fill="#0a0a0a" fill-rule="nonzero" node-id="282" stroke="none" target-height="68.79999" target-width="5.6000366" target-x="879.8" target-y="652.5"></path><path d="M 933.70 604.10 L 933.70 603.20 Z" fill="#333333" fill-rule="nonzero" node-id="284" stroke="none" target-height="0.8999634" target-width="0" target-x="933.7" target-y="603.2"></path><path d="M 933.50 604.10 L 933.60 603.20 Z" fill="#333333" fill-rule="nonzero" node-id="286" stroke="none" target-height="0.8999634" target-width="0.099975586" target-x="933.5" target-y="603.2"></path><path d="M 750.70 504.00 L 751.60 503.10 L 753.00 502.70 L 751.00 501.00 L 750.60 499.50 L 751.30 498.10 L 752.70 497.60 L 753.50 497.70 L 752.10 496.00 L 752.10 494.50 L 752.70 493.80 L 754.50 493.30 L 756.80 494.70 L 756.30 493.40 L 756.60 492.00 L 757.30 491.40 L 759.00 491.40 L 768.10 497.50 L 766.70 495.00 L 766.40 493.40 L 767.30 492.00 L 768.90 491.70 L 770.30 492.70 L 778.50 506.40 L 779.20 508.20 L 779.50 509.90 L 779.30 511.70 L 778.60 513.40 L 777.60 514.90 L 776.10 516.10 L 774.20 517.10 L 772.10 517.60 L 770.00 517.80 L 767.90 517.50 L 765.90 516.80 L 764.00 515.80 L 751.40 506.80 L 750.60 505.50 L 750.70 504.00 Z" fill="#ff9e85" fill-rule="nonzero" node-id="288" stroke="none" target-height="26.399994" target-width="28.900024" target-x="750.6" target-y="491.4"></path><g node-id="365"><path d="M 765.10 500.40 L 756.90 494.90 L 756.80 494.60 L 765.10 500.30 Z" fill="#0c0c0c" fill-opacity="0.25" fill-rule="nonzero" group-id="12" node-id="292" stroke="none" target-height="5.799988" target-width="8.299988" target-x="756.8" target-y="494.6"></path></g><g node-id="366"><path d="M 762.80 503.90 L 753.60 497.80 L 753.90 497.50 L 762.80 503.60 L 762.80 503.90 Z" fill="#0c0c0c" fill-opacity="0.25" fill-rule="nonzero" group-id="13" node-id="297" stroke="none" target-height="6.399994" target-width="9.200012" target-x="753.6" target-y="497.5"></path></g><g node-id="367"><path d="M 760.30 507.80 L 753.00 502.90 L 752.90 502.60 L 753.20 502.60 L 760.20 507.50 L 760.20 507.70 Z" fill="#0c0c0c" fill-opacity="0.25" fill-rule="nonzero" group-id="14" node-id="302" stroke="none" target-height="5.1999817" target-width="7.3999634" target-x="752.9" target-y="502.6"></path></g><path d="M 783.30 503.20 L 807.10 543.90 L 836.30 505.70 L 860.40 527.50 L 817.00 583.50 L 814.90 585.30 L 812.50 586.70 L 809.90 587.60 L 807.20 588.10 L 804.30 588.20 L 801.50 587.70 L 798.90 586.80 L 796.40 585.50 L 794.30 583.80 L 792.40 581.80 L 757.00 517.90 L 783.30 503.20 Z" fill="#367cff" fill-rule="nonzero" node-id="305" stroke="none" target-height="85" target-width="103.400024" target-x="757" target-y="503.2"></path><path d="M 809.50 548.80 L 809.70 548.40 L 807.40 543.80 L 807.00 543.70 L 806.90 544.10 L 809.50 548.80 Z" fill="#0c0c0c" fill-rule="nonzero" node-id="307" stroke="none" target-height="5.0999756" target-width="2.7999878" target-x="806.9" target-y="543.7"></path><path d="M 915.30 452.70 L 916.70 465.10 L 917.90 471.00 L 919.70 475.30 L 925.00 485.00 L 927.70 492.40 L 928.30 495.50 L 928.20 501.00 L 927.60 503.60 L 926.50 506.00 L 924.90 508.50 L 922.80 510.80 L 919.20 513.10 L 916.10 514.10 L 911.20 515.30 L 905.10 516.20 L 898.60 516.70 L 891.60 516.80 L 884.50 516.50 L 872.80 515.00 L 864.50 512.80 L 860.60 511.30 L 857.30 509.60 L 854.60 507.80 L 852.70 506.10 L 850.20 502.40 L 849.50 500.40 L 848.60 495.50 L 848.40 491.70 L 848.70 488.30 L 850.30 482.70 L 853.70 474.50 L 854.70 471.40 L 858.60 447.60" fill="#0a0a0a" fill-rule="nonzero" node-id="309" stroke="none" target-height="69.19998" target-width="79.89996" target-x="848.4" target-y="447.6"></path><g node-id="368"><path d="M 864.60 497.10 L 865.50 501.00 L 866.50 503.70 L 868.00 506.30 L 870.20 509.00 L 872.00 510.60 L 877.00 513.20 L 879.90 514.00 L 883.40 514.40 L 887.80 514.30 L 890.80 513.90 L 895.80 512.10 L 899.00 510.10 L 901.60 507.80 L 905.60 502.80 L 908.70 497.10 L 903.60 495.90 L 901.10 494.40 L 898.90 492.30 L 898.10 490.70 L 897.50 488.60 L 897.30 484.90 L 897.60 469.50 L 874.30 474.70 L 874.80 483.40 L 874.70 486.70 L 874.20 489.80 L 873.10 492.50 L 872.10 494.10 L 870.70 495.20 L 868.90 496.00 L 864.60 497.10 Z" fill="#ff9e85" fill-rule="nonzero" group-id="15" node-id="312" stroke="none" target-height="44.900024" target-width="44.100037" target-x="864.6" target-y="469.5"></path></g><g node-id="369"><path d="M 873.90 490.60 L 874.60 487.00 L 874.80 482.80 L 874.50 478.60 L 878.00 477.90 L 881.30 476.70 L 884.50 475.10 L 887.40 473.00 L 890.00 481.10 L 889.90 482.00 L 889.00 483.50 L 887.10 485.50 L 884.70 487.30 L 881.60 489.00 L 879.30 489.90 L 873.90 490.70 Z" fill="#0c0c0c" fill-opacity="0.22" fill-rule="nonzero" group-id="16" node-id="316" stroke="none" target-height="17.700012" target-width="16.099976" target-x="873.9" target-y="473"></path></g><path d="M 877.00 484.70 L 880.10 484.80 L 886.10 483.80 L 888.90 482.70 L 891.50 481.10 L 893.80 479.00 L 896.50 475.00 L 902.50 458.30 L 903.00 454.20 L 903.00 450.30 L 902.50 446.70 L 901.40 443.30 L 899.90 440.20 L 897.90 437.60 L 896.10 435.90 L 893.90 434.60 L 891.50 433.50 L 888.70 432.70 L 884.80 432.20 L 881.30 432.20 L 878.10 432.60 L 875.00 433.60 L 872.30 435.10 L 870.00 437.10 L 868.60 438.90 L 866.30 443.60 L 865.50 446.60 L 863.90 456.00 L 863.60 462.30 L 864.10 469.60 L 864.90 473.30 L 866.10 476.60 L 867.20 478.70 L 870.20 482.10 L 872.10 483.30 L 874.30 484.20 L 877.00 484.70 Z" fill="#ff9e85" fill-rule="nonzero" node-id="319" stroke="none" target-height="52.599976" target-width="39.400024" target-x="863.6" target-y="432.2"></path><path d="M 911.70 462.20 L 898.70 465.80 L 897.30 464.90 L 894.90 462.20 L 893.60 459.60 L 892.70 456.60 L 891.60 450.50 L 891.20 443.60 L 887.20 446.10 L 883.50 447.50 L 877.50 448.80 L 869.30 449.10 L 864.40 448.60 L 858.60 447.50 L 859.80 443.00 L 862.70 436.60 L 865.10 433.10 L 867.10 431.00 L 872.10 427.20 L 875.00 425.80 L 878.50 424.80 L 882.60 424.10 L 886.70 424.00 L 891.60 424.50 L 897.30 425.80 L 902.50 428.00 L 907.00 431.60 L 909.60 434.60 L 911.70 438.00 L 913.40 442.00 L 914.60 446.20 L 915.20 450.70 L 915.20 455.70 L 914.80 459.20 L 913.70 462.40 L 912.60 462.90 L 911.70 462.20 Z" fill="#0a0a0a" fill-rule="nonzero" node-id="321" stroke="none" target-height="41.799988" target-width="56.600037" target-x="858.6" target-y="424"></path><path d="M 899.00 473.00 L 902.40 473.00 L 904.00 472.30 L 905.30 471.20 L 906.40 469.50 L 907.10 467.10 L 907.10 465.40 L 906.70 463.90 L 905.80 462.60 L 903.10 460.80 L 901.40 460.30 L 899.20 462.30 L 896.00 472.40 Z" fill="#ff9e85" fill-rule="nonzero" node-id="323" stroke="none" target-height="12.700012" target-width="11.099976" target-x="896" target-y="460.3"></path><path d="M 896.90 455.60 L 895.00 459.80 L 894.60 461.60 L 895.70 463.30 L 897.30 465.00 L 898.70 465.80 L 899.40 465.60 L 900.40 461.70 L 901.30 460.70 L 903.90 461.00 L 906.30 462.70 L 906.10 457.90" fill="#0a0a0a" fill-rule="nonzero" node-id="325" stroke="none" target-height="10.199982" target-width="11.700012" target-x="894.6" target-y="455.6"></path><path d="M 837.20 538.40 L 841.90 606.90 L 933.10 606.90 L 936.90 551.40 L 937.90 541.10 L 941.10 521.30 L 941.70 514.70 L 941.40 512.60 L 940.70 511.00 L 939.50 509.00 L 936.20 505.50 L 933.20 503.30 L 926.40 499.80 L 922.90 498.60 L 916.20 497.10 L 903.70 495.90 L 903.20 498.60 L 901.60 502.40 L 900.10 504.40 L 898.10 506.20 L 895.40 507.80 L 893.40 508.60 L 888.00 509.50 L 880.60 509.10 L 878.00 508.50 L 873.70 506.40 L 872.30 505.10 L 870.60 503.00 L 869.50 501.00 L 868.90 498.90 L 868.60 495.90 L 859.00 496.90 L 845.80 499.20 L 841.50 500.80 L 837.50 504.00 L 835.30 507.50 L 834.50 510.00 L 834.10 512.90 L 834.10 516.00 L 837.20 538.40 Z" fill="#367cff" fill-rule="nonzero" node-id="327" stroke="none" target-height="111.00003" target-width="107.60004" target-x="834.1" target-y="495.9"></path><path d="M 836.50 578.10 L 837.00 576.90 L 838.20 575.90 L 835.70 575.20 L 834.70 574.00 L 834.80 572.40 L 835.30 571.80 L 836.70 571.10 L 835.30 570.70 L 834.70 570.20 L 834.20 568.80 L 834.50 567.90 L 835.10 567.20 L 835.90 566.80 L 838.60 567.10 L 837.50 566.10 L 837.40 564.70 L 837.70 563.90 L 839.30 563.30 L 850.10 565.30 L 847.10 563.00 L 846.80 561.40 L 847.70 560.00 L 849.40 559.70 L 850.20 560.00 L 863.00 569.40 L 864.40 570.80 L 865.30 572.30 L 865.90 574.00 L 865.90 575.80 L 865.60 577.50 L 864.70 579.30 L 863.30 581.00 L 861.60 582.30 L 857.70 583.80 L 855.60 584.00 L 838.30 580.40 L 837.00 579.50 L 836.50 578.10 Z" fill="#ff9e85" fill-rule="nonzero" node-id="329" stroke="none" target-height="24.299988" target-width="31.700012" target-x="834.2" target-y="559.7"></path><g node-id="370"><path d="M 848.30 569.10 L 848.10 569.30 L 838.50 567.20 L 838.80 567.00 L 848.30 569.10 Z" fill="#0c0c0c" fill-opacity="0.25" fill-rule="nonzero" group-id="17" node-id="333" stroke="none" target-height="2.2999878" target-width="9.799988" target-x="838.5" target-y="567"></path></g><g node-id="371"><path d="M 847.60 573.30 L 836.80 571.30 L 836.70 571.10 L 847.60 573.30 Z" fill="#0c0c0c" fill-opacity="0.25" fill-rule="nonzero" group-id="18" node-id="338" stroke="none" target-height="2.2000122" target-width="10.899963" target-x="836.7" target-y="571.1"></path></g><g node-id="372"><path d="M 846.80 577.90 L 838.20 576.30 L 838.00 576.10 L 846.70 577.60 L 846.80 577.90 Z" fill="#0c0c0c" fill-opacity="0.25" fill-rule="nonzero" group-id="19" node-id="343" stroke="none" target-height="1.8000488" target-width="8.799988" target-x="838" target-y="576.1"></path></g><g node-id="373"><path d="M 854.30 589.70 L 936.30 604.50 L 938.10 604.60 L 942.90 603.90 L 947.20 601.90 L 949.10 600.40 L 952.30 596.70 L 953.40 594.60 L 954.60 590.00 L 954.50 585.20 L 943.00 517.00 L 942.20 514.00 L 941.00 511.40 L 939.40 509.10 L 937.30 507.10 L 935.10 505.40 L 932.50 504.20 L 929.70 503.40 L 926.90 503.10 L 923.80 503.30 L 920.90 504.10 L 918.20 505.30 L 915.90 507.00 L 913.90 509.00 L 912.30 511.30 L 911.00 513.90 L 910.20 516.60 L 909.90 519.50 L 910.20 522.50 L 918.00 569.50 L 857.90 561.90 L 854.30 589.70 Z" fill="#619eff" fill-rule="nonzero" group-id="20" node-id="347" stroke="none" target-height="101.49997" target-width="100.29999" target-x="854.3" target-y="503.1"></path></g><path d="M 837.30 543.70 L 837.90 543.60 L 838.70 556.50 L 838.10 556.50 Z" fill="#0c0c0c" fill-rule="nonzero" group-id="21" node-id="352" stroke="none" target-height="12.900024" target-width="1.4000244" target-x="837.3" target-y="543.6"></path></svg>