<?xml version="1.0" standalone="no"?><!DOCTYPE svg PUBLIC "-//W3C//DTD SVG 1.1//EN" "http://www.w3.org/Graphics/SVG/1.1/DTD/svg11.dtd"><svg height="1024" node-id="1" sillyvg="true" template-height="1024" template-width="1024" version="1.1" viewBox="0 0 1024 1024" width="1024" xmlns="http://www.w3.org/2000/svg" xmlns:xlink="http://www.w3.org/1999/xlink"><defs node-id="64"></defs><path d="M 93.20 917.50 L 93.50 922.10 L 94.40 926.40 L 95.80 930.50 L 97.80 934.40 L 100.10 937.90 L 103.00 941.10 L 106.20 943.90 L 109.70 946.30 L 113.60 948.30 L 117.70 949.70 L 122.00 950.60 L 126.60 950.90 L 131.20 950.60 L 135.50 949.70 L 139.60 948.30 L 143.50 946.30 L 147.00 944.00 L 150.20 941.10 L 153.10 937.90 L 155.40 934.40 L 157.40 930.50 L 158.80 926.40 L 159.70 922.10 L 160.00 917.50 L 159.70 912.90 L 158.80 908.60 L 157.40 904.50 L 155.40 900.60 L 153.10 897.10 L 150.20 893.90 L 147.00 891.00 L 143.50 888.70 L 139.60 886.70 L 135.50 885.30 L 131.20 884.40 L 126.60 884.10 L 126.60 917.50 L 93.20 917.50 Z" fill="#a1d7ff" fill-rule="nonzero" node-id="68" stroke="none" target-height="66.80005" target-width="66.8" target-x="93.2" target-y="884.1"></path><path d="M 120.90 877.60 L 120.90 911.00 L 87.60 911.00 L 87.90 906.40 L 88.80 902.10 L 90.20 898.00 L 92.10 894.10 L 94.50 890.60 L 97.30 887.40 L 100.50 884.60 L 104.00 882.20 L 107.90 880.20 L 112.00 878.80 L 116.30 877.90 L 120.90 877.60 Z" fill="#6bbfff" fill-rule="nonzero" node-id="70" stroke="none" target-height="33.400024" target-width="33.300003" target-x="87.6" target-y="877.6"></path><g node-id="197"><path d="M 757.30 681.00 L 716.40 675.80 L 712.80 665.60 L 708.70 655.60 L 704.00 645.90 L 729.30 613.30 L 731.60 609.90 L 733.50 606.30 L 734.80 602.60 L 735.70 598.70 L 736.20 594.90 L 736.20 591.00 L 735.70 587.20 L 734.80 583.50 L 733.40 579.80 L 731.60 576.40 L 729.30 573.20 L 726.60 570.20 L 692.30 535.90 L 689.20 533.10 L 686.00 530.90 L 682.50 529.10 L 678.80 527.70 L 675.10 526.70 L 671.20 526.30 L 667.40 526.20 L 663.50 526.70 L 659.70 527.60 L 656.00 528.90 L 652.50 530.80 L 649.10 533.10 L 616.60 558.40 L 606.90 553.70 L 596.90 549.60 L 586.70 546.00 L 581.50 505.10 L 580.70 501.00 L 579.50 497.30 L 577.90 493.70 L 575.90 490.40 L 573.50 487.30 L 570.70 484.60 L 567.70 482.20 L 564.40 480.20 L 560.80 478.50 L 557.10 477.30 L 553.20 476.60 L 549.10 476.30 L 500.30 476.30 L 496.20 476.60 L 492.30 477.30 L 488.60 478.50 L 485.00 480.10 L 481.70 482.10 L 478.70 484.50 L 476.00 487.20 L 473.60 490.30 L 471.60 493.60 L 469.90 497.20 L 468.80 500.90 L 468.00 505.00 L 462.80 545.90 L 452.60 549.50 L 442.60 553.60 L 432.90 558.30 L 400.30 533.00 L 396.90 530.70 L 393.30 528.80 L 389.60 527.50 L 385.80 526.60 L 381.90 526.10 L 378.10 526.10 L 374.20 526.60 L 370.50 527.50 L 366.90 528.90 L 363.40 530.70 L 360.20 533.00 L 322.90 570.00 L 320.10 573.10 L 317.90 576.30 L 316.10 579.80 L 314.70 583.50 L 313.70 587.20 L 313.30 591.10 L 313.20 594.90 L 313.70 598.80 L 314.60 602.60 L 315.90 606.30 L 317.80 609.80 L 320.10 613.20 L 345.40 645.70 L 340.70 655.40 L 336.60 665.40 L 333.00 675.60 L 292.20 680.80 L 288.10 681.60 L 284.40 682.80 L 280.80 684.40 L 277.50 686.40 L 274.40 688.80 L 271.70 691.60 L 269.30 694.60 L 267.30 697.90 L 265.70 701.50 L 264.50 705.20 L 263.80 709.10 L 263.50 713.20 L 263.50 762.00 L 263.80 766.10 L 264.50 770.00 L 265.70 773.70 L 267.30 777.30 L 269.30 780.60 L 271.70 783.60 L 274.40 786.40 L 277.50 788.80 L 280.80 790.80 L 284.40 792.40 L 288.10 793.60 L 292.20 794.40 L 333.10 799.60 L 336.70 809.80 L 340.80 819.80 L 345.50 829.50 L 320.20 862.10 L 317.90 865.50 L 316.00 869.10 L 314.70 872.80 L 313.80 876.70 L 313.30 880.50 L 313.30 884.40 L 313.80 888.20 L 314.70 891.90 L 316.10 895.60 L 317.90 899.00 L 320.20 902.20 L 322.90 905.20 L 357.20 939.50 L 360.30 942.30 L 363.50 944.50 L 367.00 946.30 L 370.70 947.70 L 374.40 948.70 L 378.30 949.10 L 382.10 949.20 L 386.00 948.70 L 389.80 947.80 L 393.50 946.40 L 397.00 944.60 L 400.40 942.20 L 433.00 916.90 L 442.70 921.60 L 452.70 925.70 L 462.90 929.30 L 468.10 970.10 L 468.90 974.20 L 470.00 977.90 L 471.70 981.50 L 473.70 984.80 L 476.10 987.90 L 478.80 990.60 L 481.90 993.00 L 485.10 995.00 L 488.70 996.70 L 492.50 997.90 L 496.40 998.60 L 500.50 998.90 L 549.30 998.90 L 553.40 998.60 L 557.30 997.90 L 561.00 996.70 L 564.60 995.10 L 567.90 993.10 L 570.90 990.70 L 573.70 988.00 L 576.10 984.90 L 578.10 981.60 L 579.70 978.00 L 580.90 974.30 L 581.70 970.20 L 586.90 929.30 L 597.10 925.70 L 607.10 921.60 L 616.80 916.90 L 649.30 942.20 L 652.70 944.50 L 656.30 946.40 L 660.00 947.70 L 663.90 948.60 L 667.70 949.10 L 671.60 949.10 L 675.40 948.60 L 679.10 947.70 L 682.80 946.30 L 686.20 944.50 L 689.40 942.20 L 726.70 905.20 L 729.50 902.10 L 731.70 898.90 L 733.60 895.40 L 734.90 891.70 L 735.90 888.00 L 736.40 884.10 L 736.40 880.30 L 735.90 876.40 L 735.00 872.60 L 733.70 868.90 L 731.80 865.40 L 729.50 862.00 L 704.00 829.60 L 708.70 819.90 L 712.80 809.90 L 716.40 799.70 L 757.20 794.50 L 761.30 793.80 L 765.00 792.60 L 768.60 791.00 L 771.90 788.90 L 775.00 786.60 L 777.70 783.80 L 780.10 780.80 L 782.10 777.50 L 783.80 773.90 L 785.00 770.20 L 785.70 766.20 L 786.00 762.10 L 786.00 713.30 L 785.70 709.20 L 785.00 705.30 L 783.80 701.60 L 782.20 698.10 L 780.20 694.80 L 777.80 691.80 L 775.10 689.00 L 772.00 686.60 L 768.70 684.60 L 765.10 683.00 L 761.40 681.80 L 757.30 681.00 Z M 524.70 846.60 L 517.20 846.30 L 509.90 845.60 L 502.70 844.40 L 495.80 842.70 L 488.90 840.60 L 482.30 838.00 L 475.90 835.10 L 469.80 831.70 L 463.80 828.00 L 458.20 823.90 L 452.80 819.50 L 447.70 814.70 L 442.90 809.60 L 438.50 804.30 L 434.40 798.60 L 430.70 792.70 L 427.30 786.50 L 424.40 780.10 L 421.80 773.50 L 419.70 766.70 L 418.00 759.70 L 416.80 752.60 L 416.10 745.20 L 415.80 737.70 L 416.10 730.20 L 416.80 722.90 L 418.00 715.70 L 419.70 708.80 L 421.80 701.90 L 424.40 695.30 L 427.30 688.90 L 430.70 682.80 L 434.40 676.80 L 438.50 671.20 L 442.90 665.80 L 447.70 660.70 L 452.80 655.90 L 458.10 651.50 L 463.80 647.40 L 469.70 643.70 L 475.90 640.30 L 482.30 637.40 L 488.90 634.80 L 495.70 632.70 L 502.70 631.00 L 509.80 629.80 L 517.20 629.10 L 524.70 628.80 L 532.20 629.10 L 539.60 629.80 L 546.70 631.00 L 553.70 632.70 L 560.50 634.80 L 567.10 637.40 L 573.50 640.30 L 579.70 643.70 L 585.60 647.40 L 591.30 651.50 L 596.60 655.90 L 601.70 660.70 L 606.50 665.80 L 610.90 671.10 L 615.00 676.80 L 618.70 682.70 L 622.10 688.90 L 625.00 695.30 L 627.60 701.90 L 629.70 708.70 L 631.40 715.70 L 632.60 722.80 L 633.30 730.20 L 633.60 737.70 L 633.30 745.20 L 632.60 752.50 L 631.40 759.70 L 629.70 766.60 L 627.50 773.50 L 625.00 780.10 L 622.00 786.50 L 618.70 792.60 L 614.90 798.60 L 610.80 804.20 L 606.40 809.60 L 601.70 814.60 L 596.60 819.40 L 591.20 823.80 L 585.60 827.90 L 579.60 831.70 L 573.50 835.00 L 567.10 838.00 L 560.50 840.50 L 553.60 842.70 L 546.70 844.40 L 539.50 845.60 L 532.20 846.30 L 524.70 846.60 Z" fill="#d7e7ff" fill-opacity="0.2" fill-rule="nonzero" group-id="1" node-id="74" stroke="none" target-height="522.60004" target-width="522.5" target-x="263.5" target-y="476.3"></path><path d="M 601.70 737.80 L 601.40 744.20 L 600.70 750.40 L 599.50 756.30 L 597.80 762.10 L 595.60 767.80 L 593.10 773.20 L 590.20 778.40 L 586.80 783.30 L 583.10 787.90 L 579.10 792.20 L 574.80 796.20 L 570.20 799.90 L 565.30 803.30 L 560.10 806.20 L 554.70 808.70 L 549.00 810.90 L 543.20 812.60 L 537.30 813.80 L 531.10 814.50 L 524.70 814.80 L 518.30 814.50 L 512.10 813.80 L 506.20 812.60 L 500.40 810.90 L 494.70 808.70 L 489.30 806.20 L 484.10 803.30 L 479.20 799.90 L 474.60 796.20 L 470.30 792.20 L 466.30 787.90 L 462.60 783.30 L 459.20 778.40 L 456.30 773.20 L 453.80 767.80 L 451.60 762.10 L 449.90 756.30 L 448.70 750.40 L 448.00 744.20 L 447.70 737.80 L 448.00 731.40 L 448.70 725.20 L 449.90 719.30 L 451.60 713.50 L 453.80 707.80 L 456.30 702.40 L 459.20 697.20 L 462.60 692.30 L 466.30 687.70 L 470.30 683.40 L 474.60 679.40 L 479.20 675.70 L 484.10 672.30 L 489.30 669.40 L 494.70 666.90 L 500.40 664.70 L 506.20 663.00 L 512.10 661.80 L 518.30 661.10 L 524.70 660.80 L 531.10 661.10 L 537.30 661.80 L 543.20 663.00 L 549.00 664.70 L 554.70 666.90 L 560.10 669.40 L 565.30 672.30 L 570.20 675.70 L 574.80 679.40 L 579.10 683.40 L 583.10 687.70 L 586.80 692.30 L 590.20 697.20 L 593.10 702.40 L 595.60 707.80 L 597.80 713.50 L 599.50 719.30 L 600.70 725.20 L 601.40 731.40 L 601.70 737.80 Z" fill="#d7e7ff" fill-opacity="0.2" fill-rule="nonzero" group-id="1" node-id="76" stroke="none" target-height="154" target-width="154" target-x="447.7" target-y="660.8"></path></g><path d="M 917.50 280.10 L 878.90 275.20 L 875.50 265.60 L 871.60 256.20 L 867.20 247.00 L 891.00 216.30 L 893.20 213.10 L 894.90 209.80 L 896.20 206.30 L 897.10 202.80 L 897.50 199.20 L 897.50 195.50 L 897.10 191.90 L 896.20 188.40 L 894.90 184.90 L 893.20 181.70 L 891.10 178.60 L 888.50 175.70 L 853.30 140.80 L 850.20 138.70 L 847.00 136.90 L 843.50 135.60 L 840.00 134.80 L 836.30 134.30 L 832.70 134.30 L 829.00 134.70 L 825.40 135.60 L 822.00 136.80 L 818.60 138.60 L 784.70 164.60 L 775.50 160.20 L 766.10 156.30 L 756.50 152.90 L 751.60 114.40 L 750.90 110.60 L 749.80 107.00 L 748.30 103.60 L 746.30 100.50 L 744.10 97.60 L 741.50 95.00 L 738.60 92.80 L 735.50 90.90 L 732.20 89.40 L 728.60 88.20 L 725.00 87.50 L 721.10 87.30 L 675.10 87.30 L 671.20 87.50 L 667.60 88.20 L 664.10 89.40 L 660.70 90.90 L 657.60 92.80 L 654.80 95.00 L 652.20 97.60 L 649.90 100.40 L 648.00 103.60 L 646.40 106.90 L 645.30 110.50 L 644.60 114.30 L 639.70 152.90 L 630.10 156.30 L 620.70 160.20 L 611.50 164.60 L 577.60 138.60 L 574.30 136.90 L 570.80 135.60 L 567.30 134.70 L 563.70 134.30 L 560.00 134.30 L 556.40 134.80 L 552.90 135.60 L 549.40 136.90 L 546.20 138.60 L 543.10 140.70 L 540.20 143.30 L 507.80 175.60 L 505.20 178.50 L 503.10 181.60 L 501.30 184.80 L 500.00 188.30 L 499.20 191.80 L 498.70 195.50 L 498.70 199.10 L 499.10 202.80 L 500.00 206.40 L 501.20 209.80 L 503.00 213.20 L 505.20 216.40 L 529.00 247.10 L 524.60 256.30 L 520.70 265.70 L 517.30 275.30 L 475.00 280.90 L 471.40 282.00 L 468.00 283.50 L 464.90 285.50 L 462.00 287.70 L 459.40 290.30 L 457.20 293.10 L 455.30 296.20 L 453.80 299.60 L 452.60 303.10 L 451.90 306.80 L 451.70 310.70 L 451.70 356.70 L 451.90 360.60 L 452.60 364.20 L 453.80 367.70 L 455.30 371.10 L 457.20 374.20 L 459.40 377.10 L 462.00 379.60 L 464.80 381.90 L 468.00 383.80 L 471.30 385.40 L 474.90 386.50 L 478.70 387.20 L 517.30 392.10 L 520.70 401.70 L 524.60 411.10 L 529.00 420.30 L 503.00 454.20 L 501.30 457.50 L 500.00 461.00 L 499.10 464.50 L 498.70 468.10 L 498.70 471.80 L 499.10 475.40 L 500.00 478.90 L 501.30 482.40 L 503.00 485.60 L 505.10 488.70 L 540.00 523.90 L 542.90 526.50 L 546.00 528.60 L 549.20 530.30 L 552.70 531.60 L 556.20 532.50 L 559.90 533.00 L 563.50 533.00 L 567.20 532.60 L 570.80 531.70 L 574.20 530.40 L 577.60 528.70 L 580.80 526.50 L 611.50 502.60 L 620.70 507.00 L 630.10 510.90 L 639.70 514.30 L 644.60 552.80 L 645.30 556.60 L 646.40 560.20 L 647.90 563.60 L 649.90 566.70 L 652.10 569.60 L 654.70 572.20 L 657.50 574.40 L 660.60 576.30 L 664.00 577.80 L 667.50 579.00 L 671.20 579.70 L 675.10 579.90 L 721.10 579.90 L 725.00 579.70 L 728.60 579.00 L 732.10 577.80 L 735.50 576.30 L 738.60 574.40 L 741.50 572.20 L 744.00 569.60 L 746.30 566.80 L 748.20 563.60 L 749.80 560.30 L 750.90 556.70 L 751.60 552.90 L 756.50 514.30 L 766.10 510.90 L 775.50 507.00 L 784.70 502.60 L 818.60 528.60 L 821.90 530.30 L 825.40 531.60 L 828.90 532.50 L 832.50 532.90 L 836.20 532.90 L 839.80 532.40 L 843.30 531.50 L 846.80 530.20 L 850.00 528.50 L 853.10 526.40 L 856.00 523.80 L 890.90 488.60 L 893.00 485.50 L 894.80 482.30 L 896.10 478.80 L 896.90 475.30 L 897.40 471.60 L 897.40 468.00 L 897.00 464.30 L 896.10 460.70 L 894.90 457.30 L 893.10 453.90 L 890.90 450.70 L 867.10 420.00 L 871.50 410.80 L 875.40 401.40 L 878.80 391.80 L 917.30 386.90 L 921.10 386.20 L 924.70 385.10 L 928.10 383.60 L 931.20 381.60 L 934.10 379.40 L 936.70 376.80 L 938.90 374.00 L 940.80 370.90 L 942.30 367.50 L 943.50 364.00 L 944.20 360.30 L 944.40 356.40 L 944.40 310.40 L 944.20 306.60 L 943.50 302.90 L 942.40 299.40 L 940.90 296.10 L 939.00 293.00 L 936.80 290.20 L 934.20 287.60 L 931.40 285.30 L 928.20 283.40 L 924.90 281.90 L 921.30 280.80 L 917.50 280.10 Z M 698.10 436.20 L 691.30 436.00 L 684.60 435.30 L 678.10 434.30 L 671.80 432.80 L 665.60 431.00 L 658.10 428.10 L 650.90 424.70 L 644.00 420.80 L 637.50 416.40 L 631.30 411.50 L 625.50 406.10 L 620.10 400.30 L 615.20 394.10 L 610.80 387.60 L 606.90 380.70 L 603.50 373.50 L 600.60 366.00 L 598.80 359.80 L 597.30 353.50 L 596.30 347.00 L 595.60 340.30 L 595.40 333.50 L 595.60 326.70 L 596.30 320.00 L 597.30 313.50 L 598.80 307.20 L 600.60 301.00 L 603.50 293.50 L 606.90 286.30 L 610.80 279.40 L 615.20 272.90 L 620.10 266.70 L 625.50 260.90 L 631.30 255.50 L 637.50 250.60 L 644.00 246.20 L 650.90 242.30 L 658.10 238.90 L 665.60 236.00 L 671.80 234.20 L 678.10 232.70 L 684.60 231.70 L 691.30 231.00 L 698.10 230.80 L 704.90 231.00 L 711.60 231.70 L 718.10 232.70 L 724.40 234.20 L 730.60 236.00 L 738.10 238.90 L 745.30 242.30 L 752.20 246.20 L 758.70 250.60 L 764.90 255.50 L 770.70 260.90 L 776.10 266.70 L 781.00 272.90 L 785.40 279.40 L 789.30 286.30 L 792.70 293.50 L 795.60 301.00 L 797.40 307.20 L 798.90 313.50 L 799.90 320.00 L 800.60 326.70 L 800.80 333.50 L 800.60 340.40 L 799.90 347.00 L 798.80 353.50 L 797.40 359.80 L 795.50 366.00 L 792.70 373.60 L 789.30 380.80 L 785.40 387.60 L 780.90 394.20 L 776.00 400.40 L 770.70 406.20 L 764.90 411.50 L 758.70 416.40 L 752.20 420.80 L 745.30 424.70 L 738.10 428.10 L 730.50 431.00 L 724.40 432.80 L 718.10 434.30 L 711.60 435.30 L 704.90 436.00 L 698.10 436.20 Z" fill="#f3f7ff" fill-rule="nonzero" node-id="79" stroke="none" target-height="492.60004" target-width="492.7" target-x="451.7" target-y="87.3"></path><path d="M 770.70 333.60 L 770.40 339.60 L 769.70 345.40 L 768.60 351.10 L 767.00 356.50 L 765.00 361.90 L 762.60 367.00 L 759.80 371.80 L 756.70 376.50 L 753.20 380.90 L 749.40 384.90 L 745.40 388.70 L 741.00 392.20 L 736.30 395.30 L 731.50 398.10 L 726.40 400.50 L 721.00 402.50 L 715.60 404.10 L 709.90 405.20 L 704.10 405.90 L 698.10 406.20 L 692.10 405.90 L 686.30 405.20 L 680.60 404.10 L 675.20 402.50 L 669.80 400.50 L 664.70 398.10 L 659.90 395.30 L 655.20 392.20 L 650.80 388.70 L 646.80 384.90 L 643.00 380.90 L 639.50 376.50 L 636.40 371.80 L 633.60 367.00 L 631.20 361.90 L 629.20 356.50 L 627.60 351.10 L 626.50 345.40 L 625.80 339.60 L 625.50 333.60 L 625.80 327.60 L 626.50 321.80 L 627.60 316.10 L 629.20 310.70 L 631.20 305.30 L 633.60 300.20 L 636.40 295.40 L 639.50 290.70 L 643.00 286.30 L 646.80 282.30 L 650.80 278.50 L 655.20 275.00 L 659.90 271.90 L 664.70 269.10 L 669.80 266.70 L 675.20 264.70 L 680.60 263.10 L 686.30 262.00 L 692.10 261.30 L 698.10 261.00 L 704.10 261.30 L 709.90 262.00 L 715.60 263.10 L 721.00 264.70 L 726.40 266.70 L 731.50 269.10 L 736.30 271.90 L 741.00 275.00 L 745.40 278.50 L 749.40 282.30 L 753.20 286.30 L 756.70 290.70 L 759.80 295.40 L 762.60 300.20 L 765.00 305.30 L 767.00 310.70 L 768.60 316.10 L 769.70 321.80 L 770.40 327.60 L 770.70 333.60 Z" fill="#f3f7ff" fill-rule="nonzero" node-id="81" stroke="none" target-height="145.20001" target-width="145.20001" target-x="625.5" target-y="261"></path><path d="M 876.90 360.00 L 876.90 769.00 L 876.70 774.00 L 876.00 778.70 L 875.00 783.20 L 873.60 787.60 L 871.70 791.80 L 867.20 799.40 L 864.50 802.80 L 861.40 805.90 L 858.20 808.60 L 854.70 810.90 L 851.00 813.00 L 847.20 814.60 L 843.10 815.70 L 839.00 816.40 L 834.60 816.70 L 144.10 816.70 L 139.70 816.40 L 135.50 815.70 L 131.50 814.60 L 127.60 812.90 L 123.90 810.90 L 120.50 808.60 L 117.20 805.80 L 114.20 802.70 L 111.50 799.30 L 109.00 795.70 L 106.90 791.80 L 105.10 787.50 L 103.70 783.20 L 102.70 778.70 L 102.00 774.00 L 101.80 769.00 L 101.80 360.00 L 876.90 360.00 Z" fill="#bad6f7" fill-rule="nonzero" node-id="83" stroke="none" target-height="456.7" target-width="775.10004" target-x="101.8" target-y="360"></path><path d="M 109.70 305.00 L 869.00 305.00 L 871.10 305.30 L 873.00 306.10 L 874.60 307.30 L 875.80 308.90 L 876.60 310.80 L 876.90 312.90 L 876.90 360.00 L 101.80 360.00 L 101.80 312.90 L 102.00 310.80 L 102.80 308.90 L 104.10 307.30 L 105.70 306.10 L 107.60 305.30 L 109.70 305.00 Z" fill="#253369" fill-rule="nonzero" node-id="85" stroke="none" target-height="55" target-width="775.10004" target-x="101.8" target-y="305"></path><path d="M 142.90 417.00 L 263.30 417.00 L 263.30 537.40 L 142.90 537.40 Z" fill="#ffffff" fill-rule="nonzero" node-id="87" stroke="none" target-height="120.400024" target-width="120.399994" target-x="142.9" target-y="417"></path><path d="M 155.00 527.20 L 253.60 527.20 L 220.80 465.30 L 193.40 506.90 L 177.10 485.00 Z" fill="#6bbfff" fill-rule="nonzero" node-id="89" stroke="none" target-height="61.900024" target-width="98.600006" target-x="155" target-y="465.3"></path><path d="M 191.10 450.50 L 190.40 454.20 L 189.70 455.80 L 187.40 458.60 L 184.30 460.40 L 180.60 461.10 L 176.90 460.40 L 175.30 459.70 L 172.50 457.40 L 170.70 454.30 L 170.00 450.60 L 170.70 446.90 L 171.40 445.30 L 173.70 442.50 L 176.80 440.70 L 180.50 440.00 L 184.20 440.70 L 187.40 442.50 L 189.70 445.20 L 190.40 446.80 L 191.10 450.50 Z" fill="#faa632" fill-rule="nonzero" node-id="91" stroke="none" target-height="21.100006" target-width="21.100006" target-x="170" target-y="440"></path><path d="M 299.60 440.40 L 519.30 440.40 L 519.30 447.70 L 299.60 447.70 Z" fill="#ffffff" fill-rule="nonzero" node-id="93" stroke="none" target-height="7.3000183" target-width="219.69998" target-x="299.6" target-y="440.4"></path><path d="M 299.60 469.70 L 445.30 469.70 L 445.30 477.00 L 299.60 477.00 Z" fill="#ffffff" fill-rule="nonzero" node-id="95" stroke="none" target-height="7.299988" target-width="145.69998" target-x="299.6" target-y="469.7"></path><path d="M 299.60 505.90 L 519.30 505.90 L 519.30 513.20 L 299.60 513.20 Z" fill="#ffffff" fill-rule="nonzero" node-id="97" stroke="none" target-height="7.3000183" target-width="219.69998" target-x="299.6" target-y="505.9"></path><path d="M 557.30 409.20 L 838.60 409.20 L 838.60 690.50 L 557.30 690.50 Z" fill="#ecf3fe" fill-rule="nonzero" node-id="99" stroke="none" target-height="281.3" target-width="281.3" target-x="557.3" target-y="409.2"></path><path d="M 716.20 675.50 L 715.70 675.00 L 742.00 646.10 L 780.10 646.10 L 780.10 646.90 L 742.30 646.90 Z" fill="#2e688c" fill-rule="nonzero" node-id="101" stroke="none" target-height="29.400024" target-width="64.39996" target-x="715.7" target-y="646.1"></path><path d="M 757.80 482.50 L 725.10 519.30 L 728.20 522.40 L 731.00 525.70 L 733.30 529.30 L 735.30 533.10 L 736.90 537.10 L 738.00 541.20 L 738.70 545.50 L 738.90 549.90 L 738.70 554.10 L 738.10 558.20 L 737.10 562.10 L 733.90 569.50 L 729.50 576.00 L 726.90 578.90 L 724.00 581.50 L 717.50 585.90 L 710.10 589.10 L 706.20 590.10 L 702.10 590.70 L 697.90 590.90 L 693.70 590.70 L 689.60 590.10 L 685.70 589.10 L 682.00 587.70 L 675.00 583.90 L 668.90 578.90 L 663.90 572.80 L 660.10 565.80 L 658.70 562.10 L 657.70 558.20 L 657.10 554.10 L 656.90 549.90 L 657.10 545.70 L 657.70 541.60 L 658.70 537.70 L 660.10 534.00 L 663.90 527.00 L 668.90 520.90 L 675.00 515.90 L 682.00 512.10 L 685.70 510.70 L 689.60 509.70 L 693.70 509.10 L 697.90 508.90 L 697.90 459.70 L 690.40 460.00 L 683.20 460.90 L 676.20 462.30 L 669.40 464.30 L 662.70 466.80 L 656.40 469.80 L 650.40 473.20 L 644.60 477.10 L 639.10 481.40 L 634.10 486.10 L 629.40 491.10 L 625.00 496.60 L 621.10 502.30 L 617.70 508.40 L 614.70 514.70 L 612.20 521.40 L 610.20 528.20 L 608.80 535.20 L 607.90 542.40 L 607.60 549.90 L 607.90 557.40 L 608.80 564.60 L 610.20 571.60 L 612.20 578.40 L 614.70 585.10 L 617.70 591.40 L 621.10 597.40 L 625.00 603.20 L 629.30 608.70 L 634.00 613.70 L 639.00 618.40 L 644.50 622.80 L 650.20 626.70 L 656.30 630.10 L 662.60 633.10 L 669.30 635.60 L 676.10 637.60 L 683.10 639.00 L 690.30 639.90 L 697.80 640.20 L 705.30 639.90 L 712.50 639.00 L 719.60 637.60 L 726.40 635.60 L 733.00 633.10 L 739.30 630.10 L 745.40 626.70 L 751.10 622.80 L 756.60 618.50 L 761.70 613.80 L 766.40 608.80 L 770.70 603.30 L 774.60 597.60 L 778.00 591.50 L 781.00 585.20 L 783.50 578.50 L 785.50 571.70 L 786.90 564.70 L 787.80 557.50 L 788.10 550.00 L 787.90 543.50 L 787.20 537.20 L 786.10 531.00 L 784.50 524.80 L 782.60 518.80 L 780.20 513.00 L 777.40 507.30 L 774.20 501.90 L 770.70 496.60 L 766.80 491.70 L 762.50 487.00 L 757.80 482.50 Z" fill="#2e688c" fill-rule="nonzero" node-id="103" stroke="none" target-height="180.5" target-width="180.5" target-x="607.6" target-y="459.7"></path><path d="M 757.80 482.50 L 725.10 519.30 L 721.20 516.20 L 717.00 513.60 L 712.50 511.50 L 707.80 510.10 L 702.90 509.20 L 697.90 508.90 L 697.90 459.70 L 705.30 460.00 L 712.50 460.80 L 719.60 462.30 L 726.60 464.30 L 733.30 466.90 L 739.90 470.00 L 746.20 473.60 L 752.10 477.80 L 757.80 482.50 Z" fill="#cad5e5" fill-rule="nonzero" node-id="105" stroke="none" target-height="59.599976" target-width="59.899963" target-x="697.9" target-y="459.7"></path><path d="M 653.70 706.60 L 618.00 706.60 L 618.00 705.90 L 653.40 705.90 L 676.50 685.00 L 677.00 685.60 Z" fill="#2e688c" fill-rule="nonzero" node-id="107" stroke="none" target-height="21.599976" target-width="59" target-x="618" target-y="685"></path><path d="M 790.40 646.20 L 790.10 648.00 L 789.50 649.60 L 788.40 650.90 L 787.10 652.00 L 785.50 652.60 L 783.70 652.90 L 781.90 652.60 L 780.30 652.00 L 779.00 650.90 L 777.90 649.60 L 777.30 648.00 L 777.00 646.20 L 777.30 644.40 L 777.90 642.80 L 779.00 641.50 L 780.30 640.40 L 781.90 639.80 L 783.70 639.50 L 785.60 639.80 L 787.10 640.40 L 788.50 641.50 L 789.50 642.80 L 790.20 644.40 L 790.40 646.20 Z" fill="#f28241" fill-rule="nonzero" node-id="109" stroke="none" target-height="13.400024" target-width="13.400024" target-x="777" target-y="639.5"></path><path d="M 621.00 706.20 L 620.70 708.00 L 620.10 709.60 L 619.00 710.90 L 617.70 712.00 L 616.10 712.60 L 614.30 712.90 L 612.50 712.60 L 610.90 712.00 L 609.60 710.90 L 608.50 709.60 L 607.90 708.00 L 607.60 706.20 L 607.90 704.40 L 608.50 702.80 L 609.60 701.50 L 610.90 700.40 L 612.50 699.80 L 614.30 699.50 L 616.20 699.80 L 617.70 700.50 L 619.10 701.50 L 620.10 702.90 L 620.80 704.40 L 621.00 706.20 Z" fill="#f28241" fill-rule="nonzero" node-id="111" stroke="none" target-height="13.400024" target-width="13.400024" target-x="607.6" target-y="699.5"></path><path d="M 177.60 196.70 L 176.80 204.40 L 174.60 211.40 L 172.40 215.80 L 169.70 219.70 L 166.60 223.40 L 162.90 226.50 L 159.00 229.20 L 154.60 231.40 L 147.60 233.60 L 139.90 234.40 L 132.20 233.60 L 125.20 231.40 L 120.80 229.20 L 116.90 226.50 L 113.20 223.40 L 110.10 219.70 L 107.40 215.80 L 105.20 211.40 L 103.00 204.40 L 102.20 196.70 L 103.00 189.00 L 105.20 182.00 L 107.40 177.60 L 110.10 173.70 L 113.20 170.00 L 116.90 166.90 L 120.80 164.20 L 125.20 162.00 L 132.20 159.80 L 139.90 159.00 L 147.60 159.80 L 154.60 162.00 L 159.00 164.20 L 162.90 166.90 L 166.60 170.00 L 169.70 173.70 L 172.40 177.60 L 174.60 182.00 L 176.80 189.00 L 177.60 196.70 Z" fill="#fcbe32" fill-rule="nonzero" node-id="113" stroke="none" target-height="75.399994" target-width="75.40001" target-x="102.2" target-y="159"></path><path d="M 157.80 230.00 L 183.70 237.50 L 175.00 210.70 L 168.80 214.60 L 166.20 216.50 L 161.20 221.40 L 159.40 224.10 L 158.40 226.00 L 157.80 230.00 Z" fill="#fcbe32" fill-rule="nonzero" node-id="115" stroke="none" target-height="26.800003" target-width="25.899994" target-x="157.8" target-y="210.7"></path><path d="M 124.20 198.00 L 123.90 199.60 L 123.00 200.90 L 121.70 201.80 L 120.10 202.10 L 118.50 201.80 L 117.20 200.90 L 116.30 199.60 L 116.00 198.00 L 116.30 196.40 L 117.20 195.10 L 118.50 194.20 L 120.10 193.90 L 121.70 194.20 L 123.00 195.10 L 123.90 196.40 L 124.20 198.00 Z" fill="#ffffff" fill-rule="nonzero" node-id="117" stroke="none" target-height="8.200012" target-width="8.199997" target-x="116" target-y="193.9"></path><path d="M 142.50 198.00 L 142.20 199.60 L 141.30 200.90 L 140.00 201.80 L 138.40 202.10 L 136.80 201.80 L 135.50 200.90 L 134.60 199.60 L 134.30 198.00 L 134.60 196.40 L 135.50 195.10 L 136.80 194.20 L 138.40 193.90 L 140.00 194.20 L 141.30 195.10 L 142.20 196.40 L 142.50 198.00 Z" fill="#ffffff" fill-rule="nonzero" node-id="119" stroke="none" target-height="8.200012" target-width="8.199997" target-x="134.3" target-y="193.9"></path><path d="M 160.80 198.00 L 160.50 199.60 L 159.60 200.90 L 158.30 201.80 L 156.70 202.10 L 155.10 201.80 L 153.80 200.90 L 152.90 199.60 L 152.60 198.00 L 152.90 196.40 L 153.80 195.10 L 155.10 194.20 L 156.70 193.90 L 158.30 194.20 L 159.60 195.10 L 160.50 196.40 L 160.80 198.00 Z" fill="#ffffff" fill-rule="nonzero" node-id="121" stroke="none" target-height="8.200012" target-width="8.199997" target-x="152.6" target-y="193.9"></path><path d="M 687.50 849.00 L 787.00 849.00 L 787.90 849.40 L 788.20 850.20 L 788.20 922.90 L 787.40 924.00 L 687.50 924.10 L 686.60 923.70 L 686.30 922.90 L 686.30 850.20 L 686.70 849.40 L 687.50 849.00 Z" fill="#eef4ff" fill-rule="nonzero" node-id="123" stroke="none" target-height="75.099976" target-width="101.900024" target-x="686.3" target-y="849"></path><path d="M 788.30 861.40 L 788.30 850.30 L 787.90 849.40 L 787.10 849.10 L 687.60 849.10 L 686.70 849.40 L 686.40 850.30 L 686.40 861.40 L 788.30 861.40 Z" fill="#6bbfff" fill-rule="nonzero" node-id="125" stroke="none" target-height="12.300049" target-width="101.89996" target-x="686.4" target-y="849.1"></path><path d="M 693.50 853.50 L 744.50 853.50 L 745.40 853.90 L 745.70 854.70 L 745.60 856.00 L 744.90 856.60 L 693.50 856.70 L 692.60 856.30 L 692.30 855.50 L 692.40 854.30 L 693.50 853.50 Z" fill="#ffffff" fill-rule="nonzero" node-id="127" stroke="none" target-height="3.2000122" target-width="53.400024" target-x="692.3" target-y="853.5"></path><path d="M 770.20 855.20 L 770.00 856.10 L 768.80 857.30 L 767.00 857.30 L 765.80 856.10 L 765.80 854.30 L 767.00 853.10 L 768.80 853.10 L 770.00 854.30 L 770.20 855.20 Z" fill="#ffffff" fill-rule="nonzero" node-id="129" stroke="none" target-height="4.200012" target-width="4.4000244" target-x="765.8" target-y="853.1"></path><path d="M 775.80 855.20 L 775.10 856.80 L 773.50 857.50 L 771.90 856.80 L 771.20 855.20 L 771.90 853.60 L 773.50 852.90 L 775.10 853.60 L 775.80 855.20 Z" fill="#ffffff" fill-rule="nonzero" node-id="131" stroke="none" target-height="4.5999756" target-width="4.5999756" target-x="771.2" target-y="852.9"></path><path d="M 781.50 855.20 L 781.30 856.10 L 780.10 857.30 L 778.30 857.30 L 777.10 856.10 L 777.10 854.30 L 778.30 853.10 L 780.10 853.10 L 781.30 854.30 L 781.50 855.20 Z" fill="#ffffff" fill-rule="nonzero" node-id="133" stroke="none" target-height="4.200012" target-width="4.4000244" target-x="777.1" target-y="853.1"></path><path d="M 748.30 909.30 L 747.60 909.20 L 746.60 908.20 L 746.70 906.70 L 747.30 906.00 L 766.80 892.50 L 747.30 879.70 L 746.80 879.20 L 746.50 877.90 L 746.70 877.30 L 747.80 876.50 L 749.10 876.70 L 771.00 891.00 L 771.60 891.60 L 771.80 892.50 L 771.00 894.00 L 749.30 909.00 L 748.30 909.30 Z" fill="#168cdb" fill-rule="nonzero" node-id="135" stroke="none" target-height="32.799988" target-width="25.299988" target-x="746.5" target-y="876.5"></path><path d="M 725.20 908.80 L 724.20 908.50 L 702.50 893.50 L 701.90 892.90 L 701.70 892.00 L 702.50 890.50 L 724.80 876.10 L 726.10 876.30 L 726.60 876.80 L 726.80 878.10 L 726.10 879.20 L 706.60 892.00 L 726.10 905.50 L 726.60 906.00 L 726.80 907.30 L 726.00 908.70 L 725.20 908.80 Z" fill="#168cdb" fill-rule="nonzero" node-id="137" stroke="none" target-height="32.700012" target-width="25.099976" target-x="701.7" target-y="876.1"></path><path d="M 730.20 919.60 L 728.70 918.70 L 728.50 917.40 L 740.60 867.50 L 740.90 866.90 L 742.00 866.20 L 742.70 866.20 L 743.80 867.00 L 744.00 868.40 L 731.90 918.30 L 731.30 919.20 L 730.20 919.60 Z" fill="#168cdb" fill-rule="nonzero" node-id="139" stroke="none" target-height="53.399963" target-width="15.5" target-x="728.5" target-y="866.2"></path><path d="M 212.40 726.70 L 217.00 726.70 L 217.00 731.30 L 212.40 731.30 Z" fill="#ffffff" fill-rule="nonzero" node-id="141" stroke="none" target-height="4.5999756" target-width="4.600006" target-x="212.4" target-y="726.7"></path><path d="M 217.00 722.50 L 212.40 722.50 L 212.40 714.00 L 217.00 714.00 L 217.00 722.50 Z M 217.00 709.80 L 212.40 709.80 L 212.40 701.30 L 217.00 701.30 L 217.00 709.80 Z" fill="#ffffff" fill-rule="nonzero" node-id="143" stroke="none" target-height="21.200012" target-width="4.600006" target-x="212.4" target-y="701.3"></path><path d="M 217.00 697.00 L 212.40 697.00 L 212.40 690.10 L 219.30 690.10 L 219.30 694.70 L 217.00 694.70 Z" fill="#ffffff" fill-rule="nonzero" node-id="145" stroke="none" target-height="6.9000244" target-width="6.900009" target-x="212.4" target-y="690.1"></path><path d="M 416.90 694.70 L 407.50 694.70 L 407.50 690.10 L 416.90 690.10 L 416.90 694.70 Z M 402.80 694.70 L 393.40 694.70 L 393.40 690.10 L 402.80 690.10 L 402.80 694.70 Z M 388.70 694.70 L 379.30 694.70 L 379.30 690.10 L 388.70 690.10 L 388.70 694.70 Z M 374.60 694.70 L 365.20 694.70 L 365.20 690.10 L 374.60 690.10 L 374.60 694.70 Z M 360.50 694.70 L 351.10 694.70 L 351.10 690.10 L 360.50 690.10 L 360.50 694.70 Z M 346.40 694.70 L 337.00 694.70 L 337.00 690.10 L 346.40 690.10 L 346.40 694.70 Z M 332.20 694.70 L 322.80 694.70 L 322.80 690.10 L 332.20 690.10 L 332.20 694.70 Z M 318.10 694.70 L 308.70 694.70 L 308.70 690.10 L 318.10 690.10 L 318.10 694.70 Z M 304.00 694.70 L 294.60 694.70 L 294.60 690.10 L 304.00 690.10 L 304.00 694.70 Z M 289.90 694.70 L 280.50 694.70 L 280.50 690.10 L 289.90 690.10 L 289.90 694.70 Z M 275.80 694.70 L 266.40 694.70 L 266.40 690.10 L 275.80 690.10 L 275.80 694.70 Z M 261.60 694.70 L 252.20 694.70 L 252.20 690.10 L 261.60 690.10 L 261.60 694.70 Z M 247.50 694.70 L 238.10 694.70 L 238.10 690.10 L 247.50 690.10 L 247.50 694.70 Z M 233.40 694.70 L 224.00 694.70 L 224.00 690.10 L 233.40 690.10 L 233.40 694.70 Z" fill="#ffffff" fill-rule="nonzero" node-id="147" stroke="none" target-height="4.6000366" target-width="192.9" target-x="224" target-y="690.1"></path><path d="M 428.50 697.00 L 423.90 697.00 L 423.90 694.70 L 421.60 694.70 L 421.60 690.10 L 428.50 690.10 Z" fill="#ffffff" fill-rule="nonzero" node-id="149" stroke="none" target-height="6.9000244" target-width="6.899994" target-x="421.6" target-y="690.1"></path><path d="M 428.50 719.70 L 423.90 719.70 L 423.90 712.10 L 428.50 712.10 L 428.50 719.70 Z M 428.50 708.40 L 423.90 708.40 L 423.90 700.80 L 428.50 700.80 L 428.50 708.40 Z" fill="#ffffff" fill-rule="nonzero" node-id="151" stroke="none" target-height="18.900024" target-width="4.600006" target-x="423.9" target-y="700.8"></path><path d="M 423.90 723.50 L 428.50 723.50 L 428.50 728.10 L 423.90 728.10 Z" fill="#ffffff" fill-rule="nonzero" node-id="153" stroke="none" target-height="4.5999756" target-width="4.600006" target-x="423.9" target-y="723.5"></path><path d="M 288.90 734.50 L 284.30 734.50 L 284.30 733.60 L 288.90 733.60 L 288.90 734.50 Z M 288.90 729.00 L 284.30 729.00 L 284.30 719.80 L 288.90 719.80 L 288.90 729.00 Z M 288.90 715.30 L 284.30 715.30 L 284.30 706.10 L 288.90 706.10 L 288.90 715.30 Z M 288.90 701.60 L 284.30 701.60 L 284.30 692.40 L 288.90 692.40 L 288.90 701.60 Z" fill="#ffffff" fill-rule="nonzero" node-id="155" stroke="none" target-height="42.099976" target-width="4.600006" target-x="284.3" target-y="692.4"></path><path d="M 359.00 734.50 L 354.40 734.50 L 354.40 733.60 L 359.00 733.60 L 359.00 734.50 Z M 359.00 729.00 L 354.40 729.00 L 354.40 719.80 L 359.00 719.80 L 359.00 729.00 Z M 359.00 715.30 L 354.40 715.30 L 354.40 706.10 L 359.00 706.10 L 359.00 715.30 Z M 359.00 701.60 L 354.40 701.60 L 354.40 692.40 L 359.00 692.40 L 359.00 701.60 Z" fill="#ffffff" fill-rule="nonzero" node-id="157" stroke="none" target-height="42.099976" target-width="4.600006" target-x="354.4" target-y="692.4"></path><path d="M 323.90 693.10 L 319.30 693.10 L 319.30 692.20 L 323.90 692.20 L 323.90 693.10 Z M 323.90 687.60 L 319.30 687.60 L 319.30 678.40 L 323.90 678.40 L 323.90 687.60 Z M 323.90 673.90 L 319.30 673.90 L 319.30 664.70 L 323.90 664.70 L 323.90 673.90 Z M 323.90 660.10 L 319.30 660.10 L 319.30 651.00 L 323.90 651.00 L 323.90 660.10 Z" fill="#ffffff" fill-rule="nonzero" node-id="159" stroke="none" target-height="42.099976" target-width="4.600006" target-x="319.3" target-y="651"></path><path d="M 199.80 733.00 L 230.30 733.00 L 230.30 763.50 L 199.80 763.50 Z" fill="#7d7de2" fill-rule="nonzero" node-id="161" stroke="none" target-height="30.5" target-width="30.5" target-x="199.8" target-y="733"></path><path d="M 271.30 733.00 L 301.80 733.00 L 301.80 763.50 L 271.30 763.50 Z" fill="#c7efff" fill-rule="nonzero" node-id="163" stroke="none" target-height="30.5" target-width="30.5" target-x="271.3" target-y="733"></path><path d="M 341.50 733.00 L 372.00 733.00 L 372.00 763.50 L 341.50 763.50 Z" fill="#7d7de2" fill-rule="nonzero" node-id="165" stroke="none" target-height="30.5" target-width="30.5" target-x="341.5" target-y="733"></path><path d="M 411.60 733.00 L 442.10 733.00 L 442.10 763.50 L 411.60 763.50 Z" fill="#3c5b8c" fill-rule="nonzero" node-id="167" stroke="none" target-height="30.5" target-width="30.5" target-x="411.6" target-y="733"></path><path d="M 265.20 638.20 L 265.40 641.30 L 266.90 646.90 L 268.20 649.40 L 270.50 652.60 L 273.10 655.20 L 276.30 657.50 L 278.80 658.80 L 284.40 660.30 L 287.50 660.50 L 291.20 660.20 L 357.00 660.20 L 360.00 659.90 L 362.80 659.20 L 367.90 656.90 L 370.80 654.60 L 373.30 652.00 L 375.40 648.90 L 376.60 646.30 L 377.90 640.80 L 378.00 637.80 L 377.50 634.00 L 376.50 630.50 L 374.90 627.30 L 372.80 624.40 L 370.30 621.90 L 367.40 619.80 L 364.20 618.20 L 360.70 617.20 L 356.90 616.80 L 356.20 614.30 L 355.20 612.10 L 353.80 610.20 L 352.10 608.40 L 350.20 607.10 L 348.00 606.00 L 345.60 605.40 L 343.20 605.20 L 340.60 605.40 L 337.80 606.20 L 335.20 607.60 L 330.90 602.40 L 325.70 598.40 L 319.80 595.60 L 316.60 594.70 L 310.00 594.00 L 306.50 594.20 L 300.00 595.80 L 296.90 597.00 L 293.00 599.20 L 289.60 601.90 L 286.50 605.10 L 284.50 607.80 L 281.50 613.80 L 280.40 617.10 L 277.50 618.30 L 274.90 619.90 L 272.50 621.80 L 270.40 624.10 L 268.60 626.50 L 267.20 629.20 L 266.10 632.10 L 265.50 635.00 L 265.20 638.20 Z" fill="#3a3a77" fill-rule="nonzero" node-id="169" stroke="none" target-height="66.5" target-width="112.79999" target-x="265.2" target-y="594"></path><path d="M 550.50 256.50 L 546.40 252.80 L 553.80 244.70 L 557.90 248.40 L 550.50 256.50 Z M 561.60 244.30 L 557.50 240.60 L 564.90 232.50 L 569.00 236.20 L 561.60 244.30 Z M 572.70 232.10 L 568.60 228.40 L 576.00 220.30 L 580.10 224.00 L 572.70 232.10 Z M 583.80 219.90 L 579.70 216.20 L 587.10 208.10 L 591.20 211.80 L 583.80 219.90 Z M 713.20 214.20 L 704.10 208.00 L 707.20 203.50 L 716.30 209.70 L 713.20 214.20 Z M 720.50 210.50 L 716.40 206.80 L 723.80 198.70 L 727.90 202.40 L 720.50 210.50 Z M 594.90 207.70 L 590.80 204.00 L 598.20 195.90 L 602.30 199.60 L 594.90 207.70 Z M 699.50 205.00 L 690.40 198.80 L 693.50 194.30 L 702.60 200.50 L 699.50 205.00 Z M 731.60 198.30 L 727.50 194.60 L 734.90 186.50 L 739.00 190.20 L 731.60 198.30 Z M 685.90 195.70 L 676.80 189.50 L 679.90 184.90 L 689.00 191.10 L 685.90 195.70 Z M 605.90 195.60 L 601.80 191.90 L 609.20 183.80 L 613.30 187.50 L 605.90 195.60 Z M 672.20 186.50 L 663.10 180.30 L 666.20 175.70 L 675.30 181.90 L 672.20 186.50 Z M 742.70 186.10 L 738.60 182.40 L 746.00 174.30 L 750.10 178.00 L 742.70 186.10 Z M 617.00 183.30 L 612.90 179.60 L 620.30 171.50 L 624.40 175.20 L 617.00 183.30 Z M 658.60 177.20 L 649.50 171.00 L 652.60 166.40 L 661.70 172.60 L 658.60 177.20 Z M 867.50 176.00 L 864.00 171.70 L 872.50 164.80 L 876.00 169.10 L 867.50 176.00 Z M 860.00 174.00 L 853.60 165.00 L 858.10 161.80 L 864.50 170.80 L 860.00 174.00 Z M 753.80 173.90 L 749.70 170.20 L 757.10 162.10 L 761.20 165.80 L 753.80 173.90 Z M 628.10 171.10 L 624.00 167.40 L 631.40 159.30 L 635.50 163.00 L 628.10 171.10 Z M 645.00 167.90 L 635.90 161.70 L 639.00 157.10 L 648.10 163.30 L 645.00 167.90 Z M 880.40 165.70 L 876.90 161.40 L 885.50 154.50 L 889.00 158.80 L 880.40 165.70 Z M 764.90 161.70 L 760.80 158.00 L 768.20 149.90 L 772.30 153.60 L 764.90 161.70 Z M 850.50 160.60 L 844.00 151.60 L 848.50 148.40 L 854.90 157.30 L 850.50 160.60 Z M 893.20 155.30 L 889.70 151.00 L 898.30 144.10 L 901.80 148.40 L 893.20 155.30 Z M 776.00 149.50 L 771.90 145.80 L 779.30 137.70 L 783.40 141.40 L 776.00 149.50 Z M 840.90 147.10 L 834.50 138.10 L 839.00 134.90 L 845.40 143.80 L 840.90 147.10 Z M 906.00 145.00 L 902.50 140.70 L 911.00 133.80 L 914.50 138.10 L 906.00 145.00 Z M 787.00 137.30 L 782.90 133.60 L 790.30 125.50 L 794.40 129.20 L 787.00 137.30 Z M 918.90 134.60 L 915.40 130.30 L 923.90 123.40 L 927.40 127.70 L 918.90 134.60 Z M 831.30 133.70 L 824.90 124.70 L 829.40 121.50 L 835.80 130.50 L 831.30 133.70 Z M 798.10 125.00 L 794.00 121.30 L 801.40 113.20 L 805.50 116.90 L 798.10 125.00 Z M 821.70 120.20 L 815.30 111.20 L 819.80 108.00 L 826.20 117.00 L 821.70 120.20 Z M 809.20 112.80 L 805.10 109.10 L 811.40 102.10 L 815.70 102.30 L 816.60 103.60 L 814.60 105.00 L 815.50 105.80 L 809.20 112.80 Z" fill="#56a8de" fill-rule="nonzero" node-id="171" stroke="none" target-height="154.4" target-width="381" target-x="546.4" target-y="102.1"></path><g node-id="198"><path d="M 551.10 243.50 L 553.20 244.30 L 555.20 245.40 L 556.80 246.90 L 558.20 248.60 L 559.20 250.70 L 559.70 252.80 L 559.90 255.00 L 559.60 257.30 L 558.90 259.40 L 557.70 261.30 L 556.30 263.00 L 554.50 264.30 L 552.50 265.30 L 550.30 265.90 L 548.10 266.00 L 545.90 265.70 L 543.70 265.00 L 541.80 263.90 L 540.20 262.40 L 538.80 260.60 L 537.80 258.60 L 537.20 256.50 L 537.10 254.30 L 537.40 252.00 L 538.10 249.90 L 539.20 248.00 L 540.70 246.30 L 542.50 244.90 L 544.50 244.00 L 546.70 243.40 L 548.90 243.30 L 551.10 243.50 Z" fill="#1f758d" fill-rule="nonzero" group-id="2" node-id="175" stroke="none" target-height="22.699997" target-width="22.800049" target-x="537.1" target-y="243.3"></path></g><path d="M 645.60 158.90 L 644.90 162.90 L 644.00 164.70 L 641.60 167.60 L 638.20 169.60 L 634.20 170.30 L 630.20 169.60 L 626.80 167.60 L 624.40 164.70 L 623.00 161.00 L 623.00 156.80 L 623.50 154.90 L 625.50 151.50 L 628.40 149.10 L 630.20 148.20 L 634.20 147.50 L 638.20 148.20 L 641.60 150.20 L 644.00 153.10 L 644.90 154.90 L 645.60 158.90 Z" fill="#6bbfff" fill-rule="nonzero" node-id="178" stroke="none" target-height="22.800003" target-width="22.599976" target-x="623" target-y="147.5"></path><g node-id="199"><path d="M 717.50 200.00 L 719.60 200.80 L 721.60 201.90 L 723.20 203.40 L 724.60 205.10 L 725.60 207.20 L 726.10 209.30 L 726.30 211.50 L 726.00 213.80 L 725.30 215.90 L 724.10 217.80 L 722.70 219.50 L 720.90 220.80 L 718.90 221.80 L 716.70 222.40 L 714.50 222.50 L 712.30 222.20 L 710.10 221.50 L 708.20 220.40 L 706.60 218.90 L 705.20 217.10 L 704.20 215.10 L 703.60 213.00 L 703.50 210.70 L 703.80 208.50 L 704.50 206.40 L 705.60 204.50 L 707.10 202.80 L 708.90 201.40 L 710.90 200.50 L 713.10 199.90 L 715.30 199.70 L 717.50 200.00 Z" fill="#faa632" fill-rule="nonzero" group-id="3" node-id="182" stroke="none" target-height="22.800003" target-width="22.799988" target-x="703.5" target-y="199.7"></path></g><g node-id="200"><path d="M 816.10 92.90 L 818.20 93.60 L 820.10 94.70 L 821.80 96.20 L 823.10 98.00 L 824.10 100.00 L 824.70 102.20 L 824.80 104.40 L 824.50 106.60 L 823.80 108.70 L 822.70 110.70 L 821.20 112.30 L 819.40 113.70 L 817.40 114.70 L 815.30 115.20 L 813.10 115.40 L 810.80 115.10 L 808.70 114.40 L 806.80 113.20 L 805.10 111.80 L 803.70 110.00 L 802.80 108.00 L 802.20 105.80 L 802.10 103.60 L 802.40 101.40 L 803.10 99.20 L 804.20 97.30 L 805.70 95.70 L 807.50 94.30 L 809.50 93.30 L 811.60 92.70 L 813.80 92.60 L 816.10 92.90 Z" fill="#f0781b" fill-rule="nonzero" group-id="4" node-id="187" stroke="none" target-height="22.800003" target-width="22.700012" target-x="802.1" target-y="92.6"></path></g><g node-id="201"><path d="M 866.90 162.70 L 869.00 163.50 L 870.90 164.60 L 872.60 166.10 L 873.90 167.80 L 874.90 169.90 L 875.50 172.00 L 875.60 174.20 L 875.30 176.50 L 874.60 178.60 L 873.50 180.50 L 872.00 182.20 L 870.20 183.50 L 868.20 184.50 L 866.10 185.10 L 863.80 185.20 L 861.60 184.90 L 859.50 184.20 L 857.60 183.10 L 855.90 181.60 L 854.50 179.80 L 853.60 177.80 L 853.00 175.70 L 852.80 173.40 L 853.10 171.20 L 853.90 169.10 L 855.00 167.20 L 856.50 165.50 L 858.20 164.10 L 860.30 163.20 L 862.40 162.60 L 864.60 162.40 L 866.90 162.70 Z" fill="#6bbfff" fill-rule="nonzero" group-id="5" node-id="192" stroke="none" target-height="22.800003" target-width="22.799988" target-x="852.8" target-y="162.4"></path></g><path d="M 941.00 122.50 L 940.30 126.50 L 939.40 128.30 L 937.00 131.20 L 933.60 133.20 L 929.60 133.90 L 925.60 133.20 L 922.20 131.20 L 919.80 128.30 L 918.40 124.60 L 918.40 120.40 L 918.90 118.50 L 920.90 115.10 L 923.80 112.70 L 925.60 111.80 L 929.60 111.10 L 933.60 111.80 L 937.00 113.80 L 939.40 116.70 L 940.30 118.50 L 941.00 122.50 Z" fill="#6bbfff" fill-rule="nonzero" node-id="195" stroke="none" target-height="22.799995" target-width="22.599976" target-x="918.4" target-y="111.1"></path></svg>