<svg viewBox="0 0 1024 1024" xmlns="http://www.w3.org/2000/svg" id="图层_1"><defs><style>.cls-1{fill:#ecf3fe;}.cls-2{fill:#0024a8;}.cls-3{fill:#d6e6f2;}.cls-4{fill:#f0f8ff;}.cls-5{fill:#47b0aa;}.cls-6{fill:#59d1ba;}.cls-7{fill:#bad3e2;}.cls-8{fill:#cc8c71;}.cls-9{fill:#616ac1;}.cls-10{fill:#7378d6;}.cls-11{fill:#dd8b12;}.cls-12{fill:#f1a52b;}.cls-13{fill:#ffb725;}.cls-14{fill:#f9b35f;}.cls-15{fill:#bf7c64;}.cls-16{fill:#cc8b6e;}.cls-17{fill:#552b19;}.cls-18{fill:#fe6a3c;}.cls-19{fill:#d7e4f9;}.cls-20{fill:#53424d;}.cls-21{fill:#fbb99d;}.cls-22{fill:#3a3a77;}.cls-23{fill:#fdfefd;}.cls-24{fill:#dc8162;}.cls-25{fill:#fff;}.cls-26{fill:#bdd6e5;}.cls-27{fill:#fbb433;}.cls-28{fill:#253369;}</style></defs><path d="M372.81,745.56l.82-36.34-43.41-10.81a10.14,10.14,0,0,1-6.94-6.36q-1-2.62-2.13-5.16a9.68,9.68,0,0,1,.71-9.41l24.81-36.66-24.89-26.49-38.1,22.46a11.75,11.75,0,0,1-10.95.35q-3.53-1.65-7.19-3a11.72,11.72,0,0,1-7.51-8.32l-9.76-43.32H211.92l-9.78,43.4a12.68,12.68,0,0,1-7.57,9.07c-1.61.64-3.21,1.32-4.78,2a12.68,12.68,0,0,1-11.68-.74l-37.2-21.93L116,640.82l22.89,33.82a14.78,14.78,0,0,1,1.39,14l-.51,1.23A14.77,14.77,0,0,1,129,698.81l-39.6,8-.82,36.34,42.3,10.54a12.47,12.47,0,0,1,8.48,7.7l.07.18a12.4,12.4,0,0,1-1.07,11.61L115,807.74l24.89,26.49L175,813.53a11.38,11.38,0,0,1,11-.12q3.09,1.61,6.3,3a11.36,11.36,0,0,1,6.72,7.84l9.15,40.61h36.35l8.32-37a11,11,0,0,1,7.63-8,99,99,0,0,0,9.63-3.58,11,11,0,0,1,10,.48L316.16,838l24.89-26.49-20.94-30.93a11.48,11.48,0,0,1-.6-11.55c1.25-2.55,2.4-5.16,3.43-7.83a11.5,11.5,0,0,1,8.34-7.29Zm-128.9,44.79A65.43,65.43,0,1,1,295.28,739,65.49,65.49,0,0,1,243.91,790.35Z" class="cls-1"></path><path d="M933.68,590.25h-2.25v-1.07h1.18v-.94h1.07Zm-5.45,0H925v-1.07h3.2Zm-6.39,0h-3.2v-1.07h3.2Zm-6.4,0h-3.2v-1.07h3.2Zm-6.39,0h-3.2v-1.07h3.2Zm-6.4,0h-3.2v-1.07h3.2Zm-6.39,0h-3.2v-1.07h3.2Zm-6.4,0h-3.2v-1.07h3.2Zm-6.39,0h-3.2v-1.07h3.2Zm-6.4,0h-3.2v-1.07h3.2Zm-6.39,0h-3.2v-1.07h3.2Zm-6.4,0h-3.2v-1.07h3.2Zm-6.39,0h-3.2v-1.07h3.2Zm-6.4,0h-3.2v-1.07h3.2Zm-6.39,0h-3.2v-1.07h3.2Zm-6.4,0h-3.2v-1.07h3.2Zm-6.39,0h-3.2v-1.07h3.2Zm-6.4,0h-3.2v-1.07h3.2Zm-6.39,0h-3.2v-1.07h3.2Zm-6.4,0h-3.2v-1.07h3.2Zm-6.39,0h-3.2v-1.07h3.2Zm-6.4,0h-3.2v-1.07h3.2Zm-6.39,0h-3.2v-1.07h3.2ZM933.68,585h-1.07v-3.2h1.07Zm0-6.39h-1.07v-3.2h1.07Zm0-6.4h-1.07v-3.2h1.07Zm0-6.39h-1.07v-3.2h1.07Zm0-6.4h-1.07v-3.2h1.07Zm0-6.39h-1.07v-3.2h1.07Zm0-6.4h-1.07v-3.2h1.07Zm0-6.39h-1.07v-3.2h1.07Zm0-6.4h-1.07v-3.2h1.07Zm0-6.39h-1.07v-3.2h1.07Zm0-6.4h-1.07v-3.2h1.07Zm0-6.39h-1.07v-3.2h1.07Zm0-6.4h-1.07v-3.2h1.07Zm0-6.39h-1.07v-3.2h1.07Zm0-6.4h-1.07v-3.2h1.07Zm0-6.39h-1.07v-3.2h1.07Zm0-6.4h-1.07v-3.2h1.07Zm-635.31-4.39h-.64v-.53h-.42v-3.09h1.06Zm-3.84,0h-3.2v-1.06h3.2Zm-6.4,0h-3.19v-1.06h3.19Zm-6.39,0h-3.2v-1.06h3.2Zm-6.4,0h-3.19v-1.06h3.19Zm-6.39,0h-3.2v-1.06H269Zm-6.4,0h-3.19v-1.06h3.19Zm-6.39,0H253v-1.06h3.2Zm-6.4,0h-3.19v-1.06h3.19Zm-6.39,0h-3.2v-1.06h3.2Zm-6.4,0h-3.19v-1.06H237Zm-6.39,0h-3.2v-1.06h3.2Zm-6.4,0H221v-1.06h3.19Zm-6.39,0h-3.2v-1.06h3.2Zm-6.4,0H208.2v-1.06h3.19Zm-6.39,0h-3.2v-1.06H205Zm-6.4,0h-3.19v-1.06h3.19Zm-6.39,0H189v-1.06h3.2Zm-6.39,0h-3.2v-1.06h3.2Zm-6.4,0h-3.2v-1.06h3.2Zm-6.39,0h-3.2v-1.06H173Zm-6.4,0h-3.2v-1.06h3.2Zm-6.39,0H157v-1.06h3.2Zm-6.4,0h-3.2v-1.06h3.2Zm-6.39,0h-3.2v-1.06h3.2Zm-6.4,0h-3.2v-1.06h3.2Zm-6.39,0h-1.09v-3.17h1.07Zm799-2h-1.07v-3.2h1.07ZM133.56,472v-3.2h1.06V472Zm164.81-.44h-1.06v-3.2h1.06Zm635.31-1.59h-1.07v-3.2h1.07Zm-800.13-4.36v-3.2h1.07v3.2Zm164.82-.45h-1.06v-3.2h1.06Zm635.31-1.58h-1.07v-3.2h1.07Zm-800.13-4.37V456h1.07v3.2Zm164.82-.44h-1.06v-3.2h1.06Zm635.31-1.59h-1.07v-3.2h1.07Zm-800.14-4.36v-3.2h1.06v3.2Zm164.83-.45h-1.06v-3.2h1.06Zm635.31-1.58h-1.07v-3.2h1.07Zm-800.15-4.37v-3.2h1.06v3.2Zm164.84-.44h-1.06v-3.2h1.06Zm635.31-1.59h-1.07v-3.2h1.07ZM133.52,440v-3.2h1.07V440Zm164.85-.45h-1.06v-3.2h1.06ZM933.68,438h-1.07v-3.2h1.07Zm-800.16-4.37v-3.2h1.07v3.2Zm164.85-.44h-1.06V430h1.06Zm635.31-1.59h-1.07v-3.2h1.07ZM133.51,427.2V424h1.06v3.2Zm164.86-.45h-1.06v-3.2h1.06Zm635.31-1.58h-1.07V422h1.07ZM133.5,420.8v-3.2h1.07v3.2Zm164.87-.44h-1.06v-3.2h1.06Zm635.31-1.59h-1.07v-3.2h1.07ZM133.5,414.41v-3.2h1.07v3.2ZM298.37,414h-1.06v-3.2h1.06Zm635.31-1.58h-1.07v-3.2h1.07ZM133.49,408v-3.2h1.07V408Zm164.88-.44h-1.06v-3.2h1.06ZM933.68,406h-1.07v-3.2h1.07Zm-800.2-4.36v-3.2h1.06v3.2Zm164.89-.45h-1.06v-.65h1.06Zm635.31-1.58h-1.07v-3.2h1.07Zm-800.21-4.37V392h1.07v3.2Zm800.21-2h-1.07V390h1.07Zm-800.21-4.36v-3.2h1.07v3.2Zm800.21-2h-1.07v-3.2h1.07Zm-800.22-4.37v-3.2h1.06v3.2Zm800.22-2h-1.07v-3.2h1.07ZM133.45,376v-3.2h1.06V376Zm799.7-1.83h-2.87v-1.06h3.4V374h-.53Zm-6.07,0h-3.2v-1.06h3.2Zm-6.4,0h-3.19v-1.06h3.19Zm-6.39,0h-3.2v-1.06h3.2Zm-6.4,0H904.7v-1.06h3.19Zm-6.39,0h-3.2v-1.06h3.2Zm-6.4,0h-3.19v-1.06h3.19Zm-6.39,0h-3.2v-1.06h3.2Zm-6.4,0h-3.19v-1.06h3.19Zm-6.39,0h-3.2v-1.06h3.2Zm-6.4,0h-3.19v-1.06h3.19Zm-6.39,0h-3.2v-1.06h3.2Zm-6.4,0h-3.19v-1.06h3.19Zm-6.39,0h-3.2v-1.06h3.2Zm-6.4,0h-3.19v-1.06h3.19Zm-6.39,0h-3.2v-1.06h3.2Zm-6.4,0H828v-1.06h3.19Zm-6.39,0h-3.2v-1.06h3.2Zm-5.59-.8H818.1v-3.2h1.07Zm-685.73-3.77v-3.2h1.07v3.2ZM819.17,367H818.1v-3.19h1.07Zm-685.73-3.76v-3.2h1.07v3.2Zm685.73-2.63H818.1v-3.2h1.07Zm-685.74-3.77v-3.2h1.06v3.2Zm685.74-2.63H818.1V351h1.07Zm-685.75-3.76v-3.2h1.07v3.2Zm685.75-2.63H818.1v-3.2h1.07Zm-685.75-3.77v-3.2h1.07v3.2Zm685.75-2.63H818.1v-3.19h1.07Zm-685.76-3.76v-3.2h1.06v3.2ZM819.17,335H818.1v-3.2h1.07ZM133.4,331.27v-3.2h1.06v3.2Zm685.77-2.63H818.1v-3.19h1.07Zm-685.78-3.76v-3.2h1.07v3.2Zm685.78-2.63H818.1v-3.2h1.07Zm-685.78-3.77v-3.2h1.07v3.2Zm685.78-2.63H818.1v-3.19h1.07Zm-685.79-3.76v-3.2h1.06v3.2Zm685.79-2.63H818.1v-3.2h1.07Zm-685.8-3.77v-3.2h1.07v3.2Zm685.8-2.63H818.1v-3.19h1.07Zm-685.8-3.76v-3.2h1.07v3.2Zm685.8-2.63H818.1v-3.2h1.07ZM133.36,292.9v-3.2h1.07v3.2Zm685.81-2.63H818.1v-3.19h1.07Zm-685.82-3.76v-3.2h1.06v3.2Zm685.82-2.63H818.1v-3.2h1.07Zm-685.83-3.77v-3.2h1.07v3.2Zm685.83-2.63H818.1v-3.19h1.07Zm-685.83-3.76v-3.2h1.07v3.2Zm685.83-2.63H818.1v-3.2h1.07Zm-685.84-3.77v-3.2h1.06v3.2Zm685.84-2.63H818.1V261.5h1.07Zm-685.85-3.76v-3.2h1.06v3.2Zm685.85-2.63H818.1v-3.2h1.07Zm-685.85-3.77v-3.2h1.07v3.2Zm685.85-2.63H818.1v-3.19h1.07Zm-685.86-3.76v-3.2h1.07v3.2Zm685.86-2.63H818.1v-3.2h1.07ZM133.3,241.74v-3.19h1.06v3.2Zm685.87-2.63H818.1v-3.19h1.07Zm-685.88-3.76v-3.2h1.07v3.2Zm685.88-2.63H818.1v-3.2h1.07ZM133.29,229v-3.19h1.07V229Zm685.88-2.63H818.1v-3.19h1.07Zm-685.89-3.76v-3.2h1.06v3.2Zm685.89-2.63H818.1v-3.2h1.07Zm-685.9-3.77V213h1.06v3.2Zm685.9-2.63H818.1v-3.19h1.07Zm-685.91-3.76v-3.2h1.07v3.2Zm685.91-2.63H818.1v-3.2h1.07Zm-685.91-3.77v-3.19h1.07v3.2Zm685.91-2.62H818.1v-3.2h1.07ZM133.25,197v-3.2h1.06V197Zm685.92-2.63H818.1v-3.2h1.07Zm-685.93-3.77v-3.19h1.07v3.2ZM819.17,188H818.1v-3.2h1.07Zm-685.93-3.77V181h1.07v3.2Zm685.93-2.63H818.1v-3.2h1.07Zm-685.94-3.77v-3.14h1.12v1.07h-.06v2.07Zm685.38-2.07h-3.19v-1.07h3.19Zm-6.39,0H809v-1.07h3.2Zm-6.4,0h-3.19v-1.07h3.19Zm-6.39,0h-3.2v-1.07h3.2Zm-6.4,0h-3.19v-1.07H793Zm-6.39,0h-3.2v-1.07h3.2Zm-6.4,0h-3.19v-1.07h3.19Zm-6.39,0h-3.2v-1.07h3.2Zm-6.4,0h-3.19v-1.07h3.19Zm-6.39,0h-3.2v-1.07h3.2Zm-6.4,0h-3.19v-1.07h3.19Zm-6.39,0h-3.2v-1.07h3.2Zm-6.4,0h-3.19v-1.07h3.19Zm-6.39,0h-3.2v-1.07h3.2Zm-6.4,0h-3.19v-1.07h3.19Zm-6.39,0h-3.2v-1.07h3.2Zm-6.4,0H713.1v-1.07h3.19Zm-6.39,0h-3.2v-1.07h3.2Zm-6.4,0h-3.19v-1.07h3.19Zm-6.39,0h-3.2v-1.07h3.2Zm-6.4,0h-3.19v-1.07h3.19Zm-6.39,0h-3.2v-1.07h3.2Zm-6.4,0h-3.19v-1.07h3.19Zm-6.39,0h-3.2v-1.07h3.2Zm-6.4,0h-3.19v-1.07h3.19Zm-6.39,0h-3.2v-1.07h3.2Zm-6.4,0h-3.19v-1.07h3.19Zm-6.39,0h-3.2v-1.07H646Zm-6.4,0h-3.19v-1.07h3.19Zm-6.39,0H630v-1.07h3.2Zm-6.4,0h-3.19v-1.07h3.19Zm-6.39,0h-3.2v-1.07h3.2Zm-6.4,0h-3.19v-1.07H614Zm-6.39,0h-3.2v-1.07h3.2Zm-6.4,0H598v-1.07h3.19Zm-6.39,0h-3.2v-1.07h3.2Zm-6.4,0H585.2v-1.07h3.19Zm-6.39,0h-3.2v-1.07H582Zm-6.4,0h-3.19v-1.07h3.19Zm-6.39,0H566v-1.07h3.2Zm-6.39,0h-3.2v-1.07h3.2Zm-6.4,0h-3.2v-1.07h3.2Zm-6.39,0h-3.2v-1.07H550Zm-6.4,0h-3.2v-1.07h3.2Zm-6.39,0H534v-1.07h3.2Zm-6.4,0h-3.2v-1.07h3.2Zm-6.39,0h-3.2v-1.07h3.2Zm-6.4,0h-3.2v-1.07h3.2Zm-6.39,0h-3.2v-1.07h3.2Zm-6.4,0h-3.2v-1.07h3.2Zm-6.39,0h-3.2v-1.07h3.2Zm-6.4,0h-3.2v-1.07h3.2Zm-6.39,0h-3.2v-1.07h3.2Zm-6.4,0h-3.2v-1.07h3.2Zm-6.39,0h-3.2v-1.07h3.2Zm-6.4,0h-3.2v-1.07h3.2Zm-6.39,0h-3.2v-1.07h3.2Zm-6.4,0h-3.2v-1.07h3.2Zm-6.39,0h-3.2v-1.07h3.2Zm-6.4,0h-3.2v-1.07h3.2Zm-6.39,0h-3.2v-1.07h3.2Zm-6.4,0h-3.2v-1.07h3.2Zm-6.39,0h-3.2v-1.07h3.2Zm-6.4,0h-3.2v-1.07h3.2Zm-6.39,0h-3.2v-1.07h3.2Zm-6.4,0h-3.2v-1.07h3.2Zm-6.39,0h-3.2v-1.07h3.2Zm-6.4,0H387v-1.07h3.2Zm-6.39,0h-3.2v-1.07h3.2Zm-6.4,0h-3.2v-1.07h3.2Zm-6.39,0h-3.2v-1.07H371Zm-6.4,0h-3.2v-1.07h3.2Zm-6.39,0H355v-1.07h3.2Zm-6.4,0h-3.2v-1.07h3.2Zm-6.39,0h-3.2v-1.07h3.2Zm-6.4,0h-3.2v-1.07H339Zm-6.39,0h-3.2v-1.07h3.2Zm-6.4,0H323v-1.07h3.2Zm-6.39,0h-3.2v-1.07h3.2Zm-6.4,0h-3.2v-1.07h3.2Zm-6.39,0h-3.2v-1.07H307Zm-6.4,0h-3.2v-1.07h3.2Zm-6.39,0H291v-1.07h3.2Zm-6.4,0h-3.2v-1.07h3.2Zm-6.39,0h-3.2v-1.07h3.2Zm-6.4,0h-3.2v-1.07H275Zm-6.39,0h-3.2v-1.07h3.2Zm-6.4,0h-3.2v-1.07h3.2Zm-6.39,0h-3.2v-1.07h3.2Zm-6.4,0h-3.2v-1.07h3.2Zm-6.39,0h-3.2v-1.07h3.2Zm-6.4,0h-3.2v-1.07h3.2Zm-6.39,0h-3.2v-1.07h3.2Zm-6.4,0h-3.2v-1.07h3.2Zm-6.39,0h-3.2v-1.07h3.2Zm-6.4,0h-3.2v-1.07h3.2Zm-6.39,0h-3.2v-1.07h3.2Zm-6.4,0h-3.2v-1.07h3.2Zm-6.39,0h-3.2v-1.07h3.2Zm-6.4,0h-3.2v-1.07h3.2Zm-6.39,0h-3.2v-1.07h3.2Zm-6.4,0h-3.2v-1.07h3.2Zm-6.39,0h-3.2v-1.07h3.2Zm-6.4,0h-3.2v-1.07h3.2Zm-6.39,0h-3.2v-1.07h3.2Zm-6.4,0h-3.2v-1.07h3.2Zm-6.39,0h-3.2v-1.07h3.2Z" class="cls-2"></path><path d="M661.18,444.11H771a56.51,56.51,0,0,0-109.78,0Z" class="cls-3"></path><path d="M113.13,403.36s-53.48-94.2-13-117.28c30.23-17.23,54.94,12.09,54.94,12.09s-41.46-114.81,5.18-133.45,50.42,51.37,50.42,51.37S205.42,73,299.33,85.2c70.55,9.13,56,88.35,56,88.35s58.18-21.61,95.13,23.26c43.44,52.76-16.72,113.39-16.72,113.39s57.11-36.77,90.93-12c38,27.81,31.76,66,1.82,110.45Z" class="cls-4"></path><path d="M413.8,406.86S499.71,317.7,472,283.91a18.62,18.62,0,0,0-22.34-4.82c-10.3,5-24.93,19.11-35.85,57.57,0,0,48.35-103,10.92-109,0,0-39.37-11.16-45.23,92.27,0,0,4.68-73.73-28.07-78.19,0,0-73.3-22-6.24,166.92Z" class="cls-5"></path><path d="M400.39,407.8s48.89-50.74,23.32-62.88c0,0-14.29-2.78-23.32,29,0,0,23.32-49.69,5.27-52.57,0,0-17.3-13.41-21.82,44.51,0,0,2.26-35.56-13.54-37.71,0,0-35.35-10.6-3,80.5Z" class="cls-6"></path><ellipse ry="16.02" rx="267.38" cy="409.78" cx="303.22" class="cls-7"></ellipse><path d="M391.59,315S336.32,303.32,321,279.56s2.16-40.7,2.16-40.7,48.79,45.17,80.49,49S391.59,315,391.59,315Z" class="cls-8"></path><path d="M289.86,227.28s-5.38-.35-1.43,26.27c4.89,33,60.13,52.25,60.13,52.25l28.69-31.41S324.3,227.28,289.86,227.28Z" class="cls-9"></path><path d="M383,312.71C404.66,321,452.79,315,452.79,315l-3.7-16.85-63.54-14.2S361.25,304.36,383,312.71Z" class="cls-8"></path><path d="M467.05,293.59c7.59-2.11,14.92-5.08,22.55-7a24.3,24.3,0,0,1,6.54-1,4.43,4.43,0,0,1,2.39.59,1.89,1.89,0,0,1,.81,2.16c-.31.76-1.26,1.27-1.17,2.08.12,1.09,1.79,1,2.58,1.78a2,2,0,0,1,0,2.47,5.74,5.74,0,0,1-2.13,1.6l-6.18,3.25a5.44,5.44,0,0,0,3.49,1.61,6.1,6.1,0,0,1,1.65.18,1.19,1.19,0,0,1,.86,1.25,1.53,1.53,0,0,1-.56.77c-3,2.65-7.05,3.9-11,4.66s-8,1.1-11.86,2.27c-1.81.56-3.73,1.45-4.48,3.19-.92,2.13.29,4.53,1.48,6.53l2.85,4.83c.72,1.23,1.36,3,.22,3.88a2.67,2.67,0,0,1-2.45.09c-4-1.34-7-4.62-10.23-7.31a41.1,41.1,0,0,0-21-9.05,6.07,6.07,0,0,1-1.86-.42,4.73,4.73,0,0,1-1.84-1.92,16.28,16.28,0,0,1-2.22-10.27,2.85,2.85,0,0,1,2-2.73c4.66-2.17,8.33-1.08,13.19-1A59.23,59.23,0,0,0,467.05,293.59Z" class="cls-8"></path><path d="M233.11,238.77s27.16-12.12,56.07-13.36c0,0,11.28,1.34,14.42,3.4,26.34,17.26,38.58,50.39,50.85,119.12,4.19,23.53,10.85,62.57,10.85,62.57H293c-26.78,0-62.73.17-105.64,0,0,0,8.92-.63,12.32-46.45,1.23-16.55,3.15-22.7-8.07-71.21-8.05-34.77,29.94-49.32,29.94-49.32Z" class="cls-10"></path><path d="M332.3,202.16c5.05,11,2.64,22.94-5.38,26.61s-18.62-2.29-23.66-13.32-2.64-22.94,5.38-26.61S327.25,191.13,332.3,202.16Z" class="cls-11"></path><polygon points="306.23 190.31 314.86 184.23 334.66 227.02 325.31 229.51 322.47 228.01 306.23 190.31" class="cls-11"></polygon><path d="M342.2,197.63c5.46,11.91,2.85,24.78-5.81,28.75S316.28,223.9,310.83,212s-2.85-24.79,5.81-28.76S336.75,185.71,342.2,197.63Z" class="cls-12"></path><path d="M339.45,199.25c3.84,8.8,1.76,18.2-4.64,21s-14.7-2.08-18.54-10.88-1.76-18.21,4.64-21S335.62,190.45,339.45,199.25Z" class="cls-11"></path><path d="M475.64,197.42,417,84.47,324.09,186.91l.06.13h0c-5.52,2.34-7,11.21-3.37,19.81s11.09,13.65,16.61,11.3a4.44,4.44,0,0,0,.53-.28l0,0Z" class="cls-13"></path><path d="M360.45,207.23a5,5,0,0,1,.09,1.5c-.26,3.16-.77,15.89,8.29,17.23,7.7,1.14,21.75-.31,29.33-.89,4.21-.31,8.93-3,10.12-7,1-3.23,1-7.21-3.31-12a5.05,5.05,0,0,1,1.62-8l.41-.19a5,5,0,0,1,6.24,1.7C417.77,206.1,426,220.5,417,229c-12,11.4-51.65,8.14-56.33,7.71a4.84,4.84,0,0,1-1.07-.22c-2.83-.93-14.31-6.22-10.71-29.85C353.35,177.39,359.37,202.37,360.45,207.23Z" class="cls-12"></path><path d="M337.38,218.15a4.44,4.44,0,0,0,.53-.28l0,0,137.71-20.5-27.82-53.6L319.39,202.6a24.73,24.73,0,0,0,1.38,4.25C324.42,215.44,331.86,220.5,337.38,218.15Z" class="cls-12"></path><ellipse transform="translate(-15.91 201.06) rotate(-24.59)" ry="71.14" rx="40.22" cy="137.03" cx="453.27" class="cls-11"></ellipse><polygon points="417.69 76.28 438.85 59.69 502.86 198.38 478.83 203.57 470.91 198.12 417.69 76.28" class="cls-11"></polygon><path d="M514.78,108.88c17.66,38.6,14.3,78-7.53,88s-53.83-13.21-71.49-51.8-14.3-78,7.52-88S497.11,70.28,514.78,108.88Z" class="cls-12"></path><path d="M507.59,112.17c14.46,31.58,11.7,63.8-6.15,72s-44.05-10.8-58.5-42.38-11.7-63.81,6.16-72S493.14,80.59,507.59,112.17Z" class="cls-14"></path><path d="M449.1,69.78c-5.46,2.5-9.49,7.25-12.07,13.53,16.59.85,36.4,18.28,48.28,44.23,10,21.94,11.76,44.17,5.91,58.45a21.51,21.51,0,0,0,10.22-1.85c17.85-8.17,20.61-40.39,6.15-72S467,61.61,449.1,69.78Z" class="cls-11"></path><path d="M324.29,340c-19.6,4.57-55.43,2.16-78.47-18s-11.29-42.22-11.29-42.22,63.4,32.93,96.15,28.22S338.34,336.68,324.29,340Z" class="cls-8"></path><path d="M195.3,270.46C181.84,313.92,276,341.85,276,341.85l22.84-43.44S208.42,228.09,195.3,270.46Z" class="cls-9"></path><path d="M318.77,339.16c25.71,10.47,71.78-86,71.78-86L371.49,253,311.8,307.71S298.1,330.74,318.77,339.16Z" class="cls-8"></path><path d="M368.12,253.37c-.24-2.06-1.77-4.13-2.5-6-1.46-3.78-1.63-7.85-1.72-11.86,0-2.22-2.78-6.85-.55-8.66,3.66-3,6.11,6,7.32,7.7s3.13,2.8,5,2.17a5.8,5.8,0,0,0,2.72-2.6,117.83,117.83,0,0,0,5.65-10.8c1-1.89,2-3.68,3.09-5.5.79-1.36,1.32-3.5,2.42-4.59a2.16,2.16,0,0,1,3.29.14c.66,1-.19,1.9-.55,2.88-.8,2.19-1.55,4.41-2.27,6.63-.16.49-1.2,2.6-.89,3.08,1.53,2.33,4.39-3.31,4.88-4.18,1.25-2.19,2.62-4.44,5-5.58a1.17,1.17,0,0,1,1-.12c.49.24.46.94.33,1.46-.77,3.11-2.65,5.87-3.35,9a1.49,1.49,0,0,0,.24,1.47c1.59,1.36,4.22-1.91,5.17-2.91.6-.63,1.41-1.36,2.22-1a1.46,1.46,0,0,1,.8,1.4,4.16,4.16,0,0,1-.49,1.63,41.06,41.06,0,0,1-2.15,4.61c-.42.69-1.85,2.62-1.05,3.39a.79.79,0,0,0,.61.17,4.43,4.43,0,0,0,2.06-1.13,2.11,2.11,0,0,1,2.19-.46c.86.49.79,1.73.5,2.68-1,3.37-3.26,6.38-5.21,9.28-2.08,3.09-4.31,6.09-6.66,9a124.06,124.06,0,0,1-10.06,11c-3.11,3-6.88,6.24-11.42,6.53a22.15,22.15,0,0,1-8.67-1.71,6.72,6.72,0,0,1-3.39-3.59,1.56,1.56,0,0,1-.1-.67,1.73,1.73,0,0,1,.44-.76,46.32,46.32,0,0,0,4.26-5.23A11.6,11.6,0,0,0,368.12,253.37Z" class="cls-8"></path><path d="M359.6,236.48s9.32,1.17,16,.21-5.12-7.18-5.12-7.18-7.4-6.94-10.91-6.46S359.6,236.48,359.6,236.48Z" class="cls-12"></path><path d="M234.2,190.44s37.87,8.72,35.76,12,1.58,10,1.67,16.46c.12,7,4.47,14.44,10.3,21.52,4.08,5-3.17,10.89-9.62,12.19-27.8,5.6-45.35-5.53-39.47-15.17C246.05,215.81,234.2,190.44,234.2,190.44Z" class="cls-8"></path><path d="M271.63,218.93c-.09-6.47-3.79-13.15-1.67-16.46s-38.74-12.71-38.74-12.71a32.46,32.46,0,0,1,7.25,17c12,11.26,25.17,17,35.42,21.33A27.16,27.16,0,0,1,271.63,218.93Z" class="cls-15"></path><path d="M272.31,143.67c14.9,12.07,27.6,53.73,12,73.58-8.56,10.9-39.72-.68-54.33-24.41-1.9-3.08-6.56-20.72,1.23-40C234.71,144.15,256.82,131.13,272.31,143.67Z" class="cls-16"></path><path d="M289.51,176.48c0,2.56-3.35-25.2-17.91-27.08-5.92-.77-4.59,5.92-11.47,6.46-5.87.47-23.46-12.19-16.69,25.28.33,1.8-1.27,3.92-2,5.53-1,2,2,6.55,2,8.79s-6.09-4.47-6-2.31c.18,3.26,5.45,12.37,1.06,13.62-5.22,1.49-11.86-17.15-14.14-34.58-.59-4.48-4.1-21.93-4.36-25.7-.55-8,36.21-20,52.34-20,9.52,0,6.87,14,10.06,22.7C285.51,157.72,289.59,166.71,289.51,176.48Z" class="cls-17"></path><path d="M247.08,190.44s-10.76-10.14-16.69-7.23,2.4,20.25,14.65,17.85S250.39,193.18,247.08,190.44Z" class="cls-16"></path><rect transform="translate(282.38 402.95) rotate(180)" rx="3.15" height="55.69" width="138.79" y="173.63" x="71.79" class="cls-18"></rect><polygon points="165.28 226.68 165.28 244.23 138.75 226.68 165.28 226.68" class="cls-18"></polygon><path d="M796,917s219.28-198.21,165.58-273.64c-62.36-87.61-165.58,0-165.58,0Z" class="cls-4"></path><path d="M793.85,910.71s112-418.16-93.25-446.66C458.33,430.41,489.47,668.86,489.47,668.86s-102.05-92.66-173-42.2c-98.46,70,62.37,292.93,62.37,292.93Z" class="cls-4"></path><path d="M828.93,928.1S1011.46,738.66,916,693.36c0,0-53.35-10.39-87.05,108.34,0,0,87.05-185.51,19.66-196.25,0,0-64.59-50.1-81.44,166.14,0,0,8.43-132.75-50.54-140.78,0,0-132-39.56-11.24,300.54Z" class="cls-5"></path><path d="M804.78,929.78s88-91.36,42-113.21c0,0-25.73-5-42,52.26,0,0,42-89.47,9.48-94.66,0,0-31.15-24.15-39.27,80.13,0,0,4.06-64-24.38-67.89,0,0-63.65-19.08-5.42,144.94Z" class="cls-6"></path><path d="M187.35,934.46c-32.31,9.45,67.92,22.1,392.49,18.92C1020.28,949,948.23,933.48,968,932.26c101.82-6.26-133.24-12.33-383.63-12.33S200.15,930.73,187.35,934.46Z" class="cls-19"></path><path d="M773.91,563.27c1.43.23,2.86.42,4.28.66a57.75,57.75,0,0,1,10.18,2.74,11.14,11.14,0,0,1,4.23,2.42c4.9,5,6.08,11.56,4.23,18.29a25.1,25.1,0,0,1-7.47,12.28,19.67,19.67,0,0,1-13.34,5c-6.39-.18-12.13-3.78-17.27-7.56-4.64-3.41-9.2-7.11-14.68-9.1a40,40,0,0,0-18.22-2.06c-2.07.25-4.21.57-5.88,1.84a34,34,0,0,1-5.63,3.48c-2.39,1.17-5.07,2.08-7.67,1.55-2.82-.58-5.06-2.74-6.65-5.13-3.7-5.57-4.59-12.6-4.09-19.27s2.29-13.16,3.52-19.73c1-5.6,1.75-11.42,4.52-16.4,2-3.56,5.26-5.75,7.51-9a16.21,16.21,0,0,1,9.41-6.46c4.72-1.2,9.74-.55,14.4.86,3.66,1.11,7.28,2.85,9.69,5.85a37.11,37.11,0,0,1,5.7,10.88c1.82,5.07,3.12,10.35,5.42,15.23s5.78,9.46,10.69,11.71A26.76,26.76,0,0,0,773.91,563.27Z" class="cls-20"></path><path d="M692.83,902.14s-1.86,6.78,1.31,16.73c2.74,8.62-15.42,25.5-26.33,26.58-4.8.47-3-7.28,2.49-13.58,10.92-12.48,2.88-34.7,2.88-34.7Z" class="cls-21"></path><path d="M692.78,913.26s-9.84,28.49-23.81,20.26c0,0-8,8-4.22,12s14.41-.58,20-7.62c8.72-11,9.05-7.48,11.49-10.85C701.28,920.1,692.78,913.26,692.78,913.26Z" class="cls-20"></path><path d="M730,683.51c7.7,17-2.25,58.64-36.52,115.79-3.91,6.52,2.33,16.93,4.48,29.68,4.67,27.74-2.16,60.36-4.79,71.26a39.42,39.42,0,0,0-.85,6.77c-.65,10.34-12.47,13-13.14,11-4.74-14.31-24.63-86.42-22.17-116.47,3.59-43.89,22.18-119,32-136.71C689,664.86,718.57,658.1,730,683.51Z" class="cls-21"></path><path d="M765.67,896.84s0,7,5.68,15.8c4.92,7.59-8.14,28.66-18.38,32.58-4.5,1.72-4.82-6.22-1.18-13.75,7.23-14.92-6.39-34.23-6.39-34.23Z" class="cls-21"></path><path d="M768.56,907.59s-2,30.07-17.61,25.83c0,0-5.61,9.85-.91,12.68s13.75-4.36,17.3-12.63c5.52-12.88,6.75-9.61,8.21-13.51C778.57,911.94,768.56,907.59,768.56,907.59Z" class="cls-20"></path><path d="M743.83,676.14c11.93,14.42,13.31,57.17-4.65,121.33-2,7.32,6.72,15.72,12.15,27.44,11.84,25.53,13.86,58.79,14.2,70a39,39,0,0,0,1,6.75c2.1,10.14-8.59,15.87-9.77,14.11-8.35-12.55-46.57-76.85-52.14-106.49-8.12-43.27-10-120.65-5.25-140.3C699.35,669,726.05,654.67,743.83,676.14Z" class="cls-21"></path><path d="M610.79,622.06c-13.71,1.1-49.88-14.15-49.88-14.15l7.57-7,44.6,3.54S624.5,621,610.79,622.06Z" class="cls-21"></path><path d="M570.15,598.54c-.49-1.15-.32-2.7-.5-3.92a21.23,21.23,0,0,0-2.68-6.74c-.64-1.19-.6-4.45-2.32-4.72-2.81-.45-1.41,5-1.53,6.25a2.8,2.8,0,0,1-2,2.63,3.46,3.46,0,0,1-2.21-.54,69,69,0,0,1-6.23-4c-1.07-.7-2.17-1.33-3.28-2a13.41,13.41,0,0,0-2.65-1.68,1.31,1.31,0,0,0-1.69,1.07c0,.74.67.94,1.15,1.34,1.09.91,2.15,1.85,3.2,2.8.23.21,1.42,1,1.4,1.35-.11,1.68-3.31-.41-3.83-.72a7.51,7.51,0,0,0-4.3-1.43.7.7,0,0,0-.56.23c-.18.28,0,.64.27.88,1.34,1.4,3.16,2.28,4.47,3.71.21.23.43.54.32.84-.42,1.2-2.79.27-3.59,0-.51-.15-1.16-.28-1.49.13a.89.89,0,0,0,0,1,2.6,2.6,0,0,0,.74.7,24.52,24.52,0,0,0,2.53,1.78c.43.24,1.76.82,1.57,1.47a.51.51,0,0,1-.27.27,2.63,2.63,0,0,1-1.42,0,1.29,1.29,0,0,0-1.29.42c-.31.52.11,1.15.54,1.56a22.18,22.18,0,0,0,5.54,3.31c2,1,4.1,1.9,6.21,2.71a76.44,76.44,0,0,0,8.59,2.72c2.54.64,5.5,1.2,8,0a10.55,10.55,0,0,0,1.92-1.32,10.23,10.23,0,0,0,2.12-2.19,4.06,4.06,0,0,0,.7-2.91,1,1,0,0,0-.15-.39A1,1,0,0,0,577,603a26.55,26.55,0,0,1-3.81-1.47A7,7,0,0,1,570.15,598.54Z" class="cls-21"></path><path d="M607.88,622.12s52.58,4.61,73-12.35c12.76-10.62-17-19.54-17-19.54s-8.82,16-53.21,14C591.41,603.34,607.88,622.12,607.88,622.12Z" class="cls-21"></path><path d="M688.59,667.49c2,1.34,4.39,4,5.5,4.73,18.6,11.71,43.41,1.1,60.15-8.83,2.62-1.56,11.43,14.35,12.56,16.42a86.87,86.87,0,0,1,8.66,24.32c2.67,13.1,2.85,26.58,2.3,39.94-.49,12.1-1.65,24.51-7.06,35.35-7.72,15.47-35.17,8.45-47.3,2.94-11.52-5.23-21.23-13.64-31.25-21.35s-20.92-15-33.36-17.32c-2.7-.51-5.43-.77-8.16-1.07-1.44-.16-4.17.36-5-.88s.87-4.85,1.37-6.11c5.74-14.5,12.12-28.83,20.2-42.21a155.69,155.69,0,0,1,13.56-19.2c1.25-1.51,2.83-2.92,3.94-4.52.38-.56,1-2.74,1.67-2.94A2.9,2.9,0,0,1,688.59,667.49Z" class="cls-22"></path><path d="M665.5,623.44s48.52-12.39,47.84-32.68c-1-29.48-61,3.38-61,3.38S654.6,616.11,665.5,623.44Z" class="cls-10"></path><path d="M686.42,665.85c-1.87,3.44.9,7.18,8.3,10.17,20.89,8.31,58.46,4.49,64.89-7.78,3.59-6.81-16.31-4.34-5.46-34.35a89,89,0,0,1,10.78-20.51l-6-29.92a86.35,86.35,0,0,0-10.64-1.89,14.87,14.87,0,0,0-1.73-.29c-16.53-2.47-29.18-2.32-42.58-2.7h-1.27c-1.27-.07-2.9.41-4.25.34l-2.18.42S683.8,603.5,684.1,607.25c-.45,2.69,1.72,5.53.67,7.93C678.41,629.77,700,641.52,686.42,665.85Z" class="cls-10"></path><path d="M716.88,603.58c12,.15,25-11,31.36-22a14.87,14.87,0,0,0-1.73-.29c-3.66,5.68-7.78,10.62-13.54,14.51-6.81,4.49-17.66,8.24-25.6,2.7-7-4.79-6.21-13-3.44-19.91h-1.27C696.07,589.21,703.71,603.35,716.88,603.58Z" class="cls-23"></path><path d="M716.07,519s18-9.43,29.62,7.17-5,42-20.6,45.1c-1.49.3,8.74-20.08,7-25.93-.19-.61-.6-1.19-.74-1.8-.11-.44-.06-.94-.13-1.38a31,31,0,0,0-.67-3.61,37.14,37.14,0,0,0-2.29-6.71,32.4,32.4,0,0,0-6-9.19A15.58,15.58,0,0,0,719,520C718.45,519.68,716.74,518.68,716.07,519Z" class="cls-20"></path><path d="M735.22,549.63s-22.06,5-20.61,7.1-.59,6.78-.39,11.14c.2,4.73-2.23,9.88-5.61,14.87-2.37,3.49.82,7,4.93,7.62,17.68,2.74,25.9-10.09,25.9-10.09C732.26,571.63,735.22,549.63,735.22,549.63Z" class="cls-21"></path><path d="M714.22,567.87c-.2-4.36,1.85-9,.39-11.14s20.61-7.1,20.61-7.1A24.87,24.87,0,0,0,732,561.18c-7.8,6.69-12.52,9-18.79,12.25A15.49,15.49,0,0,0,714.22,567.87Z" class="cls-24"></path><path d="M715.94,521.22c-7,6.42-22.65,34-9.43,46.1,5.64,5.16,21.71-2.22,30.15-14.84,3.46-5.18,3.75-16.78-1.28-26.83C733.11,521.1,724,513.68,715.94,521.22Z" class="cls-21"></path><path d="M715.44,527.44s6.89,23.69,24.51,22.79c0,0,6-21.17-10.53-31.73,0,0-24.08-8.59-29.22,24C700.2,542.48,712.15,544,715.44,527.44Z" class="cls-20"></path><path d="M729.44,550.24s4.46-6.13,7.83-5.39.92,10.08-5.64,10.3S728,551.93,729.44,550.24Z" class="cls-21"></path><path d="M754.3,617.74c-2.15-6.66-1.36-15,5.7-18.22,4-1.81,9,2.2,12.83,6.24,9.24,9.71,28.47,53.13,16.64,64.92C778.6,681.5,761.06,638.79,754.3,617.74Z" class="cls-21"></path><path d="M792.17,654.31c13.13,5.34,38.27,27.49,38.27,27.49l5.07,15.27-2.15-1-5.7-2.75-8.14-3.93-9.47-4.57-9.69-4.68-8.79-4.24-6.79-3.27-2.12-1a6,6,0,0,1-3.14-3.48,10.07,10.07,0,0,1-.54-3.93,12.35,12.35,0,0,1,4.08-8.82,8.72,8.72,0,0,1,1.22-.87A9.13,9.13,0,0,1,792.17,654.31Z" class="cls-21"></path><path d="M855.71,716.16c.23-1.47-1.05-3.77-1.52-5.13a118.2,118.2,0,0,0-4.92-12,23.88,23.88,0,0,0-3.9-6.25,36.43,36.43,0,0,0-7.66-6c-1.36-.83-2.77-1.61-4.16-2.37a13.75,13.75,0,0,1-3.11-2.56L823,690.65a14.14,14.14,0,0,0,2.95,2.1,21.35,21.35,0,0,0,2.74,1.08,6.81,6.81,0,0,1,3.74,3.42,13.14,13.14,0,0,1,1,3.6c.28,1.47.55,2.94.82,4.41a10.69,10.69,0,0,0,1.33,4c.77,1.14,3.05,2.75,3.78.86.56-1.44,0-4.16-.52-5.54a1.16,1.16,0,0,1-.14-.68.79.79,0,0,1,.84-.53,2.29,2.29,0,0,1,1,.42c2.19,1.36,2.82,3.09,4.29,5,1.89,2.42,3.93,4.73,5.94,7a6.29,6.29,0,0,0,1.85,1.64A2.11,2.11,0,0,0,855.71,716.16Z" class="cls-21"></path><path d="M785.68,620.66s-14-43-32.4-36.78c-20.75,7,3.19,50,3.19,50S777.77,631.13,785.68,620.66Z" class="cls-9"></path><polygon points="842.8 393.05 810.89 434.76 817.66 386.28 842.8 393.05" class="cls-13"></polygon><path d="M956.44,396.05H819.84a26.39,26.39,0,0,1-26.16-22.9L788.07,331a26.38,26.38,0,0,1,26.16-29.87H962.05A26.38,26.38,0,0,1,988.21,331l-5.62,42.14A26.38,26.38,0,0,1,956.44,396.05Z" class="cls-13"></path><path d="M867,348.6a9.15,9.15,0,1,1-9.15-9.15A9.15,9.15,0,0,1,867,348.6Z" class="cls-4"></path><path d="M897.28,348.6a9.14,9.14,0,1,1-9.14-9.15A9.14,9.14,0,0,1,897.28,348.6Z" class="cls-4"></path><path d="M927.55,348.6a9.15,9.15,0,1,1-9.15-9.15A9.15,9.15,0,0,1,927.55,348.6Z" class="cls-4"></path><rect transform="translate(918.43 1435.53) rotate(180)" height="429.64" width="343.46" y="502.94" x="287.49" class="cls-3"></rect><path d="M319.2,676.28h277c2.21,0,4-2.75,4-6.12h0c0-3.36-1.8-6.11-4-6.11h-277c-2.21,0-4,2.75-4,6.11h0C315.18,673.53,317,676.28,319.2,676.28Z" class="cls-25"></path><path d="M319.2,698.74h277c2.21,0,4-2.75,4-6.11h0c0-3.37-1.8-6.12-4-6.12h-277c-2.21,0-4,2.75-4,6.12h0C315.18,696,317,698.74,319.2,698.74Z" class="cls-25"></path><path d="M319.2,732.44h277c2.21,0,4-2.75,4-6.11h0c0-3.37-1.8-6.12-4-6.12h-277c-2.21,0-4,2.75-4,6.12h0C315.18,729.69,317,732.44,319.2,732.44Z" class="cls-25"></path><path d="M319.2,754.91h277c2.21,0,4-2.76,4-6.12h0c0-3.36-1.8-6.11-4-6.11h-277c-2.21,0-4,2.75-4,6.11h0C315.18,752.15,317,754.91,319.2,754.91Z" class="cls-25"></path><path d="M319.2,799.84h277c2.21,0,4-2.76,4-6.12h0c0-3.36-1.8-6.11-4-6.11h-277c-2.21,0-4,2.75-4,6.11h0C315.18,797.08,317,799.84,319.2,799.84Z" class="cls-25"></path><path d="M319.2,822.3h277c2.21,0,4-2.75,4-6.11h0c0-3.37-1.8-6.12-4-6.12h-277c-2.21,0-4,2.75-4,6.12h0C315.18,819.55,317,822.3,319.2,822.3Z" class="cls-25"></path><path d="M319.2,856h277c2.21,0,4-2.75,4-6.12h0c0-3.36-1.8-6.11-4-6.11h-277c-2.21,0-4,2.75-4,6.11h0C315.18,853.25,317,856,319.2,856Z" class="cls-25"></path><path d="M319.2,878.46h277c2.21,0,4-2.75,4-6.11h0c0-3.36-1.8-6.12-4-6.12h-277c-2.21,0-4,2.76-4,6.12h0C315.18,875.71,317,878.46,319.2,878.46Z" class="cls-25"></path><rect transform="translate(918.43 1035.86) rotate(180)" height="29.97" width="343.46" y="502.94" x="287.49" class="cls-26"></rect><path d="M366.76,517.93a8.6,8.6,0,1,0,8.6-8.6A8.6,8.6,0,0,0,366.76,517.93Z" class="cls-18"></path><path d="M344.29,517.93a8.6,8.6,0,1,0,8.6-8.6A8.6,8.6,0,0,0,344.29,517.93Z" class="cls-27"></path><path d="M321.83,517.93a8.6,8.6,0,1,0,8.6-8.6A8.6,8.6,0,0,0,321.83,517.93Z" class="cls-10"></path><path d="M355.3,635.44l-12.88-53.93h11.15l8.13,37,9.86-37h12.95L394,619.18l8.28-37.67h11l-13.1,53.93H388.55l-10.74-40.32-10.7,40.32Z" class="cls-28"></path><path d="M416.55,608.81A34.38,34.38,0,0,1,419,595a25.51,25.51,0,0,1,5-7.39,21,21,0,0,1,7-4.85,29.5,29.5,0,0,1,11.63-2.14q11.91,0,19.07,7.4t7.16,20.56q0,13.05-7.1,20.43t-19,7.38q-12,0-19.13-7.34T416.55,608.81Zm11.22-.37q0,9.15,4.23,13.88a14.53,14.53,0,0,0,21.42,0q4.18-4.7,4.18-14.07t-4.07-13.83a15.06,15.06,0,0,0-21.64,0Q427.77,599.13,427.77,608.44Z" class="cls-28"></path><path d="M477.39,635.44V581.51h22.92q8.64,0,12.56,1.45a12.44,12.44,0,0,1,6.27,5.17,15.55,15.55,0,0,1,2.36,8.5,14.36,14.36,0,0,1-3.57,10q-3.57,4-10.67,5a25.42,25.42,0,0,1,5.83,4.52,61.85,61.85,0,0,1,6.2,8.76l6.58,10.52h-13L505,623.7a76.59,76.59,0,0,0-5.74-7.92,8.45,8.45,0,0,0-3.27-2.25,18.18,18.18,0,0,0-5.48-.6h-2.21v22.51Zm10.89-31.12h8.05q7.85,0,9.79-.66a5.92,5.92,0,0,0,3.05-2.28,7,7,0,0,0,1.11-4,6.47,6.47,0,0,0-1.46-4.4,6.66,6.66,0,0,0-4.1-2.11c-.88-.12-3.53-.19-7.94-.19h-8.5Z" class="cls-28"></path><path d="M531.91,635.44V581.51h10.88v24l22-24h14.64l-20.3,21,21.41,32.92H566.45l-14.83-25.31-8.83,9v16.3Z" class="cls-28"></path></svg>