<?xml version="1.0" standalone="no"?><!DOCTYPE svg PUBLIC "-//W3C//DTD SVG 1.1//EN" "http://www.w3.org/Graphics/SVG/1.1/DTD/svg11.dtd"><svg height="1024" node-id="1" sillyvg="true" template-height="1024" template-width="1024" version="1.1" viewBox="0 0 1024 1024" width="1024" xmlns="http://www.w3.org/2000/svg" xmlns:xlink="http://www.w3.org/1999/xlink"><defs node-id="87"></defs><path d="M 263.10 830.90 L 254.30 786.70 L 247.80 747.70 L 241.20 699.90 L 238.10 673.00 L 235.40 645.40 L 233.10 616.00 L 231.90 596.20 L 230.50 555.30 L 230.30 534.70 L 230.50 513.90 L 231.20 493.10 L 232.40 472.30 L 234.10 451.70 L 236.30 431.40 L 238.40 416.10 L 240.90 401.20 L 243.70 386.60 L 246.80 372.20 L 250.40 357.90 L 254.50 344.10 L 258.90 330.70 L 263.70 317.80 L 268.00 307.50 L 272.50 297.60 L 277.40 288.00 L 282.50 278.90 L 288.00 270.00 L 293.80 261.40 L 300.00 253.20 L 306.60 245.40 L 313.40 238.10 L 320.60 231.10 L 328.20 224.60 L 336.20 218.50 L 344.60 212.90 L 353.40 207.80 L 362.70 203.10 L 370.50 199.70 L 378.60 196.60 L 387.20 193.90 L 396.10 191.60 L 405.40 189.60 L 415.20 188.00 L 434.30 185.60 L 452.30 183.80 L 469.20 182.60 L 485.10 181.80 L 500.10 181.50 L 515.80 181.60 L 530.40 182.20 L 544.20 183.10 L 557.10 184.50 L 569.10 186.20 L 581.60 188.40 L 593.30 190.90 L 604.20 193.70 L 614.40 196.80 L 623.80 200.10 L 633.50 204.00 L 642.50 208.20 L 650.80 212.40 L 658.60 216.90 L 665.80 221.60 L 672.90 226.80 L 679.60 232.00 L 685.70 237.50 L 691.40 243.00 L 696.60 248.70 L 702.80 256.20 L 708.40 263.90 L 713.40 271.60 L 717.90 279.50 L 721.90 287.70 L 725.50 295.80 L 728.50 304.00 L 731.20 312.20 L 734.10 323.30 L 736.40 334.30 L 738.10 345.00 L 739.20 355.80 L 739.90 366.10 L 740.00 385.80 L 739.00 403.30 L 737.70 415.40 L 734.60 433.80 L 732.10 444.80 L 746.60 437.60 L 763.30 431.00 L 773.30 427.80 L 785.00 424.60 L 801.80 421.20 L 811.00 419.80 L 820.30 418.90 L 830.00 418.40 L 840.20 418.40 L 850.40 418.90 L 860.90 420.00 L 871.80 421.80 L 879.80 423.60 L 888.00 425.80 L 896.30 428.50 L 904.80 431.80 L 913.00 435.40 L 921.30 439.50 L 929.70 444.30 L 938.30 449.80 L 944.60 454.40 L 950.30 459.10 L 955.50 464.10 L 960.20 469.30 L 964.30 474.60 L 968.10 480.40 L 971.50 486.20 L 974.40 492.30 L 976.90 498.60 L 979.00 505.10 L 981.10 513.30 L 982.70 521.80 L 983.70 530.60 L 984.10 539.70 L 984.10 548.70 L 983.60 558.00 L 982.60 567.50 L 981.20 577.20 L 978.70 590.10 L 975.60 603.10 L 971.80 616.40 L 967.50 629.50 L 962.80 642.70 L 957.50 655.90 L 946.10 681.70 L 940.00 694.30 L 930.40 712.90 L 920.80 730.40 L 910.90 747.40 L 892.10 777.70 L 875.60 802.40 L 855.40 830.40 Z" fill="#f0f8ff" fill-rule="nonzero" node-id="89" stroke="none" target-height="649.4" target-width="753.8" target-x="230.3" target-y="181.5"></path><path d="M 947.50 249.40 L 948.30 213.00 L 904.80 202.10 L 902.50 201.20 L 900.50 199.80 L 898.90 198.00 L 895.60 190.60 L 894.90 188.20 L 894.80 185.70 L 895.30 183.40 L 896.40 181.10 L 921.30 144.30 L 896.30 117.70 L 858.00 140.30 L 854.40 141.60 L 850.70 141.70 L 848.80 141.30 L 838.00 136.80 L 835.00 134.40 L 832.90 131.20 L 822.50 85.80 L 786.10 85.80 L 776.30 129.40 L 774.80 133.20 L 772.20 136.30 L 770.50 137.50 L 761.90 141.20 L 757.90 141.60 L 754.00 140.70 L 714.80 117.70 L 689.80 144.30 L 714.00 180.50 L 714.90 182.70 L 715.30 185.10 L 715.30 187.60 L 715.00 190.00 L 713.70 193.60 L 711.20 197.70 L 707.40 200.80 L 705.30 201.80 L 663.20 210.50 L 662.30 247.00 L 706.70 258.30 L 708.40 259.20 L 711.30 261.80 L 713.30 265.30 L 714.30 269.40 L 713.90 273.40 L 713.30 275.30 L 688.80 311.80 L 713.80 338.40 L 750.80 316.80 L 752.60 316.30 L 756.40 316.30 L 760.10 317.50 L 768.80 321.80 L 770.70 323.60 L 772.20 325.80 L 773.10 328.40 L 782.30 369.10 L 818.80 369.10 L 827.20 332.10 L 828.70 328.50 L 831.30 325.80 L 833.00 324.80 L 847.00 319.70 L 849.50 319.50 L 852.10 319.90 L 854.50 320.90 L 890.60 342.30 L 915.60 315.70 L 894.60 284.70 L 893.00 280.90 L 892.80 276.90 L 893.20 274.90 L 898.30 263.30 L 899.40 261.80 L 902.20 259.30 L 905.80 257.80 Z M 818.20 294.40 L 812.80 295.20 L 807.50 295.60 L 802.30 295.60 L 797.10 295.10 L 791.90 294.30 L 786.90 293.00 L 782.00 291.40 L 777.30 289.40 L 772.70 287.00 L 768.30 284.20 L 764.20 281.20 L 760.30 277.70 L 756.60 274.00 L 753.30 270.00 L 750.20 265.60 L 747.40 261.00 L 745.10 256.10 L 743.20 251.10 L 741.70 246.10 L 740.60 241.00 L 739.90 235.80 L 739.70 230.60 L 739.80 225.50 L 740.40 220.40 L 741.30 215.30 L 742.70 210.30 L 744.40 205.50 L 746.60 200.70 L 749.10 196.10 L 751.90 191.80 L 755.20 187.60 L 758.90 183.60 L 762.90 179.90 L 767.10 176.60 L 771.50 173.70 L 776.00 171.20 L 780.80 169.10 L 785.70 167.30 L 790.60 166.00 L 795.70 165.00 L 800.80 164.50 L 806.00 164.30 L 811.10 164.60 L 816.30 165.30 L 821.40 166.30 L 826.40 167.80 L 831.40 169.70 L 836.30 172.10 L 841.00 174.90 L 845.30 177.90 L 849.30 181.30 L 853.10 184.90 L 856.50 188.90 L 859.60 193.00 L 862.30 197.40 L 864.70 201.90 L 866.70 206.70 L 868.40 211.60 L 869.60 216.60 L 870.50 221.70 L 870.90 226.90 L 871.00 232.20 L 870.60 237.50 L 869.70 242.80 L 868.60 247.70 L 865.30 256.80 L 863.10 261.10 L 859.80 266.60 L 856.00 271.70 L 851.80 276.40 L 847.00 280.70 L 842.00 284.50 L 836.50 287.80 L 832.20 289.90 L 823.00 293.20 L 818.20 294.40 Z" fill="#d9ebf9" fill-rule="nonzero" node-id="91" stroke="none" target-height="283.3" target-width="286" target-x="662.3" target-y="85.8"></path><path d="M 263.10 850.90 L 243.40 834.10 L 209.00 803.30 L 179.80 775.70 L 164.00 760.20 L 148.20 744.10 L 132.00 727.00 L 116.00 709.50 L 100.30 691.50 L 80.30 667.00 L 61.90 642.30 L 53.50 630.00 L 40.30 608.60 L 30.80 590.70 L 26.80 582.10 L 23.10 573.20 L 20.10 564.60 L 17.70 556.40 L 15.90 548.50 L 14.80 541.90 L 14.10 535.60 L 14.00 529.60 L 14.20 523.70 L 14.90 518.10 L 16.10 512.50 L 17.70 507.10 L 19.90 502.00 L 22.60 497.00 L 25.80 492.20 L 31.40 485.20 L 37.00 478.80 L 42.60 473.20 L 48.20 468.10 L 53.80 463.60 L 59.90 459.30 L 65.90 455.50 L 72.00 452.30 L 78.00 449.40 L 84.10 447.00 L 91.90 444.50 L 99.70 442.60 L 107.50 441.20 L 115.30 440.30 L 123.20 440.00 L 131.00 440.00 L 138.70 440.50 L 146.40 441.40 L 156.50 443.10 L 166.40 445.40 L 176.00 448.10 L 194.50 454.70 L 203.00 458.30 L 219.10 466.10 L 236.10 475.80 L 244.10 480.90 L 260.00 492.20 Z" fill="#f0f8ff" fill-rule="nonzero" node-id="93" stroke="none" target-height="410.90002" target-width="249.1" target-x="14" target-y="440"></path><path d="M 272.60 640.20 L 273.20 610.10 L 237.20 601.10 L 235.30 600.30 L 233.70 599.20 L 232.40 597.60 L 229.70 591.60 L 229.10 589.60 L 229.00 587.60 L 229.40 585.60 L 230.30 583.80 L 250.90 553.40 L 230.30 531.40 L 198.70 550.00 L 196.50 550.90 L 194.20 551.30 L 191.90 551.10 L 181.40 546.70 L 179.60 545.10 L 178.30 543.20 L 177.40 540.90 L 169.30 505.00 L 139.30 505.00 L 131.20 541.00 L 130.40 543.50 L 129.00 545.60 L 127.20 547.30 L 124.90 548.50 L 118.50 551.00 L 116.00 551.10 L 113.60 550.70 L 111.30 549.60 L 80.50 531.50 L 59.90 553.50 L 79.80 583.30 L 80.90 587.10 L 80.60 591.10 L 79.60 594.10 L 77.50 597.50 L 74.40 600.00 L 72.60 600.90 L 37.90 608.10 L 37.20 638.20 L 72.20 646.90 L 74.50 647.80 L 76.50 649.20 L 78.00 651.10 L 79.20 653.30 L 79.90 655.90 L 80.00 658.30 L 79.50 660.80 L 78.40 663.00 L 59.00 691.70 L 79.60 713.60 L 108.70 696.50 L 110.90 695.60 L 113.30 695.20 L 115.60 695.50 L 117.90 696.40 L 125.00 699.90 L 126.60 701.40 L 127.90 703.30 L 128.60 705.40 L 136.20 739.00 L 166.30 739.00 L 173.20 708.40 L 174.10 706.20 L 175.50 704.20 L 177.30 702.80 L 189.60 698.10 L 191.70 698.00 L 193.80 698.30 L 195.80 699.20 L 225.70 716.80 L 246.30 694.80 L 228.90 669.20 L 227.60 666.10 L 227.40 662.80 L 227.80 661.20 L 232.40 651.00 L 234.00 649.30 L 235.90 648.00 L 238.20 647.20 Z M 165.80 677.30 L 159.90 678.10 L 154.10 678.30 L 148.40 677.90 L 142.70 676.90 L 137.30 675.30 L 132.10 673.10 L 127.10 670.40 L 122.40 667.20 L 118.00 663.50 L 114.00 659.40 L 110.50 654.80 L 107.40 649.70 L 104.90 644.30 L 103.00 638.80 L 101.80 633.20 L 101.10 627.50 L 101.10 621.80 L 101.60 616.20 L 102.70 610.60 L 104.40 605.20 L 106.70 600.00 L 109.50 595.00 L 112.90 590.30 L 116.90 585.80 L 121.30 581.80 L 126.00 578.50 L 131.00 575.60 L 136.30 573.30 L 141.70 571.70 L 147.30 570.50 L 152.90 570.00 L 158.60 570.00 L 164.30 570.70 L 169.90 572.00 L 175.40 573.80 L 180.80 576.40 L 185.90 579.50 L 190.50 583.00 L 194.60 586.90 L 198.30 591.30 L 201.50 596.00 L 204.20 601.00 L 206.40 606.20 L 207.90 611.70 L 209.00 617.30 L 209.40 623.00 L 209.20 628.80 L 208.40 634.70 L 207.00 640.10 L 205.20 645.10 L 202.90 649.80 L 200.20 654.40 L 197.00 658.60 L 193.50 662.50 L 189.70 666.00 L 185.40 669.10 L 180.90 671.80 L 176.20 674.10 L 171.10 675.90 L 165.80 677.30 Z" fill="#d9ebf9" fill-rule="nonzero" node-id="95" stroke="none" target-height="234" target-width="236.00002" target-x="37.2" target-y="505"></path><path d="M 997.30 892.60 L 997.00 893.50 L 995.80 894.50 L 993.10 895.80 L 987.90 897.40 L 972.60 900.30 L 960.40 901.90 L 941.20 904.00 L 915.80 906.10 L 855.20 909.80 L 796.90 912.30 L 732.10 914.30 L 662.20 915.80 L 588.40 916.70 L 512.00 917.00 L 435.60 916.70 L 361.80 915.80 L 258.40 913.40 L 168.80 909.80 L 108.20 906.10 L 82.80 904.00 L 63.60 901.90 L 51.40 900.30 L 36.10 897.40 L 30.90 895.80 L 28.20 894.50 L 27.00 893.50 L 26.70 892.60 L 27.00 891.70 L 28.20 890.70 L 30.90 889.40 L 36.10 887.80 L 51.40 884.90 L 63.60 883.30 L 82.80 881.20 L 108.20 879.10 L 168.80 875.40 L 258.40 871.80 L 361.80 869.40 L 435.60 868.50 L 512.00 868.20 L 588.40 868.50 L 662.20 869.40 L 765.60 871.80 L 855.20 875.40 L 915.80 879.10 L 941.20 881.20 L 960.40 883.30 L 972.60 884.90 L 987.90 887.80 L 993.10 889.40 L 995.80 890.70 L 997.00 891.70 L 997.30 892.60 Z" fill="#bad3e2" fill-rule="nonzero" node-id="97" stroke="none" target-height="48.799988" target-width="970.6" target-x="26.7" target-y="868.2"></path><path d="M 599.00 879.50 L 446.00 880.20 L 466.80 862.70 L 446.00 817.40 L 446.00 739.10 L 599.00 739.10 L 602.60 831.20 L 627.40 857.70 L 599.00 879.50 Z" fill="#253369" fill-rule="nonzero" node-id="99" stroke="none" target-height="141.10004" target-width="181.40002" target-x="446" target-y="739.1"></path><path d="M 435.20 828.20 L 431.40 827.50 L 428.30 825.60 L 425.90 822.80 L 425.10 821.10 L 424.40 817.40 L 424.60 747.90 L 425.10 746.10 L 427.00 742.90 L 429.80 740.60 L 433.30 739.30 L 437.20 739.30 L 439.00 739.80 L 442.20 741.60 L 444.50 744.40 L 445.30 746.10 L 446.00 749.90 L 445.80 819.30 L 444.50 822.80 L 442.20 825.60 L 439.00 827.50 L 435.20 828.20 Z" fill="#253369" fill-rule="nonzero" node-id="101" stroke="none" target-height="88.900024" target-width="21.600006" target-x="424.4" target-y="739.3"></path><path d="M 492.50 877.10 L 489.30 879.30 L 485.80 880.20 L 482.10 879.90 L 480.40 879.30 L 477.20 877.10 L 426.80 824.00 L 426.00 822.70 L 425.60 820.40 L 426.30 818.00 L 427.60 816.20 L 431.00 812.80 L 432.70 811.90 L 436.20 811.00 L 439.90 811.30 L 441.60 811.90 L 444.80 814.10 L 491.90 860.00 L 493.20 861.50 L 494.90 865.30 L 495.40 869.60 L 494.60 873.70 L 492.50 877.10 Z" fill="#253369" fill-rule="nonzero" node-id="103" stroke="none" target-height="69.20001" target-width="69.79999" target-x="425.6" target-y="811"></path><path d="M 484.30 880.20 L 362.50 880.00 L 358.90 878.70 L 356.00 876.20 L 354.10 872.90 L 353.30 869.00 L 354.10 865.10 L 356.00 861.80 L 358.90 859.30 L 360.70 858.50 L 364.60 857.80 L 486.30 857.90 L 489.90 859.30 L 492.80 861.80 L 494.80 865.10 L 495.50 869.00 L 494.80 872.90 L 492.80 876.20 L 489.90 878.70 L 488.20 879.50 L 484.30 880.20 Z" fill="#253369" fill-rule="nonzero" node-id="105" stroke="none" target-height="22.400024" target-width="142.20001" target-x="353.3" target-y="857.8"></path><path d="M 597.20 827.80 L 593.40 827.10 L 590.30 825.20 L 587.90 822.40 L 587.10 820.80 L 586.40 817.00 L 586.60 747.50 L 587.90 744.00 L 590.20 741.20 L 593.40 739.40 L 597.20 738.70 L 601.00 739.40 L 602.60 740.20 L 605.40 742.50 L 607.30 745.70 L 608.00 749.50 L 607.80 819.00 L 606.50 822.40 L 604.20 825.20 L 601.00 827.10 L 597.20 827.80 Z" fill="#253369" fill-rule="nonzero" node-id="107" stroke="none" target-height="89.099976" target-width="21.599976" target-x="586.4" target-y="738.7"></path><path d="M 654.50 876.70 L 651.30 878.90 L 647.70 879.80 L 644.10 879.50 L 642.40 878.90 L 639.20 876.70 L 590.20 827.50 L 589.30 825.80 L 588.40 822.30 L 588.70 818.60 L 590.20 815.30 L 593.00 812.50 L 594.60 811.50 L 598.20 810.60 L 601.90 810.90 L 603.60 811.50 L 606.80 813.70 L 654.50 861.00 L 655.70 862.60 L 657.30 866.00 L 657.60 869.80 L 656.60 873.40 L 654.50 876.70 Z" fill="#253369" fill-rule="nonzero" node-id="109" stroke="none" target-height="69.20001" target-width="69.19995" target-x="588.4" target-y="810.6"></path><path d="M 646.20 879.90 L 524.50 879.70 L 520.90 878.40 L 518.00 875.90 L 516.00 872.60 L 515.30 868.70 L 516.00 864.70 L 518.00 861.40 L 520.90 859.00 L 524.50 857.60 L 648.30 857.60 L 651.90 859.00 L 654.80 861.40 L 656.80 864.70 L 657.50 868.70 L 656.80 872.60 L 655.90 874.30 L 653.50 877.20 L 650.20 879.20 L 646.20 879.90 Z" fill="#253369" fill-rule="nonzero" node-id="111" stroke="none" target-height="22.300049" target-width="142.20001" target-x="515.3" target-y="857.6"></path><path d="M 810.20 755.10 L 809.90 758.70 L 809.20 762.00 L 808.10 765.20 L 806.60 768.20 L 804.70 771.00 L 802.50 773.50 L 800.00 775.70 L 797.30 777.60 L 794.30 779.10 L 791.10 780.20 L 787.70 780.90 L 784.20 781.20 L 236.30 781.20 L 232.70 780.90 L 229.40 780.20 L 226.20 779.10 L 223.10 777.60 L 220.40 775.70 L 217.90 773.50 L 215.70 771.00 L 213.80 768.30 L 212.30 765.20 L 211.20 762.00 L 210.50 758.70 L 210.30 755.10 L 210.30 410.50 L 210.50 407.00 L 211.20 403.60 L 212.30 400.40 L 213.80 397.40 L 215.70 394.60 L 217.90 392.10 L 220.40 389.90 L 223.10 388.00 L 226.20 386.50 L 229.40 385.40 L 232.70 384.70 L 236.30 384.50 L 784.10 384.50 L 787.70 384.70 L 791.00 385.40 L 794.20 386.50 L 797.20 388.10 L 800.00 389.90 L 802.50 392.10 L 804.70 394.60 L 806.50 397.40 L 808.10 400.40 L 809.20 403.60 L 809.90 407.00 L 810.10 410.50 Z" fill="#253369" fill-rule="nonzero" node-id="113" stroke="none" target-height="396.7" target-width="599.9" target-x="210.3" target-y="384.5"></path><path d="M 830.80 755.10 L 830.60 758.70 L 829.90 762.00 L 828.80 765.20 L 827.30 768.20 L 825.40 771.00 L 823.20 773.50 L 820.70 775.70 L 818.00 777.60 L 815.00 779.10 L 811.80 780.20 L 808.40 780.90 L 804.80 781.20 L 257.00 781.20 L 253.40 780.90 L 250.10 780.20 L 246.90 779.10 L 243.90 777.60 L 241.10 775.70 L 238.60 773.50 L 236.40 771.00 L 234.60 768.20 L 233.00 765.20 L 231.90 762.00 L 231.20 758.70 L 231.00 755.10 L 231.00 410.50 L 231.20 407.00 L 231.90 403.60 L 233.00 400.40 L 234.60 397.40 L 236.40 394.60 L 238.60 392.10 L 241.10 389.90 L 243.90 388.10 L 246.90 386.50 L 250.10 385.40 L 253.40 384.70 L 257.00 384.50 L 804.80 384.50 L 808.40 384.70 L 811.70 385.40 L 814.90 386.50 L 817.90 388.10 L 820.70 389.90 L 823.20 392.10 L 825.40 394.60 L 827.20 397.40 L 828.80 400.40 L 829.90 403.60 L 830.60 407.00 L 830.80 410.50 Z" fill="#b3d0ff" fill-rule="nonzero" node-id="115" stroke="none" target-height="396.7" target-width="599.8" target-x="231" target-y="384.5"></path><path d="M 248.60 404.50 L 809.90 404.50 L 809.90 686.20 L 248.60 686.20 Z" fill="#f0f8ff" fill-rule="nonzero" node-id="117" stroke="none" target-height="281.7" target-width="561.30005" target-x="248.6" target-y="404.5"></path><path d="M 799.80 404.50 L 809.90 404.50 L 809.90 686.20 L 799.80 686.20 Z" fill="#cee8ef" fill-rule="nonzero" node-id="119" stroke="none" target-height="281.7" target-width="10.100037" target-x="799.8" target-y="404.5"></path><path d="M 257.00 781.20 L 804.80 781.20 L 808.40 780.90 L 811.70 780.20 L 814.90 779.10 L 817.90 777.60 L 820.70 775.70 L 823.20 773.50 L 825.40 771.00 L 827.20 768.20 L 828.80 765.20 L 829.90 762.00 L 830.60 758.70 L 830.80 755.10 L 830.80 716.00 L 231.00 716.00 L 231.00 755.10 L 231.20 758.70 L 231.90 762.00 L 233.00 765.20 L 234.60 768.30 L 236.40 771.00 L 238.60 773.50 L 241.10 775.70 L 243.90 777.60 L 246.90 779.10 L 250.10 780.20 L 253.40 780.90 L 257.00 781.20 Z" fill="#566182" fill-rule="nonzero" node-id="121" stroke="none" target-height="65.20001" target-width="599.8" target-x="231" target-y="716"></path><path d="M 316.20 511.90 L 316.30 514.40 L 317.60 519.10 L 320.00 523.40 L 321.70 525.30 L 323.60 526.90 L 327.80 529.30 L 332.50 530.60 L 335.00 530.80 L 748.60 530.80 L 751.10 530.60 L 755.80 529.30 L 760.00 526.90 L 761.90 525.30 L 763.50 523.40 L 766.00 519.10 L 767.20 514.40 L 767.40 511.90 L 767.40 252.60 L 766.80 247.70 L 764.90 243.20 L 761.90 239.20 L 758.00 236.20 L 753.50 234.40 L 748.60 233.70 L 335.00 233.70 L 332.50 233.90 L 327.80 235.20 L 323.60 237.60 L 321.70 239.20 L 320.00 241.10 L 317.60 245.40 L 316.40 250.10 L 316.20 252.60 Z" fill="#4c6ef4" fill-rule="nonzero" node-id="123" stroke="none" target-height="297.09998" target-width="451.2" target-x="316.2" target-y="233.7"></path><path d="M 335.00 233.70 L 751.10 233.90 L 753.40 234.40 L 758.00 236.20 L 761.90 239.20 L 764.90 243.20 L 766.80 247.70 L 767.40 252.60 L 767.40 287.60 L 316.20 287.60 L 316.20 252.60 L 316.30 250.10 L 317.60 245.40 L 320.00 241.10 L 323.50 237.60 L 325.60 236.20 L 330.10 234.40 L 335.00 233.70 Z" fill="#4c6ef4" fill-rule="nonzero" node-id="125" stroke="none" target-height="53.90001" target-width="451.2" target-x="316.2" target-y="233.7"></path><path d="M 721.70 260.80 L 722.30 264.10 L 723.00 265.50 L 724.50 267.40 L 726.40 268.90 L 727.80 269.60 L 731.10 270.20 L 734.40 269.60 L 737.70 267.40 L 739.20 265.50 L 740.30 262.50 L 740.40 260.80 L 739.90 257.50 L 739.20 256.10 L 737.70 254.20 L 735.80 252.70 L 734.40 252.00 L 731.10 251.50 L 727.50 252.20 L 724.50 254.20 L 722.40 257.20 L 721.70 260.80 Z" fill="#4c6ef4" fill-rule="nonzero" node-id="127" stroke="none" target-height="18.700012" target-width="18.700012" target-x="721.7" target-y="251.5"></path><path d="M 698.10 260.80 L 698.70 264.10 L 699.40 265.50 L 700.80 267.40 L 702.70 268.90 L 704.20 269.60 L 707.50 270.20 L 710.70 269.60 L 712.20 268.90 L 714.10 267.40 L 715.50 265.60 L 716.70 262.50 L 716.80 260.80 L 716.20 257.50 L 715.60 256.10 L 714.10 254.20 L 712.20 252.70 L 710.70 252.00 L 707.50 251.50 L 703.90 252.20 L 700.80 254.20 L 698.80 257.20 L 698.10 260.80 Z" fill="#4c6ef4" fill-rule="nonzero" node-id="129" stroke="none" target-height="18.700012" target-width="18.700012" target-x="698.1" target-y="251.5"></path><path d="M 675.30 260.80 L 675.90 264.10 L 676.60 265.50 L 678.00 267.40 L 679.90 268.90 L 681.40 269.60 L 684.70 270.20 L 687.90 269.60 L 689.40 268.90 L 691.30 267.40 L 692.70 265.50 L 693.80 262.50 L 694.00 260.80 L 693.40 257.50 L 692.70 256.10 L 691.30 254.20 L 689.40 252.70 L 687.90 252.00 L 684.70 251.50 L 681.10 252.20 L 678.00 254.20 L 676.00 257.20 L 675.30 260.80 Z" fill="#4c6ef4" fill-rule="nonzero" node-id="131" stroke="none" target-height="18.700012" target-width="18.700012" target-x="675.3" target-y="251.5"></path><path d="M 334.40 511.90 L 334.50 514.40 L 335.80 519.10 L 338.20 523.40 L 339.90 525.20 L 341.80 526.90 L 346.00 529.30 L 350.70 530.60 L 353.20 530.80 L 766.80 530.80 L 769.30 530.60 L 774.00 529.30 L 778.20 526.90 L 780.10 525.30 L 781.70 523.40 L 784.20 519.10 L 785.50 514.40 L 785.60 511.90 L 785.60 252.60 L 785.00 247.70 L 783.10 243.20 L 780.10 239.20 L 776.20 236.20 L 771.70 234.40 L 766.80 233.70 L 353.20 233.70 L 350.70 233.90 L 346.00 235.20 L 341.80 237.60 L 339.90 239.20 L 338.20 241.10 L 335.80 245.40 L 334.50 250.10 L 334.40 252.60 Z" fill="#ffffff" fill-rule="nonzero" node-id="133" stroke="none" target-height="297.09998" target-width="451.19998" target-x="334.4" target-y="233.7"></path><path d="M 353.20 233.70 L 769.30 233.90 L 771.70 234.40 L 776.20 236.20 L 780.10 239.20 L 783.10 243.20 L 785.00 247.70 L 785.60 252.60 L 785.60 287.60 L 334.40 287.60 L 334.40 252.60 L 334.50 250.10 L 335.80 245.40 L 338.20 241.10 L 341.80 237.60 L 343.80 236.20 L 348.30 234.40 L 353.20 233.70 Z" fill="#c9e1f9" fill-rule="nonzero" node-id="135" stroke="none" target-height="53.90001" target-width="451.19998" target-x="334.4" target-y="233.7"></path><path d="M 740.00 260.80 L 740.60 264.10 L 741.30 265.50 L 742.70 267.40 L 744.60 268.90 L 746.10 269.60 L 749.40 270.20 L 752.60 269.60 L 754.10 268.90 L 756.00 267.40 L 757.40 265.50 L 758.60 262.50 L 758.70 260.80 L 758.10 257.50 L 757.40 256.10 L 756.00 254.20 L 754.10 252.70 L 752.60 252.00 L 749.40 251.50 L 745.80 252.20 L 742.70 254.20 L 740.70 257.20 L 740.00 260.80 Z" fill="#969924" fill-rule="nonzero" node-id="137" stroke="none" target-height="18.700012" target-width="18.700012" target-x="740" target-y="251.5"></path><path d="M 716.30 260.80 L 716.90 264.10 L 717.60 265.50 L 719.10 267.40 L 720.90 268.90 L 722.40 269.60 L 725.70 270.20 L 729.00 269.60 L 730.40 268.90 L 732.30 267.40 L 733.80 265.60 L 734.90 262.50 L 735.10 260.80 L 734.50 257.50 L 733.80 256.10 L 732.30 254.20 L 730.40 252.70 L 729.00 252.00 L 725.70 251.50 L 722.10 252.20 L 719.10 254.20 L 717.00 257.20 L 716.30 260.80 Z" fill="#fec000" fill-rule="nonzero" node-id="139" stroke="none" target-height="18.700012" target-width="18.799988" target-x="716.3" target-y="251.5"></path><path d="M 693.50 260.80 L 694.10 264.10 L 694.80 265.50 L 696.30 267.40 L 698.20 268.90 L 699.60 269.60 L 702.90 270.20 L 706.10 269.60 L 707.60 268.90 L 709.50 267.40 L 710.90 265.50 L 712.10 262.50 L 712.20 260.80 L 711.60 257.50 L 710.90 256.10 L 709.50 254.20 L 707.60 252.70 L 706.10 252.00 L 702.90 251.50 L 699.30 252.20 L 696.30 254.20 L 694.20 257.20 L 693.50 260.80 Z" fill="#dc4026" fill-rule="nonzero" node-id="141" stroke="none" target-height="18.700012" target-width="18.700012" target-x="693.5" target-y="251.5"></path><path d="M 619.50 396.50 L 619.20 403.00 L 618.50 409.20 L 617.20 415.20 L 615.50 421.10 L 613.40 426.80 L 610.80 432.30 L 607.90 437.50 L 604.50 442.40 L 600.80 447.10 L 596.70 451.50 L 592.40 455.50 L 587.70 459.30 L 582.70 462.60 L 577.50 465.60 L 572.10 468.10 L 566.30 470.30 L 560.50 472.00 L 554.50 473.20 L 548.20 474.00 L 541.80 474.30 L 535.30 474.00 L 529.10 473.20 L 523.10 472.00 L 517.20 470.30 L 511.50 468.10 L 506.00 465.60 L 500.80 462.60 L 495.90 459.30 L 491.20 455.50 L 486.80 451.50 L 482.80 447.10 L 479.00 442.40 L 475.70 437.50 L 472.70 432.30 L 470.20 426.80 L 468.00 421.10 L 466.30 415.20 L 465.10 409.20 L 464.30 403.00 L 464.10 396.50 L 464.30 390.10 L 465.10 383.80 L 466.30 377.80 L 468.00 372.00 L 470.20 366.20 L 472.70 360.80 L 475.70 355.60 L 479.00 350.60 L 482.80 345.90 L 486.80 341.60 L 491.20 337.50 L 495.90 333.80 L 500.80 330.40 L 506.00 327.50 L 511.50 324.90 L 517.20 322.80 L 523.10 321.10 L 529.10 319.80 L 535.30 319.10 L 541.80 318.80 L 548.20 319.10 L 554.50 319.80 L 560.50 321.10 L 566.30 322.80 L 572.10 324.90 L 577.50 327.50 L 582.70 330.40 L 587.70 333.80 L 592.40 337.50 L 596.70 341.60 L 600.80 345.90 L 604.50 350.60 L 607.90 355.60 L 610.80 360.80 L 613.40 366.20 L 615.50 372.00 L 617.20 377.80 L 618.50 383.80 L 619.20 390.10 L 619.50 396.50 Z" fill="#ffffff" fill-rule="nonzero" node-id="143" stroke="none" target-height="155.5" target-width="155.4" target-x="464.1" target-y="318.8"></path><path d="M 546.00 348.70 L 546.30 351.30 L 546.10 353.80 L 545.40 356.30 L 544.30 358.50 L 542.70 360.50 L 540.70 362.30 L 538.40 363.50 L 536.00 364.30 L 533.40 364.60 L 530.90 364.40 L 528.50 363.70 L 526.10 362.50 L 524.10 360.90 L 522.40 359.00 L 521.20 356.70 L 520.40 354.30 L 520.10 351.80 L 520.30 349.20 L 521.00 346.60 L 522.20 344.40 L 523.70 342.40 L 525.70 340.80 L 527.90 339.50 L 530.40 338.70 L 532.80 338.40 L 535.00 338.50 L 539.30 339.90 L 542.80 342.60 L 544.20 344.40 L 545.30 346.40 L 546.00 348.70 Z" fill="#8d8dfc" fill-rule="nonzero" node-id="145" stroke="none" target-height="26.200012" target-width="26.200012" target-x="520.1" target-y="338.4"></path><path d="M 585.60 355.20 L 586.00 357.90 L 585.80 360.50 L 585.30 363.00 L 584.30 365.40 L 582.90 367.50 L 581.20 369.30 L 579.20 370.90 L 576.90 372.10 L 574.30 372.90 L 571.60 373.30 L 569.00 373.10 L 566.50 372.60 L 564.20 371.60 L 562.10 370.20 L 560.20 368.50 L 558.60 366.50 L 557.40 364.20 L 556.60 361.60 L 556.30 358.90 L 556.40 356.30 L 557.00 353.80 L 558.00 351.50 L 559.30 349.40 L 561.00 347.50 L 563.00 345.90 L 565.30 344.70 L 567.90 343.90 L 570.80 343.50 L 573.70 343.80 L 576.50 344.60 L 579.10 345.90 L 581.40 347.70 L 583.30 349.90 L 584.70 352.40 L 585.60 355.20 Z" fill="#7d7cfd" fill-rule="nonzero" node-id="147" stroke="none" target-height="29.799988" target-width="29.700012" target-x="556.3" target-y="343.5"></path><path d="M 516.00 369.40 L 516.30 371.90 L 516.10 374.30 L 515.50 376.60 L 514.40 378.70 L 512.90 380.60 L 511.00 382.30 L 508.80 383.50 L 506.60 384.20 L 504.20 384.50 L 501.80 384.30 L 499.50 383.70 L 497.20 382.60 L 495.30 381.00 L 493.70 379.20 L 492.50 377.10 L 491.80 374.80 L 491.50 372.40 L 491.70 370.00 L 492.40 367.50 L 493.40 365.40 L 494.90 363.50 L 496.80 362.00 L 498.80 360.80 L 501.20 360.00 L 505.60 359.80 L 509.70 361.10 L 513.00 363.70 L 514.30 365.40 L 516.00 369.40 Z" fill="#a2a2fc" fill-rule="nonzero" node-id="149" stroke="none" target-height="24.700012" target-width="24.799988" target-x="491.5" target-y="359.8"></path><path d="M 506.60 404.40 L 506.90 406.70 L 506.70 408.90 L 506.10 411.10 L 505.10 413.00 L 503.70 414.80 L 502.00 416.30 L 499.90 417.40 L 497.80 418.10 L 495.60 418.40 L 493.40 418.20 L 491.30 417.60 L 489.20 416.50 L 487.40 415.10 L 485.90 413.40 L 484.80 411.50 L 484.20 409.30 L 483.90 407.20 L 484.10 404.80 L 484.70 402.60 L 485.70 400.60 L 487.10 398.90 L 488.80 397.40 L 490.70 396.40 L 492.90 395.60 L 497.00 395.50 L 498.90 395.90 L 502.40 397.70 L 505.10 400.60 L 506.60 404.40 Z" fill="#b2b2f9" fill-rule="nonzero" node-id="151" stroke="none" target-height="22.899994" target-width="23" target-x="483.9" target-y="395.5"></path><path d="M 526.00 436.00 L 526.10 439.90 L 525.00 443.50 L 522.70 446.40 L 521.20 447.60 L 517.60 449.10 L 513.70 449.20 L 510.10 448.10 L 507.20 445.80 L 505.10 442.60 L 504.30 438.70 L 504.40 436.80 L 505.50 433.20 L 507.80 430.20 L 509.30 429.10 L 512.90 427.60 L 515.00 427.30 L 517.20 427.50 L 519.20 428.10 L 521.20 429.10 L 522.90 430.40 L 524.30 432.10 L 525.30 433.90 L 526.00 436.00 Z" fill="#c5c5fc" fill-rule="nonzero" node-id="153" stroke="none" target-height="21.900024" target-width="21.799988" target-x="504.3" target-y="427.3"></path><path d="M 561.40 443.50 L 561.50 447.10 L 560.20 450.40 L 557.70 453.00 L 554.40 454.50 L 550.80 454.60 L 547.40 453.20 L 544.80 450.70 L 543.40 447.50 L 543.30 443.90 L 544.60 440.50 L 547.10 437.90 L 550.40 436.50 L 553.70 436.30 L 557.30 437.70 L 559.20 439.20 L 560.10 440.40 L 561.40 443.50 Z" fill="#d4d4fc" fill-rule="nonzero" node-id="155" stroke="none" target-height="18.300018" target-width="18.200012" target-x="543.3" target-y="436.3"></path><path d="M 588.70 424.10 L 588.80 426.00 L 588.40 427.90 L 587.40 429.50 L 586.00 430.90 L 584.20 431.70 L 582.40 432.00 L 580.50 431.80 L 578.70 431.00 L 577.20 429.70 L 576.20 428.10 L 575.70 426.30 L 575.80 424.30 L 576.40 422.50 L 577.50 420.90 L 579.00 419.80 L 580.80 419.10 L 582.60 418.90 L 584.20 419.20 L 585.80 420.00 L 587.10 421.10 L 588.10 422.40 L 588.70 424.10 Z" fill="#e6e6ff" fill-rule="nonzero" node-id="157" stroke="none" target-height="13.100006" target-width="13.099976" target-x="575.7" target-y="418.9"></path><path d="M 531.20 397.40 L 529.30 396.20 L 528.30 394.80 L 527.90 393.00 L 528.40 390.90 L 529.70 389.30 L 531.10 388.40 L 534.30 387.80 L 537.50 388.40 L 539.60 389.90 L 540.50 391.70 L 540.40 394.10 L 539.70 395.40 L 538.60 396.40 L 536.90 397.40 L 538.60 398.10 L 540.00 399.30 L 540.80 400.70 L 541.00 403.40 L 540.00 405.50 L 539.20 406.30 L 537.50 407.20 L 535.80 407.60 L 533.90 407.80 L 530.60 407.10 L 528.40 405.50 L 527.40 403.60 L 527.60 400.90 L 528.30 399.60 L 529.40 398.40 L 531.20 397.40 Z M 534.10 399.10 L 532.50 400.00 L 531.70 401.00 L 531.40 402.30 L 531.60 403.30 L 533.10 404.60 L 535.30 404.60 L 536.30 404.10 L 536.90 403.30 L 537.10 402.30 L 536.80 401.00 L 535.80 400.00 L 534.10 399.10 Z M 536.60 393.10 L 536.00 391.50 L 534.30 390.90 L 532.60 391.50 L 532.00 393.10 L 532.20 394.10 L 532.90 395.00 L 534.30 395.80 L 535.60 395.00 L 536.40 394.10 L 536.60 393.10 Z" fill="#7d7cfd" fill-rule="nonzero" node-id="159" stroke="none" target-height="20" target-width="13.599976" target-x="527.4" target-y="387.8"></path><path d="M 550.00 407.80 L 547.90 407.60 L 546.30 406.80 L 545.00 405.70 L 544.00 403.90 L 543.30 401.50 L 543.10 398.10 L 543.30 394.80 L 544.00 392.30 L 545.00 390.50 L 546.00 389.30 L 548.80 388.00 L 552.40 388.10 L 554.00 388.80 L 555.20 390.00 L 556.20 391.70 L 556.90 394.20 L 557.10 397.70 L 556.90 400.90 L 556.20 403.40 L 555.30 405.20 L 553.00 407.20 L 550.00 407.80 Z M 550.20 391.10 L 549.30 391.30 L 548.60 391.90 L 548.00 393.00 L 547.60 394.90 L 547.40 398.00 L 548.00 402.70 L 548.60 403.80 L 550.10 404.60 L 551.00 404.40 L 551.60 403.80 L 552.20 402.70 L 552.80 397.80 L 552.20 392.90 L 551.60 391.80 L 550.90 391.30 L 550.20 391.10 Z" fill="#7d7cfd" fill-rule="nonzero" node-id="161" stroke="none" target-height="19.799988" target-width="14" target-x="543.1" target-y="388"></path><path d="M 563.80 398.00 L 561.50 397.40 L 560.50 396.70 L 559.30 394.50 L 559.20 393.20 L 559.30 391.80 L 560.60 389.30 L 561.60 388.50 L 564.10 387.90 L 566.50 388.50 L 567.50 389.20 L 568.60 391.50 L 568.70 392.80 L 568.60 394.20 L 567.40 396.60 L 566.30 397.40 L 563.80 398.00 Z M 577.90 388.20 L 565.30 407.50 L 562.00 407.50 L 574.60 388.20 Z M 564.10 390.30 L 562.60 390.90 L 562.20 391.70 L 562.10 393.00 L 562.60 395.10 L 563.10 395.50 L 564.70 395.50 L 565.70 394.20 L 565.90 392.90 L 565.60 391.30 L 565.00 390.50 L 564.10 390.30 Z M 575.80 407.80 L 573.50 407.20 L 571.80 405.40 L 571.40 404.30 L 571.40 401.60 L 572.60 399.20 L 574.80 397.90 L 577.40 397.80 L 578.50 398.30 L 579.50 399.00 L 580.20 400.10 L 580.70 402.60 L 580.60 404.00 L 579.40 406.40 L 578.30 407.20 L 575.80 407.80 Z M 576.10 400.10 L 574.60 400.70 L 574.10 402.90 L 574.30 404.10 L 575.20 405.30 L 576.80 405.30 L 577.40 404.80 L 577.80 404.00 L 577.80 401.70 L 577.40 400.80 L 576.10 400.10 Z" fill="#7d7cfd" fill-rule="nonzero" node-id="163" stroke="none" target-height="19.899994" target-width="21.5" target-x="559.2" target-y="387.9"></path><path d="M 368.70 469.60 L 743.80 469.60 L 743.80 485.20 L 368.70 485.20 Z" fill="#b3d0ff" fill-rule="nonzero" node-id="165" stroke="none" target-height="15.600006" target-width="375.09998" target-x="368.7" target-y="469.6"></path><path d="M 368.70 469.60 L 578.90 469.60 L 578.90 485.20 L 368.70 485.20 Z" fill="#5a88db" fill-rule="nonzero" node-id="167" stroke="none" target-height="15.600006" target-width="210.20001" target-x="368.7" target-y="469.6"></path><g node-id="262"><path d="M 961.50 842.60 L 658.70 842.60 L 658.70 727.30 L 961.50 727.30 Z" fill="#f19f22" fill-rule="nonzero" group-id="1" node-id="171" stroke="none" target-height="115.29999" target-width="302.8" target-x="658.7" target-y="727.3"></path></g><path d="M 961.50 727.30 L 809.60 612.30 L 658.70 727.30 L 961.50 727.30 Z" fill="#f2cc14" fill-rule="nonzero" node-id="174" stroke="none" target-height="115" target-width="302.8" target-x="658.7" target-y="612.3"></path><path d="M 926.90 865.40 L 692.80 865.40 L 691.10 865.10 L 688.40 863.60 L 687.50 862.30 L 686.90 860.90 L 686.60 859.20 L 686.60 682.70 L 732.60 637.60 L 926.90 637.60 L 928.60 637.80 L 930.00 638.40 L 931.30 639.40 L 932.20 640.70 L 932.90 642.10 L 933.10 643.80 L 933.10 859.20 L 932.90 860.90 L 932.20 862.30 L 931.30 863.60 L 930.00 864.50 L 928.60 865.10 L 926.90 865.40 Z" fill="#d6e6f2" fill-rule="nonzero" node-id="176" stroke="none" target-height="227.80005" target-width="246.5" target-x="686.6" target-y="637.6"></path><path d="M 732.60 637.60 L 732.60 682.70 L 686.60 682.70 L 732.60 637.60 Z" fill="#bdd6e5" fill-rule="nonzero" node-id="178" stroke="none" target-height="45.100037" target-width="46" target-x="686.6" target-y="637.6"></path><path d="M 810.10 828.40 L 961.30 727.30 L 961.60 860.10 L 960.80 866.10 L 958.70 871.50 L 956.50 874.70 L 954.00 877.40 L 950.90 879.60 L 945.80 881.90 L 940.00 882.80 L 680.50 883.30 L 677.50 883.10 L 672.00 881.60 L 669.50 880.30 L 666.50 878.00 L 663.90 875.30 L 661.70 872.10 L 659.60 866.80 L 659.00 863.90 L 658.80 860.70 L 658.70 727.30 Z" fill="#fbb433" fill-rule="nonzero" node-id="180" stroke="none" target-height="156" target-width="302.89996" target-x="658.7" target-y="727.3"></path><path d="M 940.00 882.80 L 810.20 776.30 L 680.50 883.30 L 940.00 882.80 Z" fill="#e08b03" fill-rule="nonzero" node-id="182" stroke="none" target-height="107" target-width="259.5" target-x="680.5" target-y="776.3"></path><path d="M 909.80 701.70 L 712.90 701.70 L 711.40 701.30 L 710.10 700.50 L 709.20 699.20 L 708.90 697.70 L 709.20 696.10 L 710.10 694.80 L 711.40 693.90 L 712.90 693.60 L 909.80 693.60 L 911.40 693.90 L 912.60 694.80 L 913.50 696.10 L 913.80 697.70 L 913.50 699.20 L 912.60 700.50 L 911.40 701.30 L 909.80 701.70 Z" fill="#ffffff" fill-rule="nonzero" node-id="184" stroke="none" target-height="8.100037" target-width="204.89996" target-x="708.9" target-y="693.6"></path><path d="M 909.80 721.80 L 712.90 721.80 L 711.40 721.40 L 710.10 720.60 L 709.20 719.30 L 708.90 717.70 L 709.20 716.10 L 710.10 714.80 L 711.40 714.00 L 712.90 713.60 L 909.80 713.60 L 911.40 714.00 L 912.60 714.80 L 913.50 716.10 L 913.80 717.70 L 913.50 719.30 L 912.60 720.60 L 911.40 721.40 L 909.80 721.80 Z" fill="#ffffff" fill-rule="nonzero" node-id="186" stroke="none" target-height="8.200012" target-width="204.89996" target-x="708.9" target-y="713.6"></path><path d="M 909.80 741.80 L 712.90 741.80 L 711.40 741.50 L 710.10 740.60 L 709.20 739.40 L 708.90 737.80 L 709.20 736.20 L 710.10 735.00 L 711.40 734.10 L 712.90 733.80 L 909.80 733.80 L 911.40 734.10 L 912.60 735.00 L 913.50 736.20 L 913.80 737.80 L 913.50 739.40 L 912.60 740.60 L 911.40 741.50 L 909.80 741.80 Z" fill="#ffffff" fill-rule="nonzero" node-id="188" stroke="none" target-height="8" target-width="204.89996" target-x="708.9" target-y="733.8"></path><path d="M 475.40 183.50 L 544.80 185.50 L 508.00 259.60 L 475.40 183.50 Z" fill="#ffa60e" fill-rule="nonzero" node-id="190" stroke="none" target-height="76.100006" target-width="69.399994" target-x="475.4" target-y="183.5"></path><path d="M 785.50 423.20 L 782.40 353.80 L 859.00 385.10 L 785.50 423.20 Z" fill="#82a816" fill-rule="nonzero" node-id="192" stroke="none" target-height="69.400024" target-width="76.599976" target-x="782.4" target-y="353.8"></path><path d="M 115.70 675.10 L 113.60 674.90 L 109.70 673.60 L 106.40 671.10 L 105.00 669.50 L 103.20 665.70 L 102.70 661.60 L 102.90 659.60 L 124.80 601.30 L 149.20 611.10 L 135.30 648.60 L 144.20 647.60 L 147.00 673.50 L 115.70 675.10 Z" fill="#616ac1" fill-rule="nonzero" node-id="194" stroke="none" target-height="73.79999" target-width="46.5" target-x="102.7" target-y="601.3"></path><path d="M 330.10 610.70 L 321.10 578.50 L 108.80 635.20 L 117.80 667.40 L 330.10 610.70 Z" fill="#367cff" fill-rule="nonzero" node-id="196" stroke="none" target-height="88.900024" target-width="221.3" target-x="108.8" target-y="578.5"></path><g node-id="263"><path d="M 330.10 610.70 L 321.10 578.50 L 108.80 635.20 L 117.80 667.40 L 330.10 610.70 Z" fill="#ffffff" fill-opacity="0.5" fill-rule="nonzero" group-id="2" node-id="200" stroke="none" target-height="88.900024" target-width="221.3" target-x="108.8" target-y="578.5"></path></g><g node-id="264"><path d="M 85.50 641.70 L 108.80 635.20 L 117.80 667.40 L 94.50 673.90 Z" fill="#262626" fill-rule="nonzero" group-id="3" node-id="205" stroke="none" target-height="38.700012" target-width="32.300003" target-x="85.5" target-y="635.2"></path></g><path d="M 330.10 610.70 L 350.00 588.20 L 343.80 585.80 L 321.10 578.50 Z" fill="#367cff" fill-rule="nonzero" node-id="208" stroke="none" target-height="32.200012" target-width="28.899994" target-x="321.1" target-y="578.5"></path><g node-id="265"><path d="M 330.10 610.70 L 350.00 588.20 L 343.80 585.80 L 321.10 578.50 Z" fill="#ffffff" fill-opacity="0.9" fill-rule="nonzero" group-id="4" node-id="212" stroke="none" target-height="32.200012" target-width="28.899994" target-x="321.1" target-y="578.5"></path></g><path d="M 341.60 597.70 L 350.00 588.20 L 337.70 583.80 Z" fill="#262626" fill-rule="nonzero" node-id="215" stroke="none" target-height="13.900024" target-width="12.299988" target-x="337.7" target-y="583.8"></path><path d="M 327.20 600.70 L 114.90 656.80 L 115.30 658.30 L 327.60 602.20 L 327.20 600.70 Z" fill="#ffffff" fill-rule="nonzero" node-id="217" stroke="none" target-height="57.599976" target-width="212.70001" target-x="114.9" target-y="600.7"></path><path d="M 323.70 588.10 L 111.40 644.20 L 111.80 645.70 L 324.10 589.60 L 323.70 588.10 Z" fill="#ffffff" fill-rule="nonzero" node-id="219" stroke="none" target-height="57.600037" target-width="212.70001" target-x="111.4" target-y="588.1"></path><path d="M 143.40 876.00 L 144.60 879.40 L 145.80 881.60 L 147.40 883.70 L 149.60 885.60 L 151.30 886.60 L 153.40 887.30 L 158.50 888.10 L 160.30 888.70 L 161.60 889.40 L 163.10 890.90 L 163.90 892.40 L 164.30 894.00 L 164.10 896.60 L 124.30 896.60 L 124.30 876.70 Z" fill="#367cff" fill-rule="nonzero" node-id="221" stroke="none" target-height="20.599976" target-width="40" target-x="124.3" target-y="876"></path><path d="M 131.10 673.30 L 131.10 699.20 L 130.20 740.60 L 122.60 883.10 L 148.70 882.80 L 174.00 672.10 L 131.10 673.30 Z" fill="#2c669b" fill-rule="nonzero" node-id="223" stroke="none" target-height="211" target-width="51.4" target-x="122.6" target-y="672.1"></path><path d="M 160.60 706.60 L 161.90 731.90 L 162.50 767.70 L 166.70 733.40 L 163.50 720.70 L 160.60 706.60 Z" fill="#253369" fill-rule="nonzero" node-id="225" stroke="none" target-height="61.100037" target-width="6.099991" target-x="160.6" target-y="706.6"></path><path d="M 189.90 876.00 L 191.10 879.40 L 192.30 881.60 L 193.90 883.70 L 196.10 885.60 L 197.80 886.60 L 199.90 887.30 L 205.00 888.10 L 206.80 888.70 L 208.10 889.40 L 209.60 890.90 L 210.40 892.40 L 210.80 894.00 L 210.60 896.60 L 170.80 896.60 L 170.80 876.70 Z" fill="#367cff" fill-rule="nonzero" node-id="227" stroke="none" target-height="20.599976" target-width="40" target-x="170.8" target-y="876"></path><path d="M 202.60 675.50 L 204.60 776.80 L 194.80 882.30 L 169.10 882.80 L 171.60 773.00 L 170.50 760.50 L 167.70 739.70 L 164.60 723.10 L 160.00 703.70 L 158.00 692.70 L 156.60 681.60 L 155.80 670.50 L 202.60 675.50 Z" fill="#2c669b" fill-rule="nonzero" node-id="229" stroke="none" target-height="212.29999" target-width="48.800003" target-x="155.8" target-y="670.5"></path><path d="M 130.90 673.30 L 130.80 672.60 Z" fill="#333333" fill-rule="nonzero" node-id="231" stroke="none" target-height="0.7000122" target-width="0.099990845" target-x="130.8" target-y="672.6"></path><path d="M 206.20 621.90 L 202.60 675.50 L 131.20 675.50 L 130.40 646.20 L 129.20 624.20 L 128.20 618.00 L 124.70 603.30 L 125.20 600.40 L 126.50 598.40 L 130.20 594.90 L 133.70 592.90 L 137.30 591.30 L 141.00 590.20 L 148.60 589.00 L 154.10 588.60 L 154.90 591.70 L 155.90 593.70 L 158.00 596.20 L 161.30 598.20 L 166.50 599.20 L 172.20 598.90 L 174.20 598.40 L 177.60 596.80 L 180.10 594.20 L 180.90 592.60 L 181.60 588.60 L 191.50 589.70 L 197.70 591.00 L 200.40 592.00 L 201.90 592.90 L 203.80 594.90 L 205.30 596.80 L 207.00 600.80 L 207.70 605.20 L 207.60 608.70 L 206.20 621.90 Z" fill="#616ac1" fill-rule="nonzero" node-id="233" stroke="none" target-height="86.900024" target-width="83" target-x="124.7" target-y="588.6"></path><g node-id="266"><path d="M 190.20 587.80 L 188.60 590.20 L 185.50 592.60 L 181.00 594.10 L 178.40 594.60 L 170.80 594.70 L 167.90 594.30 L 163.50 592.90 L 160.80 591.40 L 159.00 589.90 L 155.80 585.80 L 159.70 584.90 L 161.10 584.10 L 163.10 581.60 L 163.60 580.10 L 164.10 576.40 L 164.40 566.20 L 182.60 570.30 L 182.30 579.60 L 182.70 582.10 L 183.50 584.20 L 185.40 586.30 L 190.20 587.80 Z" fill="#ff9e85" fill-rule="nonzero" group-id="5" node-id="236" stroke="none" target-height="28.5" target-width="34.399994" target-x="155.8" target-y="566.2"></path></g><path d="M 182.00 579.10 L 177.10 578.90 L 172.00 577.40 L 169.80 576.20 L 167.70 574.50 L 166.00 572.50 L 164.70 570.10 L 163.90 567.10 L 161.90 555.20 L 162.30 549.40 L 163.10 546.70 L 164.30 544.30 L 165.90 542.30 L 167.90 540.60 L 170.30 539.30 L 173.20 538.50 L 176.20 538.30 L 179.00 538.60 L 181.70 539.40 L 184.20 540.70 L 186.40 542.40 L 188.40 544.60 L 190.00 547.10 L 191.20 549.80 L 192.80 556.80 L 193.20 563.00 L 192.40 568.90 L 190.60 573.70 L 188.10 576.70 L 186.50 577.80 L 184.50 578.60 L 182.00 579.10 Z" fill="#ff9e85" fill-rule="nonzero" node-id="239" stroke="none" target-height="40.799988" target-width="31.300003" target-x="161.9" target-y="538.3"></path><path d="M 188.70 570.30 L 186.90 558.30 L 186.80 554.90 L 188.10 550.80 L 187.80 546.50 L 190.50 547.50 L 192.00 547.60 L 190.50 543.70 L 189.20 541.20 L 187.50 538.60 L 185.10 536.10 L 181.20 533.30 L 178.80 532.30 L 173.90 531.30 L 170.40 531.20 L 165.80 531.50 L 160.50 532.80 L 157.40 534.10 L 154.10 536.10 L 150.20 539.60 L 148.40 542.00 L 147.00 544.60 L 145.90 547.60 L 145.10 551.30 L 144.10 559.50 L 142.10 569.60 L 139.90 575.50 L 135.80 582.80 L 133.80 587.80 L 133.30 590.60 L 133.10 594.30 L 133.50 596.80 L 134.40 599.00 L 135.80 600.90 L 137.70 602.60 L 142.70 605.20 L 147.20 606.60 L 152.20 607.60 L 162.60 608.50 L 172.30 608.30 L 178.00 607.70 L 182.60 606.70 L 186.30 605.40 L 189.20 603.80 L 191.40 602.20 L 193.00 600.30 L 194.20 598.10 L 195.00 595.70 L 195.30 592.90 L 195.10 589.20 L 194.70 586.70 L 193.90 584.50 L 190.80 577.80 L 188.70 570.30 Z" fill="#0a0a0a" fill-rule="nonzero" node-id="241" stroke="none" target-height="77.29999" target-width="62.199997" target-x="133.1" target-y="531.2"></path><path d="M 273.20 625.20 L 280.90 614.60 L 282.40 614.40 L 283.10 614.80 L 283.80 616.10 L 283.40 617.50 L 281.90 619.60 L 290.50 614.70 L 292.00 614.80 L 292.60 615.40 L 292.80 616.60 L 292.30 617.80 L 294.40 616.70 L 296.00 617.30 L 296.50 618.00 L 296.40 619.30 L 295.00 620.70 L 295.70 620.60 L 296.90 621.10 L 297.50 622.40 L 297.10 623.80 L 295.10 625.20 L 296.50 625.70 L 297.20 626.70 L 297.30 627.30 L 296.80 628.50 L 282.60 637.10 L 280.70 637.60 L 276.90 637.40 L 273.40 635.80 L 272.20 634.50 L 271.30 633.20 L 270.90 631.60 L 270.80 630.00 L 271.20 628.40 L 273.10 625.20 Z" fill="#ff9e85" fill-rule="nonzero" node-id="243" stroke="none" target-height="23.199951" target-width="26.700012" target-x="270.8" target-y="614.4"></path><g node-id="267"><path d="M 284.50 622.40 L 292.20 618.10 L 292.20 617.70 L 284.50 622.40 Z" fill="#0c0c0c" fill-opacity="0.2" fill-rule="nonzero" group-id="6" node-id="247" stroke="none" target-height="4.700012" target-width="7.700012" target-x="284.5" target-y="617.7"></path></g><g node-id="268"><path d="M 286.30 625.80 L 295.00 620.70 L 286.30 625.80 Z" fill="#0c0c0c" fill-opacity="0.2" fill-rule="nonzero" group-id="7" node-id="252" stroke="none" target-height="5.0999756" target-width="8.700012" target-x="286.3" target-y="620.7"></path></g><g node-id="269"><path d="M 288.30 629.40 L 295.30 625.40 L 295.10 625.20 L 288.30 629.40 Z" fill="#0c0c0c" fill-opacity="0.2" fill-rule="nonzero" group-id="8" node-id="257" stroke="none" target-height="4.200012" target-width="7" target-x="288.3" target-y="625.2"></path></g><path d="M 204.60 596.00 L 234.20 640.40 L 271.50 618.70 L 285.00 640.80 L 237.20 671.50 L 234.90 672.70 L 232.60 673.40 L 230.30 673.70 L 227.90 673.60 L 223.50 672.20 L 221.40 671.00 L 219.60 669.50 L 218.10 667.50 L 180.90 611.80 L 204.60 596.00 Z" fill="#616ac1" fill-rule="nonzero" node-id="260" stroke="none" target-height="77.70001" target-width="104.100006" target-x="180.9" target-y="596"></path></svg>