<svg viewBox="0 0 1024 1024" xmlns="http://www.w3.org/2000/svg" id="图层_1"><defs><style>.cls-1{fill:#d7e4f9;}.cls-2{fill:#ffb31a;}.cls-3{fill:#ff8f18;}.cls-4{fill:#4c6ef4;}.cls-5{fill:#fff;}.cls-6{fill:#adbedf;}.cls-7{fill:#d3e2f3;}.cls-8{fill:#5587eb;}.cls-9{fill:#3165cc;}.cls-10{fill:#e0eaff;}.cls-11{fill:#314992;}.cls-12{fill:#abcbdd;}.cls-13{fill:none;stroke:#fff;}.cls-14{fill:#bad6f7;}.cls-15{fill:#6facd1;}.cls-16,.cls-17{fill:#7fb3db;}.cls-17,.cls-19,.cls-34{fill-rule:evenodd;}.cls-18{fill:#e6713e;}.cls-19{fill:#5558a5;}.cls-20{fill:#ff9e85;}.cls-21{opacity:0.1;}.cls-22{fill:#0c0c0c;}.cls-23{fill:#367cff;}.cls-24{fill:#262626;}.cls-25{fill:#0a0a0a;}.cls-26{fill:#333;}.cls-27{fill:#fbb99d;}.cls-28{isolation:isolate;opacity:0.22;}.cls-29{fill:#f2a261;}.cls-30{fill:#ff7946;}.cls-31{opacity:0.25;}.cls-32{fill:#ffa35f;}.cls-33,.cls-34{fill:#afc0e0;}.cls-35{fill:#3a3a77;}</style></defs><ellipse ry="24.36" rx="485.33" cy="914.18" cx="508.2" class="cls-1"></ellipse><rect height="123.2" width="185.32" y="123.47" x="747.51" class="cls-2"></rect><polygon points="747.51 123.47 840.16 200.91 932.83 123.47 932.83 246.67 747.51 246.67 747.51 123.47" class="cls-3"></polygon><path d="M726.88,124.59a21.83,21.83,0,1,0,21.84-22A21.93,21.93,0,0,0,726.88,124.59Z" class="cls-4"></path><path d="M746.35,119.2h-.06l-4.1,2-.84-3.77,5.7-2.65h4.18v21.52h-4.88Z" class="cls-5"></path><rect transform="matrix(0.82, -0.57, 0.57, 0.82, -383.36, 341.33)" height="31.22" width="12.11" y="771.01" x="350.71" class="cls-6"></rect><rect transform="translate(-377.36 333.37) rotate(-34.57)" height="10.72" width="47.75" y="767.65" x="323.09" class="cls-6"></rect><rect transform="translate(-409.81 791.17) rotate(-55.43)" height="12.11" width="31.22" y="779.57" x="532.5" class="cls-6"></rect><rect transform="translate(-394.35 793.34) rotate(-55.43)" height="47.75" width="10.72" y="748.13" x="552.55" class="cls-6"></rect><path d="M452.06,761.7A135.15,135.15,0,0,0,317,896.88c0,4.4.22,8.75.63,13H586.5c.41-4.3.63-8.64.63-13A135.08,135.08,0,0,0,452.06,761.7Z" class="cls-7"></path><path d="M452.06,772.89a124,124,0,0,0-123.93,124,129.33,129.33,0,0,0,.69,13H575.27a126.89,126.89,0,0,0,.68-13A123.88,123.88,0,0,0,452.06,772.89Z" class="cls-6"></path><path d="M537.79,896.86a85.71,85.71,0,1,0-170.43,13H536.8A86.28,86.28,0,0,0,537.79,896.86Z" class="cls-5"></path><path d="M471.65,896.86a19.57,19.57,0,1,0-34.12,13h29.11A19.52,19.52,0,0,0,471.65,896.86Z" class="cls-8"></path><rect transform="translate(-477.45 593.29) rotate(-45.01)" rx="2.8" height="5.59" width="75.48" y="870.01" x="439.49" class="cls-9"></rect><path d="M452.08,775.92h0a3,3,0,0,1,3,3V795a3,3,0,0,1-3,3h0a3,3,0,0,1-3-3V778.94A3,3,0,0,1,452.08,775.92Z" class="cls-7"></path><path d="M522.43,823.31,533.8,812a3,3,0,0,1,4.28,0h0a3,3,0,0,1,0,4.28L526.71,827.6a3,3,0,0,1-4.28,0h0A3,3,0,0,1,522.43,823.31Z" class="cls-7"></path><path d="M554.33,895.23h16.06a3,3,0,0,1,3,3h0a3,3,0,0,1-3,3H554.33a3,3,0,0,1-3-3h0A3,3,0,0,1,554.33,895.23Z" class="cls-7"></path><rect transform="translate(-469.83 504.29) rotate(-45.01)" rx="3.03" height="22.13" width="6.06" y="808.05" x="370.61" class="cls-7"></rect><path d="M332.84,894.3h16.07a3,3,0,0,1,3,3h0a3,3,0,0,1-3,3H332.84a3,3,0,0,1-3-3h0A3,3,0,0,1,332.84,894.3Z" class="cls-7"></path><rect height="217.38" width="319.92" y="187.71" x="86.47" class="cls-10"></rect><rect height="28.71" width="319.92" y="187.71" x="86.47" class="cls-11"></rect><circle r="21.88" cy="270.27" cx="136.04" class="cls-5"></circle><path d="M368.34,265.63H181.91c-2.88,0-5.21-2.75-5.21-6.14s2.33-6.15,5.21-6.16H368.36c2.88,0,5.22,2.76,5.22,6.16S371.22,265.66,368.34,265.63Z" class="cls-5"></path><path d="M266,286.14H181.72c-2.77,0-5-1.84-5-4.11s2.25-4.08,5-4.09H266c2.77,0,5,1.83,5,4.09S268.79,286.15,266,286.14Z" class="cls-5"></path><path d="M189.51,356.37H118.78V310.25h70.73Zm-69.73-1h68.73V311.25H119.78Z" class="cls-5"></path><path d="M382.28,356.37H209V310.25H382.28Zm-172.26-1H381.28V311.25H210Z" class="cls-5"></path><rect height="221.48" width="324.02" y="530.71" x="656.58" class="cls-12"></rect><rect height="32.81" width="324.02" y="530.71" x="656.58" class="cls-11"></rect><path d="M938.48,608.64H752c-2.88,0-5.21-2.77-5.21-6.17s2.34-6.12,5.21-6.14H938.48c2.87,0,5.2,2.76,5.21,6.14S941.36,608.62,938.48,608.64Z" class="cls-5"></path><path d="M840,633.25H752c-2.88,0-5.23-1.84-5.23-4.1S749.16,625,752,625h88c2.89,0,5.24,1.84,5.23,4.11S842.91,633.26,840,633.25Z" class="cls-5"></path><rect height="45.12" width="164.06" y="657.86" x="783.73" class="cls-13"></rect><rect height="332.22" width="319.92" y="292.82" x="361.27" class="cls-14"></rect><rect height="32.81" width="319.92" y="292.82" x="361.27" class="cls-15"></rect><rect height="45.12" width="73.83" y="350.24" x="394.08" class="cls-5"></rect><rect height="45.12" width="164.06" y="350.24" x="484.32" class="cls-5"></rect><rect height="94.33" width="28.71" y="481.49" x="426.9" class="cls-16"></rect><rect height="110.74" width="32.81" y="465.09" x="480.22" class="cls-16"></rect><rect height="127.15" width="32.81" y="448.68" x="533.54" class="cls-16"></rect><rect height="151.76" width="32.81" y="424.07" x="586.86" class="cls-16"></rect><path d="M404.34,590.18H640.18v-4.1H408.44V493.8h-4.1Z" class="cls-17"></path><rect transform="translate(57.16 908.98) rotate(-75.71)" height="12" width="0.5" y="411.72" x="613.12" class="cls-18"></rect><rect transform="translate(54.21 912.02) rotate(-75.8)" height="11.99" width="0.5" y="415.19" x="612.6" class="cls-18"></rect><rect transform="translate(50.43 914.87) rotate(-75.73)" height="12.02" width="0.5" y="418.99" x="613.29" class="cls-18"></rect><path d="M168.5,651.7c0-5.66-5.51-10.25-12.3-10.25S143.89,646,143.89,651.7,149.4,662,156.2,662,168.49,657.36,168.5,651.7Z" class="cls-5"></path><path d="M64.26,530.49h95a24.34,24.34,0,0,0,17.09-6.55,21.48,21.48,0,0,0,0-32,24.29,24.29,0,0,0-17.09-6.55h-95a24.3,24.3,0,0,0-17.1,6.55,21.48,21.48,0,0,0,0,32A24.35,24.35,0,0,0,64.26,530.49Zm109.35-9.57a20.37,20.37,0,0,1-14.31,5.46h-95A20.33,20.33,0,0,1,50,520.92a17.36,17.36,0,0,1,0-26,20.33,20.33,0,0,1,14.31-5.46h95a20.37,20.37,0,0,1,14.31,5.46,17.38,17.38,0,0,1,0,26Z" class="cls-17"></path><path d="M158.14,522.33H65.47c-7.25,0-13.11-6.44-13.11-14.36s5.87-14.35,13.11-14.35h92.71c7.25,0,13.12,6.43,13.12,14.35S165.41,522.35,158.14,522.33Z" class="cls-16"></path><path d="M895.52,323.83l-3.58-3.17a2.38,2.38,0,0,0-3.37.21,38.74,38.74,0,0,0-6.93,10.36,2.76,2.76,0,0,0,.92,3.46l4,2.64a2.71,2.71,0,0,1,1.06,2.95,32.39,32.39,0,0,0-1,5.88,2.58,2.58,0,0,1-1.71,2.23l-5.12,1.75a2.65,2.65,0,0,0-1.72,2.85,41.08,41.08,0,0,0,3.35,12.6,2.47,2.47,0,0,0,3,1.43l4.74-1.59a2.36,2.36,0,0,1,2.73.94,28.87,28.87,0,0,0,1.77,2.35,24.52,24.52,0,0,0,1.9,2,2.73,2.73,0,0,1,.57,2.92l-1.9,5.11a2.77,2.77,0,0,0,1,3.27,36.14,36.14,0,0,0,11.31,5,2.46,2.46,0,0,0,2.9-1.58l1.9-5a2.44,2.44,0,0,1,2.38-1.65,26.11,26.11,0,0,0,5.92-.41A2.48,2.48,0,0,1,922.3,380l1.9,4.47a2.45,2.45,0,0,0,3.12,1.42A36.26,36.26,0,0,0,938,379.52a2.77,2.77,0,0,0,.72-3.25l-2.4-5.39a2.77,2.77,0,0,1,.31-2.79,31.61,31.61,0,0,0,3.06-4.73,2.39,2.39,0,0,1,2.73-1.26l4.55,1.15a2.44,2.44,0,0,0,2.93-1.72,41.44,41.44,0,0,0,2-12.81,2.6,2.6,0,0,0-2-2.62l-5.2-1.06a2.52,2.52,0,0,1-1.9-2,32.92,32.92,0,0,0-1.56-5.64,2.74,2.74,0,0,1,.74-3l3.81-3.29a2.81,2.81,0,0,0,.51-3.5,38.22,38.22,0,0,0-3.62-5.1,35.48,35.48,0,0,0-4.41-4.51,2.37,2.37,0,0,0-3.32.16l-3.46,3.6a2.32,2.32,0,0,1-2.9.43,26.36,26.36,0,0,0-5.5-2.42,2.62,2.62,0,0,1-1.77-2.52v-5.13a2.58,2.58,0,0,0-2.23-2.62,34.54,34.54,0,0,0-12,.71,2.66,2.66,0,0,0-1.91,2.85l.48,5.16a2.63,2.63,0,0,1-1.49,2.68,27.24,27.24,0,0,0-5.62,3.14A2.33,2.33,0,0,1,895.52,323.83Zm20.78,4.66c23.73,5.21,21.9,38.18-2.21,40.38a3.57,3.57,0,0,1-.8,0c-23.69-5.21-21.88-38.18,2.23-40.38A3.39,3.39,0,0,1,916.3,328.49Z" class="cls-15"></path><path d="M847.55,374l-3-2.5a2.08,2.08,0,0,0-2.83.14,31.31,31.31,0,0,0-5.8,8.24,2.15,2.15,0,0,0,.77,2.74l3.33,2a2,2,0,0,1,.91,2.32,23.71,23.71,0,0,0-.83,4.66,2,2,0,0,1-1.44,1.78l-4.28,1.38A2.14,2.14,0,0,0,833,397a32.54,32.54,0,0,0,2.8,10,2.11,2.11,0,0,0,2.51,1.12l4-1.26a2,2,0,0,1,2.27.74,22.22,22.22,0,0,0,1.48,1.88c.49.56,1,1.1,1.56,1.62a2,2,0,0,1,.47,2.3l-1.64,4a2,2,0,0,0,.83,2.6,30.61,30.61,0,0,0,9.46,4,2,2,0,0,0,2.4-1.26l1.58-4a2.09,2.09,0,0,1,2-1.32,24.09,24.09,0,0,0,4.95-.3,2,2,0,0,1,2.21,1.2l1.58,3.54A2,2,0,0,0,874,423a29.75,29.75,0,0,0,8.88-5,2.11,2.11,0,0,0,.61-2.58l-2-4.28a2,2,0,0,1,.26-2.2,23.42,23.42,0,0,0,2.5-3.58,2,2,0,0,1,2.29-1l3.79.92a2.1,2.1,0,0,0,2.47-1.38,32.72,32.72,0,0,0,1.68-10.15,2.09,2.09,0,0,0-1.7-2l-4.32-.84a2,2,0,0,1-1.64-1.64,25.6,25.6,0,0,0-1.3-4.46,2,2,0,0,1,.61-2.38l3.14-2.62a2.15,2.15,0,0,0,.43-2.76,31.14,31.14,0,0,0-6.71-7.62,2,2,0,0,0-2.76.12l-2.91,2.86a2,2,0,0,1-2.4.34,22.26,22.26,0,0,0-4.62-2,2,2,0,0,1-1.46-2v-4a2,2,0,0,0-1.86-2,30.73,30.73,0,0,0-10.07.56,2.11,2.11,0,0,0-1.62,2.27l.4,4a2.14,2.14,0,0,1-1.24,2.14,22.17,22.17,0,0,0-4.41,2.46A2,2,0,0,1,847.55,374Zm17.35,3.7c19.74,4.12,18.3,30.27-1.86,32a1.78,1.78,0,0,1-.65,0c-19.74-4.12-18.28-30.25,1.86-32A2.36,2.36,0,0,1,864.9,377.68Z" class="cls-5"></path><path d="M500.34,327.69H381.78v4.1H502l.6-.56q30.69-28.87,36.23-32.61l-2.3-3.4Q530.74,299.11,500.34,327.69Z" class="cls-19"></path><path d="M385.88,335.89a6.15,6.15,0,1,0-6.13,6.15A6.15,6.15,0,0,0,385.88,335.89Z" class="cls-11"></path><path d="M612.43,196.44H750.92v-4.1H610.64L610,193q-18.74,20.13-24.4,24.36l2.45,3.29Q593.94,216.26,612.43,196.44Z" class="cls-19"></path><path d="M757.47,196.84c5-6.59-2.43-14-9-9C743.45,194.41,750.9,201.86,757.47,196.84Z" class="cls-11"></path><circle r="69.29" cy="262.81" cx="556.12" class="cls-16"></circle><path d="M554,329.74c32.05,0,60.44-19,70.27-47.09s-1.15-58.75-27.17-76L554,261.83" class="cls-11"></path><path d="M553.74,264.85l-65.32-.74A65.63,65.63,0,0,0,554,329.74" class="cls-5"></path><path d="M662.81,173.88H617.63a6.16,6.16,0,1,1,0-12.31h45.09a6.16,6.16,0,0,1,.09,12.31Z" class="cls-5"></path><path d="M494.58,317.43H449.45a6.15,6.15,0,1,1,0-12.3h45.13a6.15,6.15,0,0,1,0,12.3Z" class="cls-5"></path><path d="M338.31,645.1a2.12,2.12,0,0,1,2.8,1.27,2.23,2.23,0,0,1-1.34,2.71l-2.66,1.07,8.76.37c1.11,0,2.44.77,2.32,2,0,1,.92,2.4.13,3.48,0,0-8.91,8-9.94,8h0c-4.35-.12-9.64-5.1-11.13-9.17l-2.36-6.42,13.42-3.27Z" class="cls-20"></path><g class="cls-21"><path d="M338.31,645.1a2.12,2.12,0,0,1,2.8,1.27,2.23,2.23,0,0,1-1.34,2.71l-2.66,1.07,8.76.37c1.11,0,2.44.77,2.32,2,0,1,.92,2.4.13,3.48,0,0-8.91,8-9.94,8h0c-4.35-.12-9.64-5.1-11.13-9.17l-2.36-6.42,13.42-3.27Z" class="cls-22"></path></g><path d="M177.54,874s-7.56,11.25.69,20.61-.64,14.47-.64,14.47l-33.51-33.74,16.74-16.86L177.54,874Z" class="cls-23"></path><path d="M178.84,641.18s.15-4,.12,5.09c-.05,15.1,1.37,55,.37,106.45-.8,41.12-28.75,113.12-28.75,113.12l25.64,18.53s38.08-64.43,44.2-126.78c3.14-31.92,9.55-117.78,9.55-117.78l-51.13,1.38Z" class="cls-24"></path><path d="M258,884.47s2.55,13.34,14.95,14.08,9.72,10.69,9.72,10.69H235.23V885.4l22.72-.93Z" class="cls-23"></path><path d="M264,643.82s3.89,115.94,3.49,121.6L263.8,892.1l-30.63.57-4.93-131.83s-3.24-36.36-12-70.13a264,264,0,0,1-8-53h0L264,643.82Z" class="cls-24"></path><path d="M223.57,726l2.55-39.32a226.15,226.15,0,0,1,2.63,30.43c0,6.89-1.41,34.16-1.41,34.16L223.57,726Z" class="cls-25"></path><path d="M178.5,641.18h-.1S178.47,639.21,178.5,641.18Z" class="cls-26"></path><path d="M178.63,641.18h-.1S178.6,639.21,178.63,641.18Z" class="cls-26"></path><path d="M243.77,498s5.44-5.42,5.5-16.17c0-8.32-6.76-2-6.76-2s0-6-4.24-4.82-5.76,7.68-5.76,7.68" class="cls-22"></path><path d="M216.2,478.76s-21,5.2-9.32,33l1.9-.13,3.85-.27" class="cls-22"></path><g id="sk"><path d="M243.11,540.62c-.09,0-1.14,17.37-21.34,15.86-14-1.05-19-15.89-19.29-15.89,1.51-.32,3.37-.8,4.11-1a8.17,8.17,0,0,0,6.24-6.86c.41-2.47-.28-15.08-.07-17.57L234.23,520c-.3,5.27-2.4,17.48,5,19.64,1.22.36,2.54.68,3.92,1Z" class="cls-27"></path></g><g class="cls-28" id="sh"><path d="M234.53,534.63a15.17,15.17,0,0,1-.65-3.33,35.66,35.66,0,0,1,.14-7.75,23.53,23.53,0,0,1-11.86-5.2c-.4,1.47-2.59,7.9-2,9.3,1.15,2.65,6.54,7,14.36,7Z" class="cls-22"></path></g><path d="M231.32,529.56c-8.5.39-19.26-3.53-21-14.9l-1.54-10.26c-1.7-11.37,2.89-21.48,13.59-23.09h0c10.71-1.6,20.09,6.42,21.79,17.78l.69,4.55a34,34,0,0,1,.29,4.71c0,4.17,0,10.51-2.19,15.1-2.07,4.33-6.24,5.85-11.66,6.11Z" class="cls-27"></path><path d="M211.54,518c-3.26.49-6.42-2.59-6.9-5.85s1.88-5.44,5.13-5.93l2,1.93,2.56,9.43-2.79.42Z" class="cls-27"></path><path d="M213.06,512.39a1,1,0,0,0,.95-1c-.15-3.55-.34-15.52,3.69-16.94,3.17-1.11,11.69,2.43,18.81,0,3.12-1,6.26-.67,6.78.8.2.58,1-8.29-4.89-14.13-4.7-4.64-18-4.32-23.65-1.81-15.79,7-5.56,27.74-5.56,27.74l1.29,4.69a1,1,0,0,0,1,.73l1.57-.07Z" class="cls-22"></path><ellipse transform="translate(-148.03 105.5) rotate(-19.6)" ry="6.63" rx="4.5" cy="481.23" cx="231.35" class="cls-22"></ellipse><path d="M240.31,563.83l28.77,66.44,0,.08a15.46,15.46,0,0,0,5.42,6.57l50.25,34.19L342.09,646l-49.88-34.74,5.47,6.64L268.9,551.45l-28.59,12.38Z" class="cls-29"></path><path d="M268.48,579.46c-.64,7.6-3.76,55-4.38,64.36H179c-.48-8.44-2.64-45.35-4.46-61.85-1.74-15.75-5.15-23.64-2.65-28.29,4.09-7.61,15.26-12,22.88-13,4.65-.63,11.65-1.09,11.65-1.09s.59,12.07,14.72,12.74c19.24.92,18-12.75,18.05-12.74,11.38,1.25,19.15,3.06,23.51,5.66,11.86,7.08,7.15,18.17,5.78,34.27Z" class="cls-30"></path><path d="M269.16,616.76A2,2,0,0,0,267.7,615a.15.15,0,0,0,0-.11.16.16,0,0,0-.12-.13l1.67-.37a2.11,2.11,0,0,0,1.68-2.19,2,2,0,0,0-2-1.84.13.13,0,0,0,0-.06l.69-.15a2.08,2.08,0,0,0,1.65-2,2,2,0,0,0-2.45-1.94l-1.59.35v0l0,0a2,2,0,0,0,1.11-2.27c-.18-1.17-1.59-1.55-2.61-1.32l-9.26,1.9,2.2-1.62a2.11,2.11,0,0,0,.59-2.81,2,2,0,0,0-2.88-.53l-12,8.82a6.78,6.78,0,0,0-1.56,9.26h0A10.11,10.11,0,0,0,253.41,622l14.1-3.15a2.17,2.17,0,0,0,1.65-2.13Z" class="cls-27"></path><g class="cls-31"><path d="M258.12,608.35a.18.18,0,0,0,.21.14l8.8-1.82a.19.19,0,0,0,.15-.22.19.19,0,0,0-.22-.15l-8.8,1.82a.19.19,0,0,0-.15.22Z" class="cls-27"></path></g><g class="cls-31"><path d="M258.8,612.28a.2.2,0,0,0,.22.14l9.82-2a.19.19,0,0,0,.15-.22.2.2,0,0,0-.22-.15l-9.82,2a.19.19,0,0,0-.15.22Z" class="cls-27"></path></g><g class="cls-31"><path d="M259.53,616.54a.18.18,0,0,0,.21.14l7.84-1.62a.18.18,0,0,0,.14-.22.19.19,0,0,0-.22-.15l-7.83,1.62a.19.19,0,0,0-.15.22Z" class="cls-27"></path></g><g id="b_4_b"><path d="M252.54,627.65l-76.48,13.92a15.76,15.76,0,0,1-1.68.09,15.49,15.49,0,0,1-11.3-4.91,15.7,15.7,0,0,1-4-13.33l10.71-64.08a15.54,15.54,0,1,1,30.64,5.19l-7.3,44.11,56.07-7.09,3.36,26.1Z" class="cls-32"></path></g><path d="M339.35,655.89a1.74,1.74,0,0,0,1.61,1.34s0,.1,0,.11l-1.32.57a1.79,1.79,0,0,0-1,2.08,1.7,1.7,0,0,0,1.94,1.21s0,0,0,0l-.55.24a1.77,1.77,0,0,0-1.05,2,1.7,1.7,0,0,0,2.34,1.21l1.26-.54a0,0,0,0,0,0,0l0,0a1.71,1.71,0,0,0-.56,2.05c.33.95,1.55,1,2.37.68l2.47-1.31a2.64,2.64,0,0,0,1.39-2.07c.38-3.74,1.15-13.55-1.45-12.42l-6.39,2.78a1.88,1.88,0,0,0-1,2Z" class="cls-20"></path><path d="M284.16,665.39h41l-3.23,8.2H284.16Z" class="cls-33"></path><path d="M282.11,663.34v12.3h41.22l4.85-12.3Zm4.1,8.2h34.33l1.62-4.1h-36Z" class="cls-34"></path><path d="M417.69,673.59H325.17L347.5,608H440Z" class="cls-35"></path><path d="M388.54,646.3a6.49,6.49,0,0,1-6.62-6.36,6,6,0,0,1,1-3.26,6.23,6.23,0,0,0-2.88,10,6.77,6.77,0,0,0,10.79-.84A6.69,6.69,0,0,1,388.54,646.3Z" class="cls-5"></path></svg>