<svg viewBox="0 0 1024 1024" xmlns="http://www.w3.org/2000/svg"><defs><style>.cls-1{isolation:isolate;}.cls-2{fill:#d7e4f9;}.cls-3{fill:#ecf3fe;}.cls-4{mix-blend-mode:multiply;opacity:0.2;}.cls-5{fill:#003889;}.cls-6{fill:#c4d7f2;}.cls-22,.cls-7{fill:#fff;}.cls-8{fill:#acc6e5;}.cls-9{fill:#36588e;}.cls-10{fill:#3b82f4;}.cls-11{fill:#1a71d8;}.cls-12{fill:#3a3a77;}.cls-13{fill:#33da82;}.cls-14{fill:#20ce6e;}.cls-15{fill:#e59d29;}.cls-16{fill:#d8dee8;}.cls-17{fill:#aeb7c4;}.cls-18{fill:#92a7d3;}.cls-19,.cls-20{fill:#ccceff;}.cls-20,.cls-21,.cls-22,.cls-23,.cls-24{fill-rule:evenodd;}.cls-21{fill:#a2a6e0;}.cls-23{fill:#51cfa3;}.cls-24{fill:#e9f6ff;}</style></defs><g class="cls-1"><g id="图层_1"><ellipse ry="39.55" rx="384.56" cy="907.72" cx="495.45" class="cls-2"></ellipse><circle r="247.99" cy="578.5" cx="720.48" class="cls-3"></circle><path d="M698.49,675.49V775H913.15A44.77,44.77,0,0,0,946,760.42a51.38,51.38,0,0,0,13.61-35.17,53.21,53.21,0,0,0-2-14.46c-.13-.47-.28-.94-.43-1.41-6.18-19.7-23.56-33.89-44-33.89Z" class="cls-3"></path><g class="cls-4"><path d="M754.23,675.49l202.95,33.89c-6.18-19.7-23.56-33.89-44-33.89Z" class="cls-5"></path></g><path d="M796,725.25a51.46,51.46,0,0,1-13.6,35.18A44.84,44.84,0,0,1,749.57,775H541.49a6.83,6.83,0,0,1-6.58-7h0a6.83,6.83,0,0,1,6.58-7.05h6.58V689.59h-6.58a6.83,6.83,0,0,1-6.58-7.05h0a6.83,6.83,0,0,1,6.58-7H749.57C775.22,675.49,796,697.77,796,725.25Z" class="cls-6"></path><path d="M548.07,760.9V689.59h201.5c18.36,0,33.29,16,33.29,35.66s-14.93,35.65-33.29,35.65Z" class="cls-7"></path><path d="M775,748.25a36,36,0,0,0,3.31-15.17c0-18.9-14.35-34.27-32-34.27H548.07v-9.22h201.5c18.35,0,33.29,16,33.29,35.66A37,37,0,0,1,775,748.25Z" class="cls-8"></path><polygon points="548.08 708.46 569.93 710.33 548.08 712.03 548.08 708.46" class="cls-9"></polygon><polygon points="548.08 734.77 591.12 737.03 548.08 738.91 548.08 734.77" class="cls-9"></polygon><polygon points="625.47 745.21 616.74 735.99 608.01 745.21 608.01 718.92 625.47 718.92 625.47 745.21" class="cls-9"></polygon><path d="M931.24,625.74a51.4,51.4,0,0,1-13.61,35.18,44.78,44.78,0,0,1-32.84,14.57H670.13V576H884.79c21,0,38.67,14.87,44.46,35.3A53.19,53.19,0,0,1,931.24,625.74Z" class="cls-10"></path><path d="M767.66,625.74a51.4,51.4,0,0,1-13.61,35.18,44.78,44.78,0,0,1-32.84,14.57H513.13a6.83,6.83,0,0,1-6.58-7h0a6.82,6.82,0,0,1,6.58-7h6.58V590.09h-6.58a6.83,6.83,0,0,1-6.58-7.05h0a6.83,6.83,0,0,1,6.58-7H721.21C746.86,576,767.66,598.27,767.66,625.74Z" class="cls-11"></path><path d="M519.71,661.4V590.09h201.5c18.35,0,33.29,16,33.29,35.65s-14.94,35.66-33.29,35.66Z" class="cls-7"></path><g class="cls-4"><path d="M746.62,648.75a36.07,36.07,0,0,0,3.31-15.18c0-18.89-14.36-34.26-32-34.26H519.71v-9.22h201.5c18.35,0,33.29,16,33.29,35.65A37,37,0,0,1,746.62,648.75Z" class="cls-5"></path></g><polygon points="519.71 608.95 541.56 610.83 519.71 612.52 519.71 608.95" class="cls-9"></polygon><polygon points="519.71 635.27 562.75 637.52 519.71 639.4 519.71 635.27" class="cls-9"></polygon><path d="M534.91,826.79a53.54,53.54,0,0,0,14.16,36.62,46.67,46.67,0,0,0,34.2,15.17H806.72V775H583.27a45.45,45.45,0,0,0-4.69.24c-18.19,1.87-33.43,14.53-40.09,31.94-.18.48-.36,1-.53,1.47A55,55,0,0,0,534.91,826.79Z" class="cls-12"></path><g class="cls-4"><path d="M538,808.65,741.47,782l15.83-7h-174a45.45,45.45,0,0,0-4.69.24c-18.19,1.87-33.43,14.53-40.09,31.94C538.31,807.66,538.13,808.15,538,808.65Z" class="cls-5"></path></g><path d="M705.19,826.79a53.53,53.53,0,0,0,14.16,36.62,46.7,46.7,0,0,0,34.2,15.17h216.6a7.11,7.11,0,0,0,6.85-7.34h0a7.11,7.11,0,0,0-6.85-7.34H963.3V789.67h6.85a7.1,7.1,0,0,0,6.85-7.33h0a7.11,7.11,0,0,0-6.85-7.34H753.55C726.84,775,705.19,798.19,705.19,826.79Z" class="cls-12"></path><path d="M963.3,863.9V789.67H753.55c-19.11,0-34.66,16.65-34.66,37.12s15.55,37.11,34.66,37.11Z" class="cls-7"></path><g class="cls-4"><path d="M727.1,850.74a37.51,37.51,0,0,1-3.45-15.8c0-19.67,14.94-35.67,33.3-35.67H963.3v-9.6H753.55c-19.11,0-34.66,16.65-34.66,37.12A38.52,38.52,0,0,0,727.1,850.74Z" class="cls-5"></path></g><polygon points="963.3 809.31 940.55 811.27 963.3 813.03 963.3 809.31" class="cls-9"></polygon><polygon points="963.3 836.7 918.49 839.05 963.3 841.01 963.3 836.7" class="cls-9"></polygon><polygon points="891.47 852.35 879.71 839.94 867.95 852.35 867.95 816.95 891.47 816.95 891.47 852.35" class="cls-13"></polygon><g class="cls-4"><circle r="108.64" cy="465.31" cx="777.65" class="cls-5"></circle></g><circle r="19.89" cy="517.07" cx="902.41" class="cls-7"></circle><circle r="108.64" cy="458.64" cx="783.17" class="cls-14"></circle><path d="M812.93,431.44s-31.81-5.16-58.7-.6c0,0,20.16,8.33,32.08,7.7S812.93,431.44,812.93,431.44Z" class="cls-15"></path><path d="M786.1,494.17s-1.7-27.08.56-40.74a30.42,30.42,0,0,0,26.27-22c-5.39.12-12.26,4-24.74,2.4-15.89-2.09-22.27-4.5-34-3A30.44,30.44,0,0,0,778,453c1.68,7.22,4.83,24.23,2.18,41.25,0,0-14.35.56-23.44,12.56H809S806,497.72,786.1,494.17Z" class="cls-7"></path><path d="M750.46,511.52a2.15,2.15,0,0,1-1.94-1.24,37.87,37.87,0,0,1-3.6-16.21,38.24,38.24,0,0,1,23.31-35.21,38.24,38.24,0,0,1-23.31-35.2,39.87,39.87,0,0,1,.23-4.24,2.14,2.14,0,0,1,4.26.47,34,34,0,0,0,26.21,36.88,2.14,2.14,0,0,1,0,4.18,34,34,0,0,0-23.22,47.52,2.13,2.13,0,0,1-1,2.84A2.09,2.09,0,0,1,750.46,511.52Z" class="cls-7"></path><path d="M819.28,496.21a2.14,2.14,0,0,1-2.14-2.14A33.77,33.77,0,0,0,790.72,461a2.14,2.14,0,0,1,0-4.17,34,34,0,0,0,23.22-47.52,2.14,2.14,0,0,1,3.88-1.82,38.27,38.27,0,0,1-4.89,40.24,38.41,38.41,0,0,1-14.82,11.18,38.24,38.24,0,0,1,23.31,35.21A2.14,2.14,0,0,1,819.28,496.21Z" class="cls-7"></path><rect rx="3.72" height="7.45" width="77.37" y="402.99" x="744.48" class="cls-7"></rect><rect rx="3.72" height="7.45" width="77.37" y="506.85" x="744.48" class="cls-7"></rect><polygon points="670.7 183.94 760.32 216.16 792.75 125.77 801.14 138.27 784.57 268.15 703.36 248.47 694.96 235.97 670.7 183.94" class="cls-16"></polygon><path d="M242.3,513.75l.23-.12a289.78,289.78,0,0,1-23-209.64c41.19-154.11,199.09-246.42,352-205.77,75.85,20.17,138.57,69.28,176.61,138.27a19.74,19.74,0,0,0,27,7.68A20.14,20.14,0,0,0,783,216.94C739.65,138.4,668.24,82.5,581.9,59.54c-174.07-46.28-353.84,58.8-400.72,234.25a333.13,333.13,0,0,0-10.71,65.57,327.42,327.42,0,0,0,126,279.54A19.64,19.64,0,0,0,309.32,643Z" class="cls-16"></path><polygon points="679.09 196.45 768.71 228.67 801.14 138.27 825.41 190.3 792.96 280.66 703.36 248.47 679.09 196.45" class="cls-17"></polygon><path d="M250.69,526.25l.23-.11A289.78,289.78,0,0,1,228,316.5C269.14,162.38,427,70.08,580,110.73,655.8,130.9,718.52,180,756.56,249a19.75,19.75,0,0,0,27,7.68,20.14,20.14,0,0,0,7.77-27.23C748,150.9,676.64,95,590.29,72.05,416.22,25.77,236.46,130.85,189.57,306.3a333.13,333.13,0,0,0-10.71,65.57c-6.66,107.33,39.26,212.23,126,279.54a19.64,19.64,0,0,0,12.82,4.12Z" class="cls-17"></path><path d="M196.88,870.87c-4.55,2.79-6.88-84.36-20.09-131.89s44.18-98.76,61.79-83.41c17.43,15.21,13-157.88,60.08-129.79s25.91,110.5-.37,145.58S271.37,718.55,290,712.7,378,759.59,196.88,870.87Z" class="cls-6"></path><path d="M292.89,563.66c-1.92,12-4.23,24-6.67,35.91s-5.08,23.85-7.89,35.73c-1.34,6-2.84,11.88-4.31,17.81-.75,3-1.46,5.93-2.23,8.89l-2.32,8.87c-1.55,5.91-3.13,11.82-4.81,17.7s-3.29,11.79-5,17.66l-5.33,17.58L253,728.2l-1.41,4.37-2.83,8.74L245.89,750c-1,2.91-2,5.79-3,8.69-2,5.78-4,11.56-6.14,17.32A722.49,722.49,0,0,1,208,843.54q13.58-34.1,25.33-68.7l5.69-17.39c.95-2.89,1.94-5.77,2.84-8.69l2.7-8.73,2.74-8.73,1.37-4.36,1.31-4.38L255.22,705c3.41-11.71,6.82-23.41,10-35.17l2.46-8.81c.82-2.93,1.59-5.88,2.39-8.82l2.37-8.83c.82-2.94,1.59-5.89,2.36-8.84Q284.15,599.21,292.89,563.66Z" class="cls-18"></path><path d="M454.22,895.89H109.49l31.88-617.81c1.08-20.85,15.71-38.22,33.77-40.66l0-.23,2.47-.06H554.15v5.2c-17.11,0-31.87,16.15-32.9,36l-29.8,577.53C490.31,877.94,473.61,895.89,454.22,895.89ZM115,890.7H454.22c16.67,0,31-15.74,32-35.09l29.81-577.53c.79-15.34,8.93-28.74,20.29-35.75h-358l-.61.06c-16.53,1-30.25,16.83-31.24,36Z" class="cls-19"></path><path d="M493,771l23-20,78.77.25c-18.43,0-32.61-17.32-31.52-38.49l19.1-370.17,3.33-64.37c1.09-21.17-13.1-38.49-31.53-38.49h0c-18.43,0-34.4,17.32-35.49,38.49l-1.06,20.46-2.26,43.91Z" class="cls-20"></path><path d="M493,771l23-20,24.12-472.79c.87-16.86,11.18-31.28,24.66-36.44a28.37,28.37,0,0,0-10.63-2h0c-18.43,0-34.4,17.32-35.5,38.48l-1,20.46-2.27,43.92Z" class="cls-21"></path><path d="M112.22,893.3h342c18,0,33.57-16.87,34.63-37.56l29.81-577.53c1.09-21.16,17.06-38.48,35.49-38.48H177.63v.06c-17.65,1.1-32.61,18-33.67,38.42l-.72,14Z" class="cls-22"></path><path d="M234.89,308.46H173.8l-3.62,70.15h61.09Zm-59.14-6.53h65.16l-4.29,83.22H164.16l4.29-83.22Z" class="cls-19"></path><polygon points="186.65 339.25 182.49 343.76 196.91 361.38 223.12 332.96 219.42 328.45 197.38 352.35 186.65 339.25" class="cls-23"></polygon><polygon points="264.47 339.74 486.92 339.74 486.51 347.61 264.06 347.61 264.47 339.74" class="cls-20"></polygon><polygon points="263.26 363.01 485.72 363.01 485.31 370.88 262.86 370.88 263.26 363.01" class="cls-20"></polygon><polygon points="265.84 313.2 391.99 313.2 391.59 321.08 265.43 321.08 265.84 313.2" class="cls-20"></polygon><path d="M228.8,426.44H167.72l-3.63,70.16h61.09Zm-59.14-6.53h65.16l-4.29,83.22H158.07l4.29-83.22Z" class="cls-19"></path><path d="M222.71,544.43H161.63L158,614.58h61.08Zm-59.14-6.53h65.16l-4.29,83.22H152l4.3-83.22Z" class="cls-19"></path><path d="M216.62,662.41H155.54l-3.62,70.16H213Zm-59.14-6.53h65.17l-4.3,83.22H145.89l4.3-83.22Z" class="cls-19"></path><polygon points="180.56 457.24 176.4 461.75 190.82 479.36 217.03 450.95 213.33 446.44 191.29 470.33 180.56 457.24" class="cls-23"></polygon><polygon points="174.47 575.22 170.31 579.73 184.74 597.35 210.94 568.93 207.24 564.42 185.2 588.32 174.47 575.22" class="cls-23"></polygon><polygon points="168.38 693.21 164.22 697.72 178.65 715.33 204.85 686.92 201.15 682.41 179.11 706.3 168.38 693.21" class="cls-23"></polygon><polygon points="258.38 457.72 480.83 457.72 480.42 465.6 257.97 465.6 258.38 457.72" class="cls-20"></polygon><polygon points="252.29 575.71 474.74 575.71 474.33 583.58 251.88 583.58 252.29 575.71" class="cls-20"></polygon><polygon points="246.2 693.69 468.65 693.69 468.25 701.57 245.79 701.57 246.2 693.69" class="cls-20"></polygon><polygon points="240.11 811.68 462.56 811.68 462.16 819.55 239.71 819.55 240.11 811.68" class="cls-20"></polygon><polygon points="257.18 481 479.63 481 479.22 488.87 256.77 488.87 257.18 481" class="cls-20"></polygon><polygon points="251.09 598.98 473.54 598.98 473.13 606.86 250.68 606.86 251.09 598.98" class="cls-20"></polygon><polygon points="245 716.97 467.45 716.97 467.04 724.84 244.59 724.84 245 716.97" class="cls-20"></polygon><polygon points="238.91 834.95 461.36 834.95 460.96 842.83 238.5 842.83 238.91 834.95" class="cls-20"></polygon><polygon points="259.75 431.19 385.9 431.19 385.5 439.06 259.34 439.06 259.75 431.19" class="cls-20"></polygon><polygon points="253.66 549.17 379.81 549.17 379.41 557.05 253.25 557.05 253.66 549.17" class="cls-20"></polygon><polygon points="247.57 667.16 373.73 667.16 373.32 675.04 247.16 675.04 247.57 667.16" class="cls-20"></polygon><path d="M426.71,777l-4,77.78c-1.09,21.17,13.1,38.49,31.53,38.49H77.69v-.06c-17.54-1.1-30.76-18-29.7-38.43l.72-14L52,777Z" class="cls-24"></path><path d="M454.22,895.89H75l0-.32c-17.83-2.58-30.65-20-29.57-40.89l4.14-80.25H429.44L425.29,855c-.54,10.4,2.87,20.28,9.36,27.11a26.89,26.89,0,0,0,19.57,8.64ZM78.7,890.7H436.94a33.64,33.64,0,0,1-6.05-5.07c-7.47-7.85-11.4-19.14-10.79-31L424,779.62H54.48L50.59,855c-1,19,11,34.68,27.27,35.7Z" class="cls-19"></path></g></g></svg>