<?xml version="1.0" standalone="no"?><!DOCTYPE svg PUBLIC "-//W3C//DTD SVG 1.1//EN" "http://www.w3.org/Graphics/SVG/1.1/DTD/svg11.dtd"><svg height="1024" node-id="1" sillyvg="true" template-height="1024" template-width="1024" version="1.1" viewBox="0 0 1024 1024" width="1024" xmlns="http://www.w3.org/2000/svg" xmlns:xlink="http://www.w3.org/1999/xlink"><defs node-id="97"><clipPath id="clip-path" node-id="5"><path d="M 728.40 249.90 L 728.20 255.40 L 727.60 260.80 L 726.60 266.10 L 723.40 276.40 L 721.30 281.30 L 716.10 290.50 L 713.00 294.90 L 705.80 302.70 L 697.60 309.60 L 693.00 312.50 L 688.30 315.20 L 683.20 317.50 L 678.00 319.40 L 672.70 321.00 L 667.50 322.10 L 656.80 323.10 L 646.10 322.50 L 640.90 321.70 L 635.70 320.50 L 625.70 316.90 L 616.20 311.90 L 611.70 308.80 L 607.50 305.40 L 603.40 301.60 L 599.60 297.50 L 596.20 293.30 L 593.20 288.80 L 588.10 279.30 L 584.60 269.30 L 582.50 258.90 L 582.00 253.60 L 582.30 242.90 L 583.00 237.60 L 584.10 232.30 L 585.60 227.00 L 587.50 221.80 L 589.80 216.80 L 592.50 212.00 L 595.40 207.50 L 602.30 199.20 L 606.10 195.50 L 614.50 188.90 L 619.00 186.20 L 628.60 181.60 L 638.90 178.40 L 644.20 177.40 L 649.60 176.80 L 655.20 176.60 L 661.70 176.90 L 668.00 177.70 L 674.20 179.10 L 680.30 181.00 L 686.10 183.50 L 691.80 186.40 L 697.10 189.80 L 702.20 193.70 L 707.00 198.10 L 711.30 202.80 L 715.20 207.90 L 718.60 213.30 L 721.60 218.90 L 724.00 224.80 L 725.90 230.80 L 727.30 237.10 L 728.10 243.40 L 728.40 249.90 Z" fill="#000000" fill-rule="nonzero" node-id="100" stroke="none" target-height="146.5" target-width="146.40002" target-x="582" target-y="176.6"></path></clipPath></defs><g node-id="283"><path d="M 707.00 871.00 L 690.50 862.90 L 675.60 856.10 L 662.40 850.40 L 648.90 845.20 L 636.70 841.00 L 625.70 837.90 L 617.20 835.80 L 601.80 833.30 L 587.50 832.40 L 573.70 833.00 L 567.00 834.00 L 558.30 835.70 L 549.40 838.10 L 540.40 841.10 L 531.60 844.50 L 512.50 853.30 L 497.60 860.80 L 443.40 889.80 L 434.30 894.30 L 425.30 898.10 L 416.50 901.30 L 407.90 904.00 L 399.50 906.10 L 390.70 907.80 L 382.10 908.90 L 373.80 909.60 L 365.50 909.90 L 357.50 909.60 L 347.30 908.70 L 337.40 907.20 L 327.80 905.10 L 318.40 902.40 L 309.20 899.10 L 300.30 895.40 L 291.70 891.20 L 283.30 886.50 L 275.30 881.30 L 267.50 875.80 L 260.20 870.00 L 253.20 863.80 L 246.50 857.30 L 240.20 850.60 L 234.30 843.60 L 228.90 836.50 L 223.80 829.10 L 219.20 821.60 L 215.10 814.00 L 211.50 806.50 L 208.30 798.60 L 205.60 790.90 L 203.50 783.30 L 202.00 775.80 L 199.20 758.30 L 197.10 741.10 L 195.60 724.00 L 194.60 707.20 L 194.30 690.50 L 194.50 673.70 L 195.20 657.20 L 196.40 640.90 L 198.20 624.90 L 200.40 609.10 L 203.20 593.20 L 206.40 577.70 L 210.10 562.50 L 214.20 547.60 L 218.70 533.00 L 223.70 518.40 L 229.20 504.30 L 234.90 490.50 L 241.00 477.10 L 247.50 464.10 L 254.50 451.10 L 261.80 438.60 L 269.30 426.60 L 277.20 415.00 L 285.30 403.90 L 293.80 392.90 L 302.60 382.50 L 311.60 372.50 L 320.80 363.10 L 330.20 354.20 L 340.10 345.50 L 350.10 337.40 L 360.20 329.90 L 370.50 323.00 L 380.80 316.50 L 391.60 310.50 L 402.50 305.20 L 413.40 300.40 L 424.30 296.30 L 435.40 292.70 L 445.10 290.20 L 455.50 288.10 L 466.80 286.40 L 478.10 285.30 L 489.90 284.70 L 502.20 284.60 L 514.50 285.10 L 527.00 286.20 L 539.70 287.90 L 549.20 289.60 L 568.00 294.10 L 577.40 296.90 L 586.70 300.10 L 595.70 303.70 L 604.60 307.80 L 613.40 312.20 L 621.90 317.00 L 630.10 322.30 L 638.00 328.00 L 645.60 334.20 L 652.90 340.80 L 659.70 347.90 L 666.20 355.50 L 672.30 363.70 L 676.70 370.40 L 680.80 377.40 L 684.60 384.90 L 688.10 392.70 L 691.30 401.00 L 694.00 409.30 L 696.30 417.90 L 698.20 427.10 L 699.70 436.70 L 700.80 446.90 L 701.50 459.70 L 701.60 472.30 L 699.90 508.60 L 699.40 527.40 L 700.00 541.40 L 700.80 548.20 L 702.10 554.70 L 703.80 560.90 L 705.40 565.50 L 709.60 574.00 L 712.30 578.10 L 715.30 581.90 L 718.80 585.50 L 722.80 589.10 L 727.40 592.50 L 732.10 595.50 L 737.40 598.40 L 743.50 601.20 L 750.50 603.90 L 758.20 606.20 L 766.20 608.10 L 774.50 609.50 L 782.90 610.50 L 800.20 611.50 L 813.40 611.70 L 853.70 611.30 L 867.00 611.60 L 879.90 612.50 L 888.50 613.50 L 896.80 614.90 L 904.80 616.70 L 910.80 618.40 L 922.20 622.90 L 927.70 625.60 L 932.90 628.80 L 938.00 632.40 L 942.90 636.40 L 947.70 641.00 L 952.10 645.90 L 956.30 651.40 L 960.30 657.60 L 964.20 664.50 L 967.50 671.50 L 970.70 679.30 L 973.70 688.00 L 976.40 697.70 L 978.10 705.50 L 979.30 713.10 L 980.00 720.60 L 980.30 728.00 L 980.00 735.30 L 979.40 742.70 L 978.30 749.90 L 976.80 756.90 L 974.90 763.90 L 972.60 770.80 L 969.20 779.20 L 965.30 787.40 L 960.80 795.40 L 955.80 803.30 L 950.30 810.80 L 944.30 818.00 L 937.90 825.00 L 931.00 831.80 L 923.80 838.20 L 916.30 844.30 L 908.30 850.10 L 900.00 855.60 L 891.50 860.70 L 882.70 865.40 L 873.70 869.70 L 864.40 873.60 L 854.90 877.20 L 845.30 880.20 L 835.50 882.90 L 825.60 885.10 L 815.60 886.80 L 805.60 888.10 L 795.50 888.80 L 785.40 889.10 L 775.30 888.80 L 765.30 888.00 L 755.30 886.60 L 745.40 884.70 L 735.60 882.20 L 725.90 879.10 L 716.40 875.40 L 707.00 871.00 Z" fill="#f0f8ff" fill-rule="nonzero" group-id="1" node-id="107" stroke="none" target-height="625.30005" target-width="786" target-x="194.3" target-y="284.6"></path><g node-id="284"><path d="M 938.00 417.10 L 941.00 405.50 L 936.30 405.60 L 933.30 417.20 Z M 109.10 546.50 L 113.80 545.50 L 110.40 534.70 L 105.70 535.70 L 109.10 546.50 Z M 943.50 393.90 L 945.60 382.30 L 940.90 382.50 L 938.80 394.00 Z M 102.50 524.70 L 107.30 523.70 L 104.40 512.70 L 99.70 513.60 L 102.50 524.70 Z M 947.30 370.70 L 948.40 359.10 L 943.60 359.50 L 942.50 371.00 Z M 97.10 502.60 L 101.80 501.70 L 99.60 490.70 L 94.90 491.50 L 97.10 502.60 Z M 948.90 347.60 L 948.90 336.10 L 944.10 336.70 L 944.10 348.10 Z M 97.80 479.50 L 96.30 468.30 L 91.60 469.00 L 93.00 480.30 Z M 948.30 324.80 L 947.10 313.40 L 942.40 314.20 L 943.60 325.40 Z M 95.30 457.10 L 94.70 445.80 L 89.90 446.30 L 90.60 457.70 Z M 940.60 303.10 L 945.30 302.20 L 942.70 291.20 L 938.00 292.10 L 940.50 303.10 Z M 94.60 434.40 L 94.90 423.00 L 90.10 423.40 L 89.80 434.90 Z M 934.70 281.20 L 939.30 280.20 L 935.20 269.50 L 930.60 270.60 L 934.70 281.20 Z M 95.70 411.50 L 97.10 400.00 L 92.40 400.30 L 90.90 411.90 Z M 656.30 320.00 L 659.40 319.10 L 665.00 316.80 L 673.40 311.70 L 670.00 310.00 L 662.70 314.50 L 659.20 316.00 L 655.30 317.30 Z M 638.80 316.10 L 642.80 314.10 L 639.90 311.30 L 637.50 308.20 L 635.40 304.80 L 630.90 306.10 L 633.10 309.80 L 635.70 313.10 L 638.80 316.10 Z M 686.00 301.50 L 696.90 290.80 L 692.90 289.70 L 682.20 300.20 Z M 925.60 260.20 L 930.20 258.90 L 924.30 248.60 L 919.80 250.00 L 925.60 260.20 Z M 99.20 388.50 L 101.90 377.00 L 97.30 377.00 L 94.50 388.60 Z M 625.90 295.50 L 630.50 294.40 L 626.70 283.60 L 622.00 284.60 L 625.90 295.50 Z M 707.10 280.00 L 716.90 269.10 L 712.80 268.10 L 703.00 279.00 Z M 360.00 336.20 L 363.60 335.30 L 367.10 334.10 L 370.50 332.50 L 367.50 330.50 L 365.10 331.80 L 359.90 333.30 L 354.50 333.80 L 351.80 333.50 L 350.20 336.40 L 356.70 336.50 L 360.00 336.20 Z M 913.00 240.20 L 917.40 238.60 L 913.60 233.70 L 909.50 228.90 L 905.20 230.60 L 913.00 240.10 Z M 333.50 331.60 L 336.70 329.20 L 330.00 326.00 L 323.50 322.50 L 319.90 324.70 L 326.60 328.40 L 333.50 331.60 Z M 382.50 321.70 L 386.50 316.10 L 390.20 310.20 L 385.70 309.70 L 382.20 315.40 L 378.30 320.80 Z M 105.50 365.50 L 109.80 354.00 L 105.20 353.70 L 100.80 365.40 Z M 726.70 258.20 L 736.60 247.40 L 732.50 246.30 L 722.60 257.20 Z M 618.80 273.60 L 623.50 272.70 L 620.60 261.70 L 615.90 262.60 L 618.80 273.60 Z M 896.50 221.50 L 900.60 219.60 L 895.80 215.20 L 890.60 210.80 L 886.60 212.80 L 896.50 221.50 Z M 307.50 317.20 L 311.20 315.00 L 299.30 307.30 L 295.60 309.50 L 307.50 317.20 Z M 396.10 298.60 L 401.20 287.00 L 396.60 286.80 L 391.60 298.30 Z M 115.10 342.50 L 121.50 331.20 L 117.00 330.60 L 110.50 342.10 Z M 746.90 236.70 L 757.70 226.20 L 753.90 224.90 L 742.90 235.50 Z M 613.00 251.60 L 617.70 250.70 L 614.90 239.70 L 610.20 240.60 L 613.00 251.60 Z M 283.70 301.80 L 287.40 299.60 L 275.10 292.10 L 271.50 294.40 L 283.70 301.80 Z M 875.70 204.80 L 879.40 202.60 L 873.10 198.70 L 866.50 195.30 L 863.20 197.70 L 869.60 201.00 L 875.70 204.80 Z M 405.80 275.40 L 410.20 263.70 L 405.50 263.60 L 401.20 275.20 Z M 769.40 216.00 L 782.40 206.50 L 779.20 204.70 L 765.80 214.60 Z M 129.10 320.00 L 138.20 309.20 L 134.20 308.10 L 124.80 319.20 Z M 848.70 192.30 L 851.20 189.60 L 845.10 188.20 L 839.00 187.40 L 832.80 187.00 L 831.80 189.90 L 837.50 190.20 L 843.10 191.00 L 848.70 192.30 Z M 258.60 287.40 L 262.00 285.00 L 247.80 278.70 L 244.80 281.20 L 258.60 287.40 Z M 607.40 229.50 L 612.10 228.60 L 609.00 217.60 L 604.30 218.60 L 607.40 229.50 Z M 797.10 198.10 L 802.60 195.70 L 813.90 192.00 L 812.80 189.40 L 806.60 191.10 L 800.50 193.30 L 794.60 195.90 Z M 149.10 298.90 L 155.30 293.90 L 161.90 289.40 L 158.80 287.60 L 151.90 292.30 L 145.30 297.50 Z M 414.50 252.10 L 418.90 240.60 L 414.30 240.40 L 409.90 252.00 Z M 229.40 276.40 L 231.70 273.70 L 225.60 272.50 L 219.50 271.70 L 213.30 271.30 L 212.30 274.10 L 218.10 274.50 L 229.40 276.40 Z M 177.10 281.40 L 182.70 279.20 L 194.30 275.90 L 193.40 273.20 L 187.10 274.80 L 180.90 276.80 L 174.80 279.20 Z M 601.00 207.70 L 605.70 206.70 L 602.00 195.80 L 597.30 196.90 L 601.00 207.70 Z M 423.50 229.00 L 428.40 217.50 L 423.80 217.20 L 418.90 228.80 Z M 593.10 186.20 L 597.70 185.00 L 595.20 179.50 L 592.80 174.40 L 588.20 175.70 L 593.10 186.20 Z M 433.80 205.90 L 439.80 194.50 L 435.30 194.00 L 429.30 205.60 Z M 582.40 165.50 L 586.90 164.10 L 579.70 154.10 L 575.40 155.70 L 582.40 165.50 Z M 446.50 183.20 L 454.40 172.00 L 450.20 171.20 L 442.10 182.50 Z M 566.60 146.70 L 570.60 144.80 L 566.80 141.80 L 558.80 136.80 L 555.30 139.10 L 559.30 141.40 L 566.60 146.70 Z M 463.80 161.30 L 469.30 156.00 L 475.20 151.20 L 471.70 149.70 L 465.60 154.70 L 459.80 160.10 Z M 541.00 134.10 L 543.20 131.30 L 536.90 130.40 L 530.50 130.00 L 524.20 130.20 L 523.90 133.10 L 529.60 132.90 L 535.30 133.20 L 541.00 134.10 Z M 489.20 142.50 L 494.60 140.00 L 505.70 136.20 L 504.50 133.60 L 498.30 135.40 L 492.40 137.70 L 486.60 140.40 Z" fill="#c5d7f9" fill-rule="nonzero" group-id="1,2" node-id="110" stroke="none" target-height="416.5" target-width="859.10004" target-x="89.8" target-y="130"></path></g><path d="M 964.80 916.80 L 964.40 917.60 L 963.20 918.60 L 960.40 919.80 L 955.10 921.30 L 939.50 924.00 L 927.30 925.40 L 908.10 927.30 L 883.20 929.20 L 825.00 932.50 L 754.30 935.20 L 673.20 937.30 L 583.60 938.50 L 487.40 939.00 L 391.20 938.50 L 301.60 937.30 L 220.60 935.20 L 149.90 932.50 L 91.60 929.20 L 66.80 927.30 L 47.60 925.40 L 35.40 924.00 L 19.80 921.30 L 14.50 919.80 L 11.70 918.60 L 10.50 917.60 L 10.10 916.80 L 10.50 916.00 L 11.70 915.00 L 14.50 913.80 L 19.80 912.30 L 35.40 909.70 L 47.60 908.20 L 66.80 906.30 L 91.60 904.40 L 149.90 901.10 L 220.60 898.40 L 301.60 896.40 L 391.20 895.10 L 487.40 894.60 L 583.60 895.10 L 673.20 896.40 L 754.30 898.40 L 825.00 901.10 L 883.20 904.40 L 908.10 906.30 L 927.30 908.20 L 939.50 909.70 L 955.10 912.30 L 960.40 913.80 L 963.20 915.00 L 964.40 916.00 L 964.80 916.80 Z" fill="#d7e4f9" fill-rule="nonzero" group-id="1" node-id="113" stroke="none" target-height="44.400024" target-width="954.7" target-x="10.1" target-y="894.6"></path><path d="M 334.60 905.90 L 894.50 905.90 L 994.70 499.20 L 445.10 499.20 L 334.60 905.90 Z" fill="#142480" fill-rule="nonzero" group-id="1" node-id="115" stroke="none" target-height="406.7" target-width="660.1" target-x="334.6" target-y="499.2"></path><path d="M 896.00 907.90 L 332.10 907.90 L 443.60 497.20 L 997.20 497.20 Z" fill="#142480" fill-rule="nonzero" group-id="1" node-id="117" stroke="none" target-height="410.7" target-width="665.1" target-x="332.1" target-y="497.2"></path><path d="M 314.40 905.90 L 874.20 905.90 L 974.40 499.20 L 424.80 499.20 L 314.40 905.90 Z" fill="#5eadef" fill-rule="nonzero" group-id="1" node-id="119" stroke="none" target-height="406.7" target-width="660" target-x="314.4" target-y="499.2"></path><path d="M 875.70 907.90 L 311.90 907.90 L 423.40 497.20 L 976.90 497.20 Z" fill="#5eadef" fill-rule="nonzero" group-id="1" node-id="121" stroke="none" target-height="410.7" target-width="665" target-x="311.9" target-y="497.2"></path><path d="M 355.90 877.60 L 837.50 877.60 L 926.30 527.60 L 450.90 527.60 L 355.90 877.60 Z" fill="#e7f4fa" fill-rule="nonzero" group-id="1" node-id="123" stroke="none" target-height="350" target-width="570.4" target-x="355.9" target-y="527.6"></path><path d="M 839.00 879.50 L 353.30 879.50 L 449.40 525.60 L 928.70 525.60 Z M 358.40 875.60 L 836.00 875.60 L 923.80 529.50 L 452.40 529.50 Z" fill="#e7f4fa" fill-rule="nonzero" group-id="1" node-id="125" stroke="none" target-height="353.90002" target-width="575.4" target-x="353.3" target-y="525.6"></path><path d="M 886.00 906.00 L 88.20 906.00 L 88.20 859.60 L 896.60 859.60 L 886.00 906.00 Z" fill="#142480" fill-rule="nonzero" group-id="1" node-id="127" stroke="none" target-height="46.400024" target-width="808.39996" target-x="88.2" target-y="859.6"></path><path d="M 887.60 908.00 L 86.20 908.00 L 86.20 857.60 L 899.00 857.60 Z" fill="#142480" fill-rule="nonzero" group-id="1" node-id="129" stroke="none" target-height="50.400024" target-width="812.8" target-x="86.2" target-y="857.6"></path><path d="M 770.00 809.80 L 768.90 813.00 L 767.30 815.90 L 765.20 818.70 L 762.80 821.20 L 760.10 823.30 L 757.20 825.10 L 754.00 826.40 L 750.90 827.20 L 747.60 827.50 L 359.60 827.50 L 356.40 827.20 L 353.60 826.30 L 351.30 825.10 L 349.30 823.30 L 347.80 821.20 L 346.70 818.70 L 346.10 816.00 L 346.10 813.10 L 346.60 809.80 L 411.80 566.40 L 413.00 563.30 L 414.60 560.30 L 416.60 557.50 L 419.10 555.00 L 421.70 552.90 L 424.70 551.20 L 427.80 549.80 L 431.00 549.10 L 434.30 548.80 L 822.30 548.80 L 825.50 549.10 L 828.20 549.90 L 830.60 551.20 L 832.60 552.90 L 834.10 555.00 L 835.20 557.50 L 835.80 560.20 L 835.80 563.10 L 835.20 566.40 Z" fill="#d4e6ed" fill-rule="nonzero" group-id="1" node-id="131" stroke="none" target-height="278.7" target-width="489.69998" target-x="346.1" target-y="548.8"></path><path d="M 822.30 548.80 L 434.30 548.80 L 431.00 549.10 L 427.80 549.80 L 424.70 551.20 L 421.70 552.90 L 419.10 555.00 L 416.60 557.50 L 414.60 560.30 L 413.00 563.30 L 411.80 566.40 L 403.00 599.30 L 826.40 599.30 L 835.20 566.40 L 835.80 563.10 L 835.80 560.20 L 835.20 557.50 L 834.10 555.00 L 832.60 552.90 L 830.60 551.20 L 828.20 549.90 L 825.50 549.10 L 822.30 548.80 Z" fill="#bfd7f5" fill-rule="nonzero" group-id="1" node-id="133" stroke="none" target-height="50.5" target-width="432.8" target-x="403" target-y="548.8"></path><path d="M 452.60 574.20 L 451.70 576.50 L 450.20 578.60 L 448.40 580.40 L 446.20 581.70 L 443.90 582.60 L 441.50 582.90 L 438.50 582.40 L 436.40 580.90 L 435.10 578.60 L 434.80 575.80 L 435.10 574.20 L 436.00 571.90 L 437.40 569.80 L 439.30 568.00 L 441.40 566.60 L 443.80 565.70 L 446.20 565.40 L 449.10 566.00 L 450.30 566.60 L 452.10 568.50 L 452.90 571.10 L 452.60 574.20 Z" fill="#ffffff" fill-rule="nonzero" group-id="1" node-id="135" stroke="none" target-height="17.5" target-width="18.100006" target-x="434.8" target-y="565.4"></path><path d="M 474.80 574.20 L 473.90 576.50 L 472.40 578.60 L 470.60 580.40 L 468.40 581.70 L 466.10 582.60 L 463.70 582.90 L 460.70 582.40 L 458.50 580.90 L 457.80 579.80 L 457.00 577.30 L 457.20 574.20 L 458.20 571.90 L 459.60 569.80 L 461.50 568.00 L 463.60 566.60 L 465.90 565.70 L 468.40 565.40 L 471.30 566.00 L 472.50 566.60 L 474.20 568.50 L 475.10 571.10 L 474.80 574.20 Z" fill="#ffffff" fill-rule="nonzero" group-id="1" node-id="137" stroke="none" target-height="17.5" target-width="18.100006" target-x="457" target-y="565.4"></path><path d="M 496.20 574.20 L 495.20 576.50 L 493.80 578.60 L 492.00 580.40 L 489.80 581.70 L 487.50 582.60 L 485.10 582.90 L 482.10 582.40 L 479.90 580.90 L 478.60 578.60 L 478.40 575.80 L 478.60 574.20 L 479.60 571.90 L 481.00 569.80 L 482.90 568.00 L 485.00 566.60 L 487.40 565.70 L 489.80 565.40 L 492.70 566.00 L 493.90 566.60 L 495.60 568.50 L 496.50 571.10 L 496.20 574.20 Z" fill="#ffffff" fill-rule="nonzero" group-id="1" node-id="139" stroke="none" target-height="17.5" target-width="18.100006" target-x="478.4" target-y="565.4"></path><path d="M 752.90 809.80 L 751.80 813.00 L 750.20 815.90 L 748.10 818.70 L 745.70 821.20 L 743.00 823.30 L 740.10 825.10 L 736.90 826.40 L 733.80 827.20 L 730.50 827.50 L 342.50 827.50 L 339.30 827.20 L 336.60 826.30 L 334.20 825.10 L 332.20 823.30 L 330.70 821.20 L 329.60 818.70 L 329.00 816.00 L 329.00 813.10 L 329.60 809.80 L 394.80 566.40 L 395.90 563.30 L 397.50 560.30 L 399.60 557.50 L 402.00 555.00 L 404.70 552.90 L 407.60 551.20 L 410.80 549.80 L 414.00 549.10 L 417.20 548.80 L 805.20 548.80 L 808.40 549.10 L 811.10 549.90 L 813.50 551.20 L 815.50 552.90 L 817.00 555.00 L 818.10 557.50 L 818.70 560.20 L 818.70 563.10 L 818.10 566.40 Z" fill="#ffffff" fill-rule="nonzero" group-id="1" node-id="141" stroke="none" target-height="278.7" target-width="489.7" target-x="329" target-y="548.8"></path><path d="M 805.20 548.80 L 417.20 548.80 L 414.00 549.10 L 410.80 549.80 L 407.60 551.20 L 404.70 552.90 L 402.00 555.00 L 399.60 557.50 L 397.50 560.30 L 395.90 563.30 L 394.80 566.40 L 386.00 599.30 L 809.30 599.30 L 818.10 566.40 L 818.70 563.10 L 818.70 560.20 L 818.10 557.50 L 817.00 555.00 L 815.50 552.90 L 813.50 551.20 L 811.20 549.90 L 808.40 549.10 L 805.20 548.80 Z" fill="#c9e1f9" fill-rule="nonzero" group-id="1" node-id="143" stroke="none" target-height="50.5" target-width="432.7" target-x="386" target-y="548.8"></path><path d="M 435.50 574.20 L 434.60 576.50 L 433.10 578.60 L 431.30 580.40 L 429.10 581.70 L 426.80 582.60 L 424.40 582.90 L 421.40 582.40 L 419.30 580.90 L 418.50 579.80 L 417.70 577.30 L 418.00 574.20 L 418.90 571.90 L 420.30 569.80 L 422.20 568.00 L 424.30 566.60 L 426.70 565.70 L 429.10 565.40 L 432.00 566.00 L 433.20 566.60 L 435.00 568.50 L 435.80 571.10 L 435.50 574.20 Z" fill="#ffffff" fill-rule="nonzero" group-id="1" node-id="145" stroke="none" target-height="17.5" target-width="18.099976" target-x="417.7" target-y="565.4"></path><path d="M 457.70 574.20 L 456.80 576.50 L 455.30 578.60 L 453.50 580.40 L 451.30 581.70 L 449.00 582.60 L 446.60 582.90 L 443.60 582.40 L 441.40 580.90 L 440.10 578.60 L 439.80 575.80 L 440.10 574.20 L 441.10 571.90 L 442.50 569.80 L 444.40 568.00 L 446.50 566.60 L 448.90 565.70 L 451.30 565.40 L 454.20 566.00 L 455.40 566.60 L 457.10 568.50 L 458.00 571.10 L 457.70 574.20 Z" fill="#ffffff" fill-rule="nonzero" group-id="1" node-id="147" stroke="none" target-height="17.5" target-width="18.200012" target-x="439.8" target-y="565.4"></path><path d="M 479.10 574.20 L 478.20 576.50 L 476.70 578.60 L 474.90 580.40 L 472.70 581.70 L 470.40 582.60 L 468.00 582.90 L 465.00 582.40 L 462.80 580.90 L 461.50 578.60 L 461.20 576.60 L 461.50 574.20 L 462.50 571.90 L 463.90 569.80 L 465.80 568.00 L 467.90 566.60 L 470.30 565.70 L 472.70 565.40 L 475.60 566.00 L 476.80 566.60 L 478.50 568.50 L 479.40 571.10 L 479.10 574.20 Z" fill="#ffffff" fill-rule="nonzero" group-id="1" node-id="149" stroke="none" target-height="17.5" target-width="18.199982" target-x="461.2" target-y="565.4"></path><path d="M 706.40 783.00 L 403.10 783.00 L 446.40 621.60 L 749.70 621.60 L 706.40 783.00 Z" fill="#e7f4fa" fill-rule="nonzero" group-id="1" node-id="151" stroke="none" target-height="161.40002" target-width="346.6" target-x="403.1" target-y="621.6"></path><path d="M 597.70 869.20 L 596.70 872.00 L 595.30 874.60 L 593.50 877.00 L 591.40 879.10 L 586.50 882.50 L 583.80 883.60 L 581.00 884.30 L 578.20 884.60 L 241.30 884.60 L 238.50 884.30 L 236.10 883.60 L 234.10 882.50 L 232.40 881.00 L 231.00 879.10 L 230.10 877.00 L 229.60 874.70 L 229.60 872.10 L 230.10 869.20 L 286.70 658.00 L 287.70 655.20 L 289.10 652.70 L 290.90 650.30 L 293.00 648.10 L 297.80 644.70 L 300.60 643.60 L 303.30 642.90 L 306.10 642.70 L 643.10 642.70 L 645.80 642.90 L 648.20 643.60 L 650.20 644.70 L 652.00 646.30 L 653.30 648.10 L 654.30 650.30 L 654.70 652.60 L 654.80 655.10 L 654.30 658.00 Z" fill="#d4e6ed" fill-rule="nonzero" group-id="1" node-id="153" stroke="none" target-height="241.89996" target-width="425.19998" target-x="229.6" target-y="642.7"></path><path d="M 643.10 642.60 L 306.10 642.60 L 303.30 642.90 L 300.60 643.50 L 297.80 644.70 L 295.30 646.20 L 290.80 650.20 L 289.10 652.60 L 287.70 655.20 L 286.70 658.00 L 279.00 686.50 L 646.60 686.50 L 654.20 658.00 L 654.70 655.10 L 654.70 652.50 L 654.20 650.20 L 653.30 648.00 L 652.00 646.20 L 650.20 644.70 L 648.20 643.60 L 645.80 642.90 L 643.10 642.60 Z" fill="#bfd7f5" fill-rule="nonzero" group-id="1" node-id="155" stroke="none" target-height="43.900024" target-width="375.7" target-x="279" target-y="642.6"></path><path d="M 322.10 664.70 L 321.20 666.80 L 320.00 668.50 L 318.50 670.00 L 316.60 671.20 L 314.60 671.90 L 312.40 672.30 L 310.40 672.00 L 308.80 671.20 L 307.60 670.00 L 306.90 668.50 L 306.60 666.80 L 306.80 664.70 L 307.70 662.60 L 308.90 660.80 L 310.50 659.30 L 312.30 658.20 L 314.30 657.40 L 316.50 657.10 L 318.50 657.40 L 320.10 658.10 L 321.30 659.30 L 322.10 660.80 L 322.40 662.50 L 322.10 664.70 Z" fill="#ffffff" fill-rule="nonzero" group-id="1" node-id="157" stroke="none" target-height="15.200012" target-width="15.799988" target-x="306.6" target-y="657.1"></path><path d="M 341.30 664.70 L 340.50 666.80 L 339.30 668.50 L 337.70 670.00 L 335.90 671.20 L 333.90 671.90 L 331.70 672.30 L 329.60 672.00 L 328.10 671.20 L 326.90 670.00 L 326.10 668.50 L 325.80 666.80 L 326.10 664.70 L 326.90 662.60 L 328.10 660.80 L 329.70 659.30 L 331.50 658.20 L 333.50 657.40 L 335.70 657.10 L 337.80 657.40 L 339.40 658.10 L 340.60 659.30 L 341.30 660.80 L 341.60 662.50 L 341.30 664.70 Z" fill="#ffffff" fill-rule="nonzero" group-id="1" node-id="159" stroke="none" target-height="15.200012" target-width="15.800018" target-x="325.8" target-y="657.1"></path><path d="M 359.90 664.70 L 359.00 666.80 L 357.80 668.50 L 356.30 670.00 L 354.50 671.20 L 352.50 671.90 L 350.20 672.30 L 348.20 672.00 L 346.70 671.20 L 345.50 670.00 L 344.70 668.50 L 344.40 666.80 L 344.70 664.70 L 345.50 662.60 L 346.70 660.80 L 348.30 659.30 L 350.10 658.20 L 352.10 657.40 L 354.30 657.10 L 356.40 657.40 L 357.90 658.10 L 359.10 659.30 L 359.90 660.80 L 360.20 662.50 L 359.90 664.70 Z" fill="#ffffff" fill-rule="nonzero" group-id="1" node-id="161" stroke="none" target-height="15.200012" target-width="15.800018" target-x="344.4" target-y="657.1"></path><path d="M 582.80 869.20 L 581.80 872.00 L 580.40 874.60 L 578.60 877.00 L 576.50 879.10 L 571.70 882.50 L 568.90 883.60 L 566.20 884.30 L 563.40 884.60 L 226.50 884.60 L 223.70 884.30 L 221.30 883.60 L 219.30 882.50 L 217.50 881.00 L 216.20 879.10 L 215.20 877.00 L 214.70 874.70 L 214.70 872.10 L 215.20 869.20 L 271.80 658.00 L 272.80 655.20 L 274.20 652.70 L 276.00 650.30 L 278.10 648.10 L 283.00 644.70 L 285.70 643.60 L 288.50 642.90 L 291.30 642.70 L 628.20 642.70 L 631.00 642.90 L 633.40 643.60 L 635.40 644.70 L 637.10 646.30 L 638.50 648.10 L 639.40 650.30 L 639.90 652.60 L 639.90 655.10 L 639.40 658.00 Z" fill="#ffffff" fill-rule="nonzero" group-id="1" node-id="163" stroke="none" target-height="241.89996" target-width="425.2" target-x="214.7" target-y="642.7"></path><path d="M 628.20 642.60 L 291.30 642.60 L 288.50 642.90 L 285.70 643.50 L 283.00 644.70 L 280.40 646.20 L 276.00 650.20 L 274.20 652.60 L 272.80 655.20 L 271.80 658.00 L 264.20 686.50 L 631.80 686.50 L 639.40 658.00 L 639.90 655.10 L 639.90 652.50 L 639.40 650.20 L 638.50 648.00 L 637.10 646.20 L 635.40 644.70 L 633.40 643.60 L 631.00 642.90 L 628.20 642.60 Z" fill="#c9e1f9" fill-rule="nonzero" group-id="1" node-id="165" stroke="none" target-height="43.900024" target-width="375.7" target-x="264.2" target-y="642.6"></path><path d="M 307.20 664.70 L 306.40 666.80 L 305.20 668.50 L 303.60 670.00 L 301.80 671.20 L 299.80 671.90 L 297.60 672.30 L 295.50 672.00 L 294.00 671.20 L 292.80 670.00 L 292.00 668.50 L 291.70 666.80 L 292.00 664.70 L 292.90 662.60 L 294.10 660.80 L 295.60 659.30 L 297.40 658.20 L 299.40 657.40 L 301.70 657.10 L 303.70 657.40 L 305.30 658.10 L 306.50 659.30 L 307.20 660.80 L 307.50 662.50 L 307.20 664.70 Z" fill="#ffffff" fill-rule="nonzero" group-id="1" node-id="167" stroke="none" target-height="15.200012" target-width="15.799988" target-x="291.7" target-y="657.1"></path><path d="M 326.50 664.70 L 325.60 666.80 L 324.40 668.50 L 322.90 670.00 L 321.00 671.20 L 319.00 671.90 L 316.80 672.30 L 314.80 672.00 L 313.20 671.20 L 312.00 670.00 L 311.30 668.50 L 311.00 666.80 L 311.20 664.70 L 312.10 662.60 L 313.30 660.80 L 314.90 659.30 L 316.70 658.20 L 318.70 657.40 L 320.90 657.10 L 322.90 657.40 L 324.50 658.10 L 325.70 659.30 L 326.50 660.80 L 326.80 662.50 L 326.50 664.70 Z" fill="#ffffff" fill-rule="nonzero" group-id="1" node-id="169" stroke="none" target-height="15.200012" target-width="15.799988" target-x="311" target-y="657.1"></path><path d="M 345.10 664.70 L 344.20 666.80 L 343.00 668.50 L 341.40 670.00 L 339.60 671.20 L 337.60 671.90 L 335.40 672.30 L 333.40 672.00 L 331.80 671.20 L 330.60 670.00 L 329.90 668.50 L 329.60 666.80 L 329.80 664.70 L 330.70 662.60 L 331.90 660.80 L 333.40 659.30 L 335.30 658.20 L 337.30 657.40 L 339.50 657.10 L 341.50 657.40 L 343.10 658.10 L 344.30 659.30 L 345.10 660.80 L 345.30 662.50 L 345.10 664.70 Z" fill="#ffffff" fill-rule="nonzero" group-id="1" node-id="171" stroke="none" target-height="15.200012" target-width="15.699982" target-x="329.6" target-y="657.1"></path><path d="M 516.60 850.30 L 264.10 850.30 L 300.10 715.80 L 552.60 715.80 L 516.60 850.30 Z" fill="#e7f4fa" fill-rule="nonzero" group-id="1" node-id="173" stroke="none" target-height="134.5" target-width="288.49997" target-x="264.1" target-y="715.8"></path><path d="M 682.60 753.90 L 566.30 753.90 L 543.60 735.40 L 566.30 716.80 L 682.60 716.80 L 682.60 753.90 Z" fill="#ff4650" fill-rule="nonzero" group-id="1" node-id="175" stroke="none" target-height="37.100037" target-width="139" target-x="543.6" target-y="716.8"></path><path d="M 847.80 662.70 L 731.40 662.70 L 708.70 644.20 L 731.40 625.70 L 847.80 625.70 L 847.80 662.70 Z" fill="#fec000" fill-rule="nonzero" group-id="1" node-id="177" stroke="none" target-height="37" target-width="139.09998" target-x="708.7" target-y="625.7"></path><path d="M 982.90 668.60 L 982.60 671.50 L 981.80 674.30 L 980.40 676.80 L 978.60 679.10 L 976.50 681.10 L 973.90 682.70 L 971.10 683.90 L 968.00 684.70 L 964.70 685.00 L 832.80 685.00 L 829.50 684.70 L 826.50 683.90 L 823.70 682.70 L 821.10 681.10 L 818.90 679.10 L 817.10 676.80 L 815.80 674.30 L 814.90 671.50 L 814.60 668.60 L 814.60 309.80 L 814.90 306.80 L 815.80 304.10 L 817.10 301.50 L 818.90 299.20 L 821.10 297.30 L 823.60 295.70 L 826.40 294.40 L 829.50 293.70 L 832.80 293.40 L 964.70 293.40 L 968.00 293.70 L 971.10 294.40 L 973.90 295.60 L 976.40 297.30 L 978.60 299.20 L 980.40 301.50 L 981.80 304.10 L 982.60 306.80 L 982.90 309.80 Z" fill="#23b7af" fill-rule="nonzero" group-id="1" node-id="179" stroke="none" target-height="391.6" target-width="168.30005" target-x="814.6" target-y="293.4"></path><path d="M 833.40 353.40 L 970.20 353.40 L 970.20 356.80 L 833.40 356.80 Z" fill="#ffffff" fill-rule="nonzero" group-id="1" node-id="181" stroke="none" target-height="3.399994" target-width="136.79999" target-x="833.4" target-y="353.4"></path><path d="M 833.40 383.50 L 970.20 383.50 L 970.20 386.80 L 833.40 386.80 Z" fill="#ffffff" fill-rule="nonzero" group-id="1" node-id="183" stroke="none" target-height="3.2999878" target-width="136.79999" target-x="833.4" target-y="383.5"></path><path d="M 833.40 413.50 L 970.20 413.50 L 970.20 416.80 L 833.40 416.80 Z" fill="#ffffff" fill-rule="nonzero" group-id="1" node-id="185" stroke="none" target-height="3.2999878" target-width="136.79999" target-x="833.4" target-y="413.5"></path><path d="M 833.40 443.50 L 970.20 443.50 L 970.20 446.90 L 833.40 446.90 Z" fill="#ffffff" fill-rule="nonzero" group-id="1" node-id="187" stroke="none" target-height="3.399994" target-width="136.79999" target-x="833.4" target-y="443.5"></path><path d="M 833.40 473.60 L 970.20 473.60 L 970.20 476.90 L 833.40 476.90 Z" fill="#ffffff" fill-rule="nonzero" group-id="1" node-id="189" stroke="none" target-height="3.2999878" target-width="136.79999" target-x="833.4" target-y="473.6"></path><path d="M 833.40 503.60 L 970.20 503.60 L 970.20 507.00 L 833.40 507.00 Z" fill="#ffffff" fill-rule="nonzero" group-id="1" node-id="191" stroke="none" target-height="3.399994" target-width="136.79999" target-x="833.4" target-y="503.6"></path><path d="M 833.40 533.70 L 970.20 533.70 L 970.20 537.00 L 833.40 537.00 Z" fill="#ffffff" fill-rule="nonzero" group-id="1" node-id="193" stroke="none" target-height="3.2999878" target-width="136.79999" target-x="833.4" target-y="533.7"></path><path d="M 833.40 563.70 L 970.20 563.70 L 970.20 567.00 L 833.40 567.00 Z" fill="#ffffff" fill-rule="nonzero" group-id="1" node-id="195" stroke="none" target-height="3.2999878" target-width="136.79999" target-x="833.4" target-y="563.7"></path><path d="M 833.40 593.70 L 970.20 593.70 L 970.20 597.10 L 833.40 597.10 Z" fill="#ffffff" fill-rule="nonzero" group-id="1" node-id="197" stroke="none" target-height="3.3999634" target-width="136.79999" target-x="833.4" target-y="593.7"></path><path d="M 833.40 623.80 L 970.20 623.80 L 970.20 627.10 L 833.40 627.10 Z" fill="#ffffff" fill-rule="nonzero" group-id="1" node-id="199" stroke="none" target-height="3.2999878" target-width="136.79999" target-x="833.4" target-y="623.8"></path><path d="M 833.40 653.80 L 970.20 653.80 L 970.20 657.10 L 833.40 657.10 Z" fill="#ffffff" fill-rule="nonzero" group-id="1" node-id="201" stroke="none" target-height="3.2999878" target-width="136.79999" target-x="833.4" target-y="653.8"></path><path d="M 855.30 321.80 L 851.90 321.80 L 851.90 319.30 L 861.80 319.30 L 861.80 321.80 L 858.30 321.80 L 858.30 332.20 L 855.30 332.20 Z" fill="#ffffff" fill-rule="nonzero" group-id="1" node-id="203" stroke="none" target-height="12.900024" target-width="9.899963" target-x="851.9" target-y="319.3"></path><path d="M 874.60 325.60 L 874.30 327.70 L 873.70 329.30 L 872.80 330.60 L 871.60 331.60 L 870.10 332.20 L 868.20 332.40 L 866.40 332.20 L 865.00 331.50 L 863.80 330.50 L 862.40 327.70 L 862.20 325.90 L 862.40 324.00 L 863.00 322.40 L 863.90 321.00 L 865.20 320.00 L 866.70 319.40 L 868.50 319.10 L 870.30 319.40 L 871.80 320.00 L 873.00 321.00 L 873.80 322.40 L 874.60 325.60 Z M 865.30 325.80 L 865.50 327.60 L 866.10 328.90 L 867.10 329.80 L 868.40 330.10 L 869.30 330.00 L 870.70 328.90 L 871.30 327.50 L 871.50 325.70 L 871.30 324.10 L 870.70 322.70 L 869.30 321.60 L 868.40 321.50 L 867.40 321.60 L 866.10 322.70 L 865.50 324.00 L 865.30 325.80 Z" fill="#ffffff" fill-rule="nonzero" group-id="1" node-id="205" stroke="none" target-height="13.299988" target-width="12.399963" target-x="862.2" target-y="319.1"></path><path d="M 880.30 319.50 L 886.00 319.30 L 888.50 320.00 L 890.50 321.60 L 891.20 322.80 L 891.70 325.50 L 891.20 328.30 L 889.60 330.70 L 887.70 331.70 L 885.70 332.20 L 880.30 332.20 Z M 883.30 330.00 L 885.60 329.90 L 887.40 329.00 L 888.50 327.00 L 888.60 325.60 L 888.20 323.50 L 886.70 321.90 L 885.70 321.50 L 883.30 321.60 Z" fill="#ffffff" fill-rule="nonzero" group-id="1" node-id="207" stroke="none" target-height="12.900024" target-width="11.400024" target-x="880.3" target-y="319.3"></path><path d="M 905.40 325.60 L 905.20 327.70 L 904.60 329.30 L 903.70 330.60 L 902.40 331.60 L 900.90 332.20 L 899.10 332.40 L 897.30 332.20 L 895.80 331.50 L 894.70 330.50 L 893.20 327.70 L 893.00 325.90 L 893.30 324.00 L 893.80 322.40 L 894.80 321.00 L 896.00 320.00 L 897.50 319.40 L 899.30 319.10 L 901.10 319.40 L 902.60 320.00 L 903.80 321.00 L 904.70 322.40 L 905.20 323.90 L 905.40 325.60 Z M 896.10 325.80 L 896.30 327.60 L 897.00 328.90 L 897.90 329.80 L 899.30 330.10 L 900.20 330.00 L 901.50 328.90 L 902.10 327.50 L 902.40 325.70 L 902.10 324.10 L 901.50 322.70 L 900.20 321.60 L 899.20 321.50 L 898.30 321.60 L 896.90 322.70 L 896.30 324.00 L 896.10 325.80 Z" fill="#ffffff" fill-rule="nonzero" group-id="1" node-id="209" stroke="none" target-height="13.299988" target-width="12.400024" target-x="893" target-y="319.1"></path><path d="M 911.20 319.30 L 914.10 319.30 L 914.10 329.80 L 919.20 329.80 L 919.20 332.20 L 911.20 332.20 Z" fill="#ffffff" fill-rule="nonzero" group-id="1" node-id="211" stroke="none" target-height="12.900024" target-width="8" target-x="911.2" target-y="319.3"></path><path d="M 923.90 319.30 L 923.90 332.20 L 921.00 332.20 L 921.00 319.30 Z" fill="#ffffff" fill-rule="nonzero" group-id="1" node-id="213" stroke="none" target-height="12.900024" target-width="2.9000244" target-x="921" target-y="319.3"></path><path d="M 926.50 329.20 L 929.70 330.00 L 930.90 329.80 L 931.50 329.30 L 931.70 328.60 L 931.20 327.60 L 928.10 326.10 L 927.00 325.30 L 926.30 324.30 L 926.00 323.00 L 926.20 322.00 L 927.30 320.20 L 929.40 319.30 L 930.90 319.10 L 934.20 319.80 L 933.50 322.10 L 930.80 321.50 L 929.70 321.80 L 929.10 322.20 L 929.10 323.30 L 933.90 326.10 L 934.50 327.10 L 934.60 329.50 L 933.40 331.20 L 931.20 332.20 L 927.60 332.20 L 925.90 331.60 Z" fill="#ffffff" fill-rule="nonzero" group-id="1" node-id="215" stroke="none" target-height="13.100006" target-width="8.699951" target-x="925.9" target-y="319.1"></path><path d="M 939.20 321.80 L 935.70 321.80 L 935.70 319.30 L 945.60 319.30 L 945.60 321.80 L 942.10 321.80 L 942.10 332.20 L 939.20 332.20 Z" fill="#ffffff" fill-rule="nonzero" group-id="1" node-id="217" stroke="none" target-height="12.900024" target-width="9.899963" target-x="935.7" target-y="319.3"></path><path d="M 486.90 366.20 L 486.10 373.90 L 483.90 380.90 L 481.70 385.30 L 479.00 389.30 L 475.80 392.90 L 472.20 396.10 L 468.20 398.80 L 463.80 401.00 L 456.80 403.20 L 449.10 404.00 L 441.40 403.20 L 434.40 401.00 L 430.00 398.80 L 426.00 396.10 L 422.40 392.90 L 419.20 389.30 L 416.50 385.30 L 414.30 380.90 L 412.10 373.90 L 411.30 366.20 L 412.10 358.60 L 414.30 351.50 L 416.50 347.10 L 419.20 343.10 L 422.40 339.50 L 426.00 336.30 L 430.00 333.60 L 434.40 331.40 L 441.40 329.20 L 449.10 328.50 L 456.50 329.20 L 463.60 331.30 L 470.10 334.80 L 475.80 339.50 L 480.50 345.30 L 484.00 351.80 L 486.10 358.80 L 486.90 366.20 Z" fill="#fec000" fill-rule="nonzero" group-id="1" node-id="219" stroke="none" target-height="75.5" target-width="75.600006" target-x="411.3" target-y="328.5"></path><path d="M 412.60 376.60 L 449.10 457.90 L 484.80 378.60 L 412.60 376.60 Z" fill="#fec000" fill-rule="nonzero" group-id="1" node-id="221" stroke="none" target-height="81.29999" target-width="72.19998" target-x="412.6" target-y="376.6"></path><path d="M 466.90 366.60 L 466.70 369.00 L 465.50 373.60 L 464.40 375.70 L 461.60 379.40 L 457.80 382.30 L 455.60 383.40 L 453.30 384.20 L 448.60 384.80 L 444.00 384.20 L 441.70 383.40 L 437.60 381.10 L 435.80 379.50 L 434.20 377.60 L 431.80 373.50 L 431.10 371.30 L 430.50 366.60 L 431.10 362.00 L 431.90 359.60 L 432.90 357.40 L 435.80 353.70 L 437.60 352.10 L 441.70 349.80 L 446.20 348.60 L 448.70 348.40 L 451.10 348.60 L 455.60 349.80 L 459.70 352.10 L 461.50 353.70 L 463.10 355.50 L 465.50 359.60 L 466.70 364.20 L 466.90 366.60 Z" fill="#ffffff" fill-rule="nonzero" group-id="1" node-id="223" stroke="none" target-height="36.399994" target-width="36.399994" target-x="430.5" target-y="348.4"></path><path d="M 175.00 241.70 L 181.60 241.40 L 187.90 240.50 L 194.00 239.10 L 200.00 237.10 L 205.80 234.50 L 211.30 231.60 L 216.70 228.10 L 221.70 224.10 L 226.50 219.80 L 230.90 215.10 L 235.00 209.90 L 238.90 204.40 L 242.30 198.60 L 245.30 192.50 L 247.90 186.10 L 250.10 179.40 L 251.80 172.50 L 253.10 165.50 L 253.90 158.20 L 254.10 150.60 L 253.60 140.40 L 96.40 140.40 L 95.90 150.60 L 96.10 158.20 L 96.90 165.50 L 98.20 172.50 L 99.90 179.40 L 102.10 186.10 L 104.70 192.50 L 107.70 198.60 L 111.10 204.40 L 115.00 209.90 L 119.10 215.10 L 123.50 219.80 L 128.30 224.10 L 133.30 228.10 L 138.70 231.60 L 144.20 234.50 L 150.00 237.10 L 156.00 239.10 L 162.10 240.50 L 168.40 241.40 L 175.00 241.70 Z" fill="#b3d0ff" fill-rule="nonzero" group-id="1" node-id="225" stroke="none" target-height="101.3" target-width="158.20001" target-x="95.9" target-y="140.4"></path><path d="M 175.70 229.90 L 180.80 229.70 L 185.70 229.00 L 190.40 227.90 L 194.90 226.40 L 199.30 224.40 L 203.40 222.10 L 207.20 219.50 L 210.70 216.60 L 213.90 213.30 L 216.70 209.80 L 219.20 206.10 L 221.30 202.10 L 223.00 197.90 L 224.20 193.60 L 224.90 189.10 L 225.20 184.40 L 224.90 179.30 L 126.50 179.30 L 126.10 184.40 L 126.40 189.10 L 127.10 193.60 L 128.40 197.90 L 130.00 202.10 L 132.10 206.10 L 134.60 209.80 L 137.40 213.30 L 140.60 216.60 L 144.10 219.50 L 147.90 222.10 L 152.00 224.40 L 156.40 226.40 L 160.90 227.90 L 165.60 229.00 L 170.50 229.70 L 175.70 229.90 Z" fill="#94b8ed" fill-rule="nonzero" group-id="1" node-id="227" stroke="none" target-height="50.59999" target-width="99.1" target-x="126.1" target-y="179.3"></path><path d="M 89.90 113.40 L 260.80 113.60 L 261.70 114.50 L 261.80 115.20 L 261.80 148.10 L 261.70 148.80 L 260.80 149.70 L 89.20 149.70 L 88.30 148.80 L 88.20 148.10 L 88.20 115.20 L 88.70 114.00 L 89.90 113.40 Z" fill="#4c6ef4" fill-rule="nonzero" group-id="1" node-id="229" stroke="none" target-height="36.299995" target-width="173.59999" target-x="88.2" target-y="113.4"></path><path d="M 176.10 241.70 L 182.70 242.10 L 189.00 243.10 L 195.10 244.60 L 201.10 246.70 L 206.80 249.30 L 212.30 252.40 L 217.60 255.90 L 222.70 259.90 L 227.40 264.30 L 231.70 269.10 L 235.80 274.30 L 239.60 279.90 L 242.90 285.70 L 245.90 291.80 L 248.40 298.30 L 250.60 305.10 L 252.20 311.90 L 253.40 319.00 L 254.10 326.30 L 254.30 333.90 L 253.70 344.10 L 96.50 342.00 L 96.10 331.80 L 96.40 324.20 L 97.30 316.90 L 98.60 309.90 L 100.40 303.10 L 102.70 296.30 L 105.30 290.00 L 108.40 283.90 L 111.90 278.20 L 115.70 272.70 L 119.90 267.60 L 124.40 263.00 L 129.20 258.70 L 134.30 254.80 L 139.70 251.40 L 145.20 248.50 L 151.00 246.00 L 157.00 244.10 L 163.20 242.80 L 169.50 242.00 L 176.10 241.70 Z" fill="#b3d0ff" fill-rule="nonzero" group-id="1" node-id="231" stroke="none" target-height="102.40001" target-width="158.20001" target-x="96.1" target-y="241.7"></path><path d="M 175.90 264.40 L 181.00 264.70 L 185.90 265.40 L 190.60 266.60 L 195.30 268.20 L 199.70 270.20 L 204.00 272.60 L 208.10 275.40 L 212.00 278.50 L 219.10 285.60 L 222.30 289.60 L 227.80 298.50 L 230.10 303.30 L 233.70 313.50 L 235.90 324.40 L 236.50 330.10 L 236.60 336.00 L 236.20 343.90 L 114.00 342.20 L 113.70 334.30 L 114.00 328.40 L 114.60 322.80 L 117.10 312.00 L 120.90 301.80 L 123.30 297.10 L 129.00 288.40 L 132.20 284.50 L 139.40 277.50 L 143.40 274.50 L 147.60 271.90 L 151.90 269.60 L 156.40 267.70 L 161.10 266.20 L 165.80 265.20 L 170.80 264.50 L 175.90 264.40 Z" fill="#83abdb" fill-rule="nonzero" group-id="1" node-id="233" stroke="none" target-height="79.5" target-width="122.90001" target-x="113.7" target-y="264.4"></path><path d="M 260.50 334.70 L 89.90 332.50 L 88.70 333.00 L 88.30 334.20 L 88.00 367.10 L 88.10 367.70 L 88.90 368.70 L 260.10 371.10 L 261.30 370.60 L 261.70 369.40 L 262.00 336.50 L 261.60 335.30 L 260.50 334.70 Z" fill="#4c6ef4" fill-rule="nonzero" group-id="1" node-id="235" stroke="none" target-height="38.600006" target-width="174" target-x="88" target-y="332.5"></path><path d="M 736.80 249.90 L 736.50 256.60 L 735.70 263.20 L 734.50 269.50 L 732.70 275.70 L 730.40 281.70 L 727.70 287.40 L 724.60 292.90 L 721.10 298.10 L 717.20 303.00 L 712.90 307.60 L 708.30 311.80 L 703.40 315.70 L 698.20 319.30 L 692.70 322.40 L 687.00 325.10 L 681.00 327.30 L 674.80 329.10 L 668.50 330.40 L 662.00 331.20 L 655.20 331.50 L 648.40 331.20 L 641.90 330.40 L 635.50 329.10 L 629.40 327.30 L 623.40 325.10 L 617.60 322.40 L 612.20 319.30 L 607.00 315.70 L 602.00 311.80 L 597.50 307.60 L 593.20 303.00 L 589.30 298.10 L 585.80 292.90 L 582.70 287.40 L 580.00 281.70 L 577.70 275.70 L 575.90 269.50 L 574.60 263.20 L 573.80 256.60 L 573.60 249.90 L 573.80 243.10 L 574.60 236.50 L 575.90 230.20 L 577.70 224.00 L 580.00 218.00 L 582.70 212.30 L 585.80 206.80 L 589.30 201.60 L 593.20 196.70 L 597.50 192.10 L 602.00 187.90 L 607.00 184.00 L 612.20 180.40 L 617.60 177.30 L 623.40 174.60 L 629.40 172.40 L 635.50 170.60 L 641.90 169.30 L 648.40 168.50 L 655.20 168.20 L 662.00 168.50 L 668.50 169.30 L 674.80 170.60 L 681.00 172.40 L 687.00 174.60 L 692.70 177.30 L 698.20 180.40 L 703.40 184.00 L 708.30 187.90 L 712.90 192.10 L 717.20 196.70 L 721.10 201.60 L 724.60 206.80 L 727.70 212.30 L 730.40 218.00 L 732.70 224.00 L 734.50 230.20 L 735.70 236.50 L 736.50 243.10 L 736.80 249.90 Z" fill="#e1edff" fill-rule="nonzero" group-id="1" node-id="237" stroke="none" target-height="163.3" target-width="163.20001" target-x="573.6" target-y="168.2"></path><path d="M 728.40 249.90 L 728.20 255.40 L 727.60 260.80 L 726.60 266.10 L 723.40 276.40 L 721.30 281.30 L 716.10 290.50 L 713.00 294.90 L 705.80 302.70 L 697.60 309.60 L 693.00 312.50 L 688.30 315.20 L 683.20 317.50 L 678.00 319.40 L 672.70 321.00 L 667.50 322.10 L 656.80 323.10 L 646.10 322.50 L 640.90 321.70 L 635.70 320.50 L 625.70 316.90 L 616.20 311.90 L 611.70 308.80 L 607.50 305.40 L 603.40 301.60 L 599.60 297.50 L 596.20 293.30 L 593.20 288.80 L 588.10 279.30 L 584.60 269.30 L 582.50 258.90 L 582.00 253.60 L 582.30 242.90 L 583.00 237.60 L 584.10 232.30 L 585.60 227.00 L 587.50 221.80 L 589.80 216.80 L 592.50 212.00 L 595.40 207.50 L 602.30 199.20 L 606.10 195.50 L 614.50 188.90 L 619.00 186.20 L 628.60 181.60 L 638.90 178.40 L 644.20 177.40 L 649.60 176.80 L 655.20 176.60 L 661.70 176.90 L 668.00 177.70 L 674.20 179.10 L 680.30 181.00 L 686.10 183.50 L 691.80 186.40 L 697.10 189.80 L 702.20 193.70 L 707.00 198.10 L 711.30 202.80 L 715.20 207.90 L 718.60 213.30 L 721.60 218.90 L 724.00 224.80 L 725.90 230.80 L 727.30 237.10 L 728.10 243.40 L 728.40 249.90 Z" fill="#8baaf7" fill-rule="nonzero" group-id="1" node-id="239" stroke="none" target-height="146.5" target-width="146.40002" target-x="582" target-y="176.6"></path><g node-id="285"><path d="M 676.60 289.40 L 671.20 287.00 L 666.10 284.30 L 661.40 281.20 L 656.80 277.80 L 648.60 270.00 L 641.40 261.10 L 637.30 254.70 L 633.60 248.00 L 630.40 240.90 L 628.10 234.50 L 626.40 228.20 L 625.30 222.00 L 624.70 215.90 L 624.60 209.90 L 625.10 203.80 L 626.10 197.90 L 627.60 192.00 L 629.60 186.20 L 632.10 180.40 L 626.60 182.40 L 621.50 184.80 L 616.60 187.60 L 611.90 190.80 L 607.50 194.30 L 603.40 198.00 L 599.70 202.10 L 596.20 206.40 L 593.10 211.00 L 590.30 215.80 L 587.90 220.90 L 585.90 226.10 L 584.30 231.50 L 583.10 237.00 L 582.30 242.60 L 582.00 248.50 L 582.10 254.30 L 582.70 260.00 L 583.60 265.50 L 585.10 271.00 L 586.90 276.30 L 589.10 281.40 L 591.70 286.30 L 594.60 291.00 L 597.90 295.50 L 601.50 299.70 L 605.40 303.60 L 609.70 307.30 L 614.20 310.60 L 619.00 313.50 L 624.10 316.20 L 629.50 318.40 L 635.00 320.20 L 640.60 321.60 L 646.10 322.50 L 651.70 323.00 L 657.40 323.00 L 662.90 322.70 L 668.40 321.90 L 673.80 320.70 L 679.10 319.10 L 684.30 317.00 L 689.30 314.60 L 694.20 311.80 L 698.80 308.70 L 703.20 305.10 L 707.40 301.20 L 711.30 296.90 L 705.40 296.40 L 693.60 294.50 L 682.20 291.40 L 676.60 289.40 Z" fill="#2b75e0" fill-rule="nonzero" group-id="1,3" node-id="243" stroke="none" target-height="142.6" target-width="129.29999" target-x="582" target-y="180.4"></path></g><g node-id="286"><g clip-path="url(#clip-path)" group-id="1,4" node-id="246"><path d="M 632.40 304.00 L 632.30 305.90 L 630.90 307.10 L 621.30 310.30 L 620.40 310.40 L 618.70 309.60 L 606.00 272.60 L 606.10 270.70 L 607.50 269.50 L 617.10 266.30 L 618.90 266.40 L 620.20 267.80 Z" fill="#83b3ff" fill-rule="nonzero" group-id="1,4" node-id="248" stroke="none" target-height="44.100006" target-width="26.400024" target-x="606" target-y="266.3"></path><path d="M 622.80 272.30 L 622.80 273.40 L 622.40 274.40 L 621.70 275.10 L 620.70 275.50 L 606.70 278.30 L 605.70 278.30 L 604.70 277.90 L 603.90 277.20 L 597.70 246.90 L 597.70 245.80 L 598.10 244.90 L 598.80 244.20 L 599.80 243.70 L 613.80 241.00 L 614.90 241.00 L 615.90 241.40 L 616.60 242.10 L 617.00 243.10 Z" fill="#ffffff" fill-rule="nonzero" group-id="1,4" node-id="250" stroke="none" target-height="37.299988" target-width="25.099976" target-x="597.7" target-y="241"></path><path d="M 710.70 280.80 L 622.70 272.70 L 616.70 242.40 L 693.30 193.60 L 710.70 280.80 Z" fill="#ffffff" fill-rule="nonzero" group-id="1,4" node-id="252" stroke="none" target-height="87.19998" target-width="94" target-x="616.7" target-y="193.6"></path><path d="M 622.40 272.80 L 620.30 260.30 L 625.30 257.50 L 630.50 255.20 L 635.70 253.30 L 646.20 250.70 L 668.30 247.30 L 674.00 245.90 L 677.70 244.50 L 681.00 242.90 L 686.30 239.20 L 689.80 234.80 L 691.20 232.10 L 696.00 221.00 L 697.80 217.80 L 710.40 280.80 Z" fill="#b8d0ff" fill-rule="nonzero" group-id="1,4" node-id="254" stroke="none" target-height="62.999985" target-width="90.10004" target-x="620.3" target-y="217.8"></path><path d="M 709.00 235.80 L 711.80 252.90 L 713.10 267.00 L 713.10 272.90 L 712.80 276.80 L 712.20 279.20 L 711.50 280.30 L 710.70 280.80 L 709.90 280.60 L 708.80 279.80 L 707.30 277.90 L 705.50 274.40 L 703.20 269.00 L 699.00 255.40 L 695.00 238.60 L 692.20 221.50 L 690.90 207.30 L 690.90 201.50 L 691.20 197.50 L 691.80 195.20 L 692.50 194.00 L 693.30 193.60 L 694.10 193.70 L 695.20 194.50 L 696.70 196.40 L 698.50 199.90 L 700.80 205.40 L 705.00 218.90 L 709.00 235.80 Z" fill="#83b3ff" fill-rule="nonzero" group-id="1,4" node-id="256" stroke="none" target-height="87.19998" target-width="22.199951" target-x="690.9" target-y="193.6"></path><path d="M 622.70 259.30 L 622.50 259.00 L 623.00 258.50 L 624.80 257.50 L 637.90 252.50 L 649.40 250.00 L 664.80 247.90 L 674.80 245.80 L 680.50 243.40 L 683.00 241.80 L 687.00 238.20 L 687.40 238.20 L 687.40 238.50 L 685.50 240.40 L 680.70 243.80 L 675.00 246.30 L 671.60 247.20 L 664.80 248.40 L 649.50 250.50 L 638.00 253.00 L 629.40 256.10 L 625.00 258.00 L 622.70 259.30 Z" fill="#26395e" fill-rule="nonzero" group-id="1,4" node-id="258" stroke="none" target-height="21.09999" target-width="64.900024" target-x="622.5" target-y="238.2"></path><path d="M 698.10 252.30 L 694.80 237.50 L 692.50 223.70 L 695.00 222.80 L 697.70 222.40 L 700.40 222.50 L 703.00 223.10 L 705.40 224.10 L 707.60 225.50 L 709.70 227.40 L 711.30 229.60 L 712.50 231.90 L 713.20 234.50 L 713.50 237.10 L 713.30 239.70 L 712.70 242.40 L 711.50 244.90 L 710.00 247.00 L 708.10 248.90 L 705.90 250.40 L 703.50 251.50 L 700.90 252.20 L 698.10 252.30 Z" fill="#ffbf00" fill-rule="nonzero" group-id="1,4" node-id="260" stroke="none" target-height="29.90001" target-width="21" target-x="692.5" target-y="222.4"></path><path d="M 701.20 238.10 L 698.50 237.00 L 696.10 235.50 L 694.00 233.50 L 698.10 252.30 L 700.90 252.20 L 703.20 251.50 L 707.10 249.30 L 708.80 247.80 L 711.40 244.10 L 712.80 239.80 L 712.90 237.40 L 710.10 238.40 L 707.10 238.80 L 704.20 238.70 L 701.20 238.10 Z" fill="#ffa607" fill-rule="nonzero" group-id="1,4" node-id="262" stroke="none" target-height="18.800003" target-width="18.900024" target-x="694" target-y="233.5"></path><path d="M 622.80 272.30 L 619.80 257.30 L 616.20 260.00 L 611.90 261.50 L 609.70 261.80 L 607.40 261.70 L 604.80 261.20 L 602.40 260.30 L 600.10 258.90 L 603.60 276.20 L 604.00 277.20 L 604.70 277.90 L 605.70 278.40 L 606.70 278.40 L 620.70 275.60 L 621.70 275.10 L 622.50 274.40 L 622.90 273.40 L 622.80 272.30 Z" fill="#b8d0ff" fill-rule="nonzero" group-id="1,4" node-id="264" stroke="none" target-height="21.100006" target-width="22.800049" target-x="600.1" target-y="257.3"></path></g></g><path d="M 809.90 219.60 L 810.10 219.60 Z" fill="#ffffff" fill-rule="nonzero" group-id="1" node-id="267" stroke="none" target-height="0" target-width="0.19995117" target-x="809.9" target-y="219.6"></path><path d="M 855.80 219.60 L 856.10 219.60 Z" fill="#ffffff" fill-rule="nonzero" group-id="1" node-id="269" stroke="none" target-height="0" target-width="0.2999878" target-x="855.8" target-y="219.6"></path><path d="M 911.70 219.60 L 912.00 219.60 L 911.70 219.60 Z" fill="#ffffff" fill-rule="nonzero" group-id="1" node-id="271" stroke="none" target-height="0" target-width="0.2999878" target-x="911.7" target-y="219.6"></path><path d="M 958.00 219.60 L 957.70 219.60 Z" fill="#ffffff" fill-rule="nonzero" group-id="1" node-id="273" stroke="none" target-height="0" target-width="0.2999878" target-x="957.7" target-y="219.6"></path><path d="M 94.40 557.20 L 164.40 557.20 L 168.40 557.90 L 170.20 558.80 L 173.10 561.30 L 175.10 564.70 L 175.80 568.70 L 175.80 606.50 L 175.60 608.70 L 175.00 610.90 L 173.90 612.90 L 172.50 614.60 L 170.80 616.10 L 168.80 617.10 L 166.70 617.80 L 164.40 618.00 L 147.70 618.00 L 147.50 629.40 L 134.90 618.00 L 94.40 618.00 L 90.40 617.30 L 88.60 616.40 L 85.60 613.90 L 83.60 610.50 L 82.90 606.50 L 83.10 566.60 L 84.50 562.90 L 87.00 559.90 L 90.40 557.90 L 94.40 557.20 Z" fill="#7689d6" fill-rule="nonzero" group-id="1" node-id="275" stroke="none" target-height="72.20001" target-width="92.9" target-x="82.9" target-y="557.2"></path><path d="M 120.80 581.60 L 109.80 586.80 L 120.80 591.90 L 120.80 596.10 L 106.00 588.90 L 106.00 584.60 L 120.80 577.50 Z" fill="#ffffff" fill-rule="nonzero" group-id="1" node-id="277" stroke="none" target-height="18.599976" target-width="14.800003" target-x="106" target-y="577.5"></path><path d="M 154.40 584.60 L 154.40 588.90 L 139.60 596.10 L 139.60 591.90 L 150.60 586.80 L 139.60 581.60 L 139.60 577.50 Z" fill="#ffffff" fill-rule="nonzero" group-id="1" node-id="279" stroke="none" target-height="18.599976" target-width="14.799988" target-x="139.6" target-y="577.5"></path><path d="M 132.80 574.60 L 125.60 599.40 L 129.20 599.40 L 136.40 574.60 L 132.80 574.60 Z" fill="#ffffff" fill-rule="nonzero" group-id="1" node-id="281" stroke="none" target-height="24.800049" target-width="10.799995" target-x="125.6" target-y="574.6"></path></g></svg>