<?xml version="1.0" standalone="no"?><!DOCTYPE svg PUBLIC "-//W3C//DTD SVG 1.1//EN" "http://www.w3.org/Graphics/SVG/1.1/DTD/svg11.dtd"><svg height="1024" node-id="1" sillyvg="true" template-height="1024" template-width="1024" version="1.1" viewBox="0 0 1024 1024" width="1024" xmlns="http://www.w3.org/2000/svg" xmlns:xlink="http://www.w3.org/1999/xlink"><defs node-id="30"><linearGradient gradientUnits="objectBoundingBox" id="未命名的渐变_102" node-id="5" spreadMethod="pad" x1="363.37" x2="242.11" y1="228.16" y2="635.9"><stop offset="0" stop-color="#177bff"></stop><stop offset="1" stop-color="#0065ff"></stop></linearGradient><linearGradient gradientUnits="objectBoundingBox" id="未命名的渐变_106" node-id="8" spreadMethod="pad" x1="452.65" x2="424.25" y1="16.31" y2="88.05"><stop offset="0" stop-color="#83b3ff"></stop><stop offset="0.96" stop-color="#177bff"></stop></linearGradient><linearGradient gradientUnits="objectBoundingBox" id="未命名的渐变_123" node-id="11" spreadMethod="pad" x1="673.05" x2="551.72" y1="367.26" y2="769.67"><stop offset="0" stop-color="#0049e5"></stop><stop offset="0.41" stop-color="#5e9bf9"></stop><stop offset="1" stop-color="#0049e5"></stop></linearGradient><linearGradient gradientUnits="objectBoundingBox" id="未命名的渐变_135" node-id="15" spreadMethod="pad" x1="505.9" x2="384.19" y1="27.66" y2="436.88"><stop offset="0" stop-color="#63a0ff"></stop><stop offset="0.14" stop-color="#ffffff"></stop><stop offset="1" stop-color="#63a0ff"></stop></linearGradient></defs><path d="M 214.40 1019.50 L 210.60 1017.20 L 206.90 1014.20 L 204.70 1012.10 L 200.80 1007.10 L 196.50 999.30 L 193.90 992.70 L 192.90 989.10 L 191.70 983.20 L 190.90 977.40 L 190.50 966.70 L 191.00 959.10 L 192.00 951.70 L 193.60 944.30 L 195.90 935.90 L 464.00 99.90 L 337.20 64.70 L 69.10 900.70 L 67.30 906.90 L 65.10 916.50 L 64.10 923.80 L 63.60 931.50 L 63.80 940.80 L 65.20 950.40 L 67.00 957.70 L 70.40 965.90 L 73.80 971.90 L 75.70 974.40 L 77.80 976.90 L 82.40 981.00 L 89.10 985.20 L 94.70 987.30 L 221.50 1022.50 L 214.40 1019.50 Z" fill="url(#未命名的渐变_102)" fill-rule="nonzero" node-id="61" stroke="none" target-height="957.8" target-width="400.4" target-x="63.6" target-y="64.7"></path><path d="M 510.00 40.90 L 514.90 38.70 L 519.60 37.10 L 524.30 36.00 L 528.90 35.40 L 533.50 35.40 L 538.00 35.90 L 542.30 37.00 L 546.60 38.70 L 550.50 40.90 L 554.20 43.70 L 557.80 47.20 L 561.30 51.40 L 927.80 570.30 L 930.30 574.30 L 932.50 578.50 L 934.40 583.00 L 935.90 587.80 L 937.30 594.30 L 938.20 601.10 L 938.50 608.30 L 938.30 615.40 L 937.50 622.80 L 936.20 630.20 L 934.40 637.60 L 932.10 644.80 L 929.40 652.00 L 926.20 659.00 L 922.60 665.80 L 918.60 672.20 L 914.10 678.30 L 909.30 684.00 L 904.20 689.20 L 900.10 692.80 L 895.90 696.00 L 886.90 701.40 L 252.10 1018.50 L 246.50 1021.00 L 241.20 1022.60 L 236.20 1023.60 L 231.50 1024.00 L 226.70 1023.80 L 222.20 1023.00 L 218.00 1021.60 L 214.00 1019.70 L 210.20 1017.30 L 206.70 1014.50 L 203.50 1011.10 L 200.50 1007.30 L 198.00 1003.10 L 195.80 998.60 L 193.90 993.60 L 192.30 988.10 L 191.20 982.60 L 190.50 976.80 L 190.20 970.50 L 190.40 963.90 L 190.90 957.30 L 192.00 950.50 L 193.60 943.40 L 195.70 936.00 L 463.90 100.10 L 466.40 92.90 L 469.30 86.20 L 472.40 79.90 L 475.70 74.10 L 479.50 68.30 L 483.40 63.10 L 487.50 58.30 L 491.70 54.00 L 496.30 49.90 L 500.80 46.40 L 505.40 43.40 L 510.00 40.90 Z" fill="#197cff" fill-rule="nonzero" node-id="63" stroke="none" target-height="988.6" target-width="748.3" target-x="190.2" target-y="35.4"></path><path d="M 472.30 80.10 L 477.20 71.90 L 484.20 62.30 L 489.00 56.90 L 494.50 51.50 L 502.90 44.90 L 506.50 42.60 L 513.10 39.30 L 518.90 37.20 L 522.30 36.20 L 525.90 35.60 L 533.00 35.20 L 537.90 35.70 L 541.30 36.40 L 414.40 1.30 L 408.60 0.20 L 403.80 0.00 L 395.70 1.00 L 392.80 1.80 L 385.90 4.30 L 379.60 7.50 L 375.70 10.00 L 367.60 16.40 L 362.10 21.70 L 357.80 26.50 L 349.90 37.30 L 345.40 45.30 L 341.90 52.60 L 337.20 64.70 L 464.00 99.90 L 468.20 88.80 L 472.30 80.10 Z" fill="url(#未命名的渐变_106)" fill-rule="nonzero" node-id="65" stroke="none" target-height="99.9" target-width="204.09998" target-x="337.2" target-y="0"></path><g node-id="84"><path d="M 540.50 208.80 L 812.00 618.10 L 361.60 850.60 L 540.50 208.80 Z" fill="#bedafd" fill-rule="nonzero" group-id="1" node-id="69" stroke="none" target-height="641.8" target-width="450.4" target-x="361.6" target-y="208.8"></path></g><g node-id="85"><path d="M 562.90 360.40 L 717.00 593.60 L 469.40 714.00 L 562.90 360.40 Z" fill="#ffffff" fill-rule="nonzero" group-id="2" node-id="74" stroke="none" target-height="353.6" target-width="247.6" target-x="469.4" target-y="360.4"></path></g><g node-id="86"><path d="M 562.90 360.40 L 717.00 593.60 L 469.40 714.00 L 484.20 658.10 L 637.20 583.40 L 548.90 413.60 L 562.90 360.40 Z" fill="url(#未命名的渐变_123)" fill-rule="nonzero" group-id="3" node-id="79" stroke="none" target-height="353.6" target-width="247.6" target-x="469.4" target-y="360.4"></path></g><path d="M 531.80 35.40 L 520.70 38.50 L 513.90 42.10 L 509.00 45.30 L 504.10 49.00 L 499.30 53.40 L 494.80 58.00 L 490.40 63.10 L 486.20 68.70 L 482.20 74.80 L 478.60 81.10 L 475.30 87.80 L 472.30 94.90 L 469.60 102.60 L 358.30 429.20 L 463.90 100.20 L 466.40 93.00 L 469.20 86.30 L 472.30 80.00 L 475.70 74.10 L 479.50 68.40 L 483.40 63.20 L 487.50 58.40 L 491.70 54.10 L 496.30 50.00 L 500.80 46.50 L 505.40 43.40 L 513.40 39.30 L 517.00 37.90 L 524.30 36.00 L 531.80 35.40 Z" fill="url(#未命名的渐变_135)" fill-rule="nonzero" node-id="82" stroke="none" target-height="393.80002" target-width="173.5" target-x="358.3" target-y="35.4"></path></svg>